<svg id="svg" version="1.1" xmlns="http://www.w3.org/2000/svg" xmlns:xlink="http://www.w3.org/1999/xlink" width="400" height="141.13345521023766" viewBox="0, 0, 400,141.13345521023766"><g id="svgg"><path id="path0" d="M25.228 30.886 C 24.880 31.001,24.698 31.173,24.684 31.404 C 24.585 33.014,24.489 42.934,24.570 43.255 C 24.636 43.519,24.791 43.667,25.003 43.667 C 25.330 43.667,25.333 43.839,25.333 62.890 L 25.333 82.113 25.758 82.307 C 26.366 82.584,31.101 82.571,31.282 82.292 C 31.356 82.177,31.454 72.046,31.500 59.778 C 31.582 37.941,31.590 37.468,31.907 37.237 C 32.155 37.055,32.861 37.000,34.928 37.000 C 37.099 37.000,37.666 36.952,37.829 36.755 C 38.046 36.494,38.129 31.176,37.921 30.841 C 37.776 30.606,25.949 30.648,25.228 30.886 M51.792 30.782 C 51.415 30.880,51.451 26.258,51.493 69.583 C 51.524 102.408,51.563 107.802,51.769 108.125 C 52.000 108.487,52.094 108.500,54.583 108.500 C 57.071 108.500,57.167 108.487,57.402 108.125 C 57.613 107.800,57.653 103.096,57.698 72.750 C 57.739 45.122,57.794 37.673,57.958 37.386 C 58.158 37.036,58.286 37.019,61.090 36.969 C 63.466 36.926,64.042 36.870,64.170 36.667 C 64.509 36.130,64.369 31.031,64.011 30.839 C 63.694 30.670,52.424 30.616,51.792 30.782 M103.899 30.862 C 103.767 31.076,103.804 42.817,103.937 43.033 C 104.076 43.258,109.404 43.196,109.633 42.967 C 109.772 42.828,109.833 41.963,109.833 40.152 C 109.833 36.569,109.629 36.775,113.276 36.667 L 116.083 36.583 116.129 33.735 L 116.174 30.887 111.795 30.777 C 105.460 30.618,104.040 30.634,103.899 30.862 M129.225 30.806 C 129.119 30.878,129.065 44.534,129.072 69.791 C 129.078 91.172,129.102 108.609,129.125 108.541 C 129.148 108.472,130.585 108.443,132.318 108.476 L 135.469 108.535 135.724 108.143 C 135.950 107.794,135.985 103.810,136.031 72.714 C 136.081 39.370,136.098 37.664,136.380 37.381 C 136.634 37.127,137.080 37.071,139.414 37.000 C 140.988 36.952,142.225 36.842,142.325 36.742 C 142.674 36.393,142.586 31.142,142.228 30.880 C 141.899 30.639,129.576 30.570,129.225 30.806 M182.189 30.890 C 182.009 31.107,181.991 32.281,182.090 37.162 L 182.213 43.167 185.013 43.167 C 188.341 43.167,188.028 43.475,188.059 40.168 C 188.093 36.535,187.962 36.667,191.517 36.667 C 194.884 36.667,194.667 36.871,194.664 33.696 C 194.663 32.351,194.606 31.164,194.539 31.059 C 194.319 30.718,182.466 30.555,182.189 30.890 M220.615 30.774 C 220.552 30.837,220.500 32.267,220.500 33.951 L 220.500 37.014 227.375 36.921 C 231.156 36.870,239.950 36.773,246.917 36.705 C 253.883 36.638,259.677 36.523,259.792 36.448 C 259.944 36.350,260.000 35.598,260.000 33.652 C 260.000 31.667,259.947 30.973,259.792 30.925 C 259.407 30.807,220.732 30.657,220.615 30.774 M311.893 30.918 C 311.839 31.060,311.825 33.817,311.863 37.045 L 311.932 42.914 312.341 43.121 C 312.855 43.382,318.203 43.415,318.678 43.161 C 318.976 43.001,319.000 42.786,319.003 40.286 C 319.004 38.799,319.076 37.471,319.163 37.333 C 319.394 36.967,323.187 36.841,338.250 36.702 C 345.308 36.637,351.177 36.523,351.292 36.448 C 351.444 36.350,351.500 35.598,351.500 33.652 C 351.500 31.667,351.447 30.973,351.292 30.925 C 350.514 30.686,311.985 30.678,311.893 30.918 M64.511 43.812 C 64.280 44.244,64.275 49.080,64.506 49.511 C 64.706 49.884,76.001 50.023,76.678 49.661 C 76.958 49.511,77.222 44.161,76.958 43.970 C 76.891 43.921,71.168 43.673,67.803 43.573 C 64.813 43.484,64.682 43.493,64.511 43.812 M143.167 43.710 C 142.717 43.943,142.428 48.877,142.827 49.500 C 143.024 49.807,154.285 49.970,155.057 49.677 L 155.500 49.508 155.500 46.757 C 155.500 43.499,155.948 43.875,151.917 43.752 C 150.358 43.704,147.846 43.626,146.333 43.579 C 144.264 43.515,143.480 43.547,143.167 43.710 M208.515 43.820 C 208.230 44.001,208.232 107.666,208.518 108.200 C 208.662 108.469,208.947 108.500,211.312 108.500 L 213.946 108.500 214.141 108.073 C 214.286 107.754,214.340 100.475,214.354 79.198 C 214.365 63.552,214.410 49.267,214.454 47.455 C 214.515 44.993,214.484 44.098,214.331 43.913 C 214.096 43.631,208.945 43.548,208.515 43.820 M299.886 43.847 C 299.641 44.092,299.795 94.815,300.042 95.125 C 300.161 95.275,300.918 95.333,302.761 95.333 C 304.620 95.333,305.350 95.277,305.448 95.125 C 305.523 95.010,305.636 86.217,305.701 75.583 C 305.823 55.361,305.913 50.693,306.185 50.417 C 306.275 50.325,307.639 50.212,309.216 50.167 L 312.083 50.083 312.083 46.917 L 312.083 43.750 306.077 43.706 C 301.848 43.676,300.016 43.717,299.886 43.847 M90.747 44.208 C 90.696 44.415,90.676 45.746,90.702 47.167 L 90.750 49.750 93.478 49.796 C 96.945 49.854,96.667 50.129,96.667 46.646 L 96.667 43.833 93.753 43.833 C 90.870 43.833,90.839 43.837,90.747 44.208 M169.075 44.044 C 169.029 44.164,169.012 45.497,169.037 47.006 L 169.083 49.750 171.851 49.796 C 175.291 49.852,175.021 50.125,174.963 46.645 L 174.917 43.917 172.038 43.871 C 169.783 43.835,169.141 43.873,169.075 44.044 M103.981 56.863 C 103.764 57.261,103.728 106.715,103.943 107.958 L 104.037 108.500 106.676 108.500 C 109.214 108.500,109.324 108.486,109.574 108.130 C 110.021 107.492,109.963 57.531,109.515 56.977 C 109.017 56.361,104.307 56.264,103.981 56.863 M182.413 56.732 C 182.107 56.956,181.980 107.487,182.284 108.278 C 182.422 108.639,187.761 108.596,187.900 108.234 C 188.087 107.745,188.017 57.177,187.829 56.824 C 187.603 56.404,182.970 56.325,182.413 56.732 M77.907 56.903 C 77.602 57.126,77.475 94.708,77.777 95.208 C 77.993 95.565,83.143 95.340,83.407 94.963 C 83.802 94.399,83.802 57.601,83.407 57.037 C 83.081 56.571,78.514 56.460,77.907 56.903 M155.919 57.031 C 155.867 57.243,155.846 65.929,155.871 76.333 L 155.917 95.250 158.648 95.296 C 160.888 95.334,161.450 95.295,161.773 95.084 L 162.167 94.826 162.167 76.017 C 162.167 58.739,162.144 57.189,161.892 56.979 C 161.689 56.810,160.881 56.736,158.814 56.697 L 156.012 56.645 155.919 57.031 M225.333 82.658 L 221.083 82.750 221.036 85.500 C 221.010 87.013,221.030 88.419,221.081 88.625 L 221.173 89.000 233.753 89.000 C 246.111 89.000,246.339 88.994,246.667 88.667 C 247.098 88.235,247.178 83.474,246.764 82.907 C 246.507 82.556,235.791 82.432,225.333 82.658 M247.432 95.808 C 247.302 96.019,247.295 108.136,247.425 108.347 C 247.529 108.515,252.811 108.562,253.236 108.399 C 253.589 108.263,253.643 96.112,253.292 95.885 C 252.972 95.678,247.556 95.607,247.432 95.808 M273.664 96.172 C 273.450 96.572,273.471 107.550,273.687 108.133 C 273.850 108.574,279.005 108.720,279.282 108.292 C 279.599 107.802,279.930 96.164,279.632 95.975 C 279.102 95.639,273.856 95.812,273.664 96.172 M312.584 96.021 C 312.533 96.154,312.512 97.534,312.537 99.089 L 312.583 101.917 325.134 101.959 C 333.596 101.988,337.790 101.946,338.009 101.829 C 338.311 101.667,338.333 101.458,338.333 98.827 L 338.333 96.000 330.375 96.000 C 325.998 96.000,320.225 95.950,317.547 95.890 C 313.380 95.796,312.663 95.815,312.584 96.021 M25.540 96.331 C 25.273 96.759,25.242 107.684,25.506 108.178 C 25.666 108.476,25.880 108.500,28.427 108.500 L 31.175 108.500 31.337 108.072 C 31.515 107.605,31.563 97.656,31.393 96.625 L 31.290 96.000 28.518 96.000 C 25.934 96.000,25.733 96.022,25.540 96.331 " stroke="none" fill="#faf4a7" fill-rule="evenodd"></path><path id="path1" d="M116.157 33.750 L 116.083 36.583 113.276 36.667 C 109.628 36.775,109.833 36.567,109.833 40.165 C 109.833 43.448,110.113 43.195,106.530 43.155 C 104.150 43.128,103.640 43.167,103.314 43.395 C 102.994 43.619,102.445 43.667,100.171 43.669 C 96.273 43.672,96.667 43.336,96.667 46.666 C 96.667 50.136,96.949 49.863,93.432 49.800 L 90.666 49.750 90.666 52.778 C 90.667 54.443,90.712 55.925,90.768 56.070 C 90.857 56.303,91.549 56.333,96.839 56.333 C 104.175 56.333,103.469 55.965,103.548 59.833 L 103.594 62.083 103.634 59.667 C 103.690 56.314,103.547 56.458,106.734 56.529 C 109.089 56.581,109.211 56.601,109.515 56.977 C 109.991 57.566,110.017 107.575,109.542 108.147 C 109.272 108.472,109.058 108.502,106.667 108.547 C 105.246 108.573,106.781 108.592,110.078 108.589 L 116.074 108.583 116.284 108.167 C 116.515 107.710,116.570 40.137,116.344 34.000 L 116.231 30.917 116.157 33.750 M194.633 33.571 C 194.697 36.886,194.918 36.667,191.517 36.667 C 187.962 36.667,188.093 36.535,188.059 40.168 C 188.028 43.494,188.356 43.184,184.896 43.159 C 182.494 43.141,181.915 43.184,181.582 43.402 C 181.256 43.616,180.668 43.667,178.527 43.667 C 177.068 43.667,175.659 43.710,175.396 43.762 L 174.917 43.858 174.966 46.652 C 175.027 50.138,175.307 49.863,171.761 49.800 L 168.993 49.750 169.038 53.000 L 169.083 56.250 175.083 56.291 C 182.372 56.340,181.659 56.006,181.683 59.393 C 181.692 60.690,181.760 61.938,181.833 62.167 C 181.913 62.414,181.974 61.454,181.983 59.801 C 182.004 56.287,181.797 56.500,185.198 56.500 C 187.462 56.500,187.669 56.526,187.829 56.824 C 188.016 57.175,188.088 107.744,187.901 108.230 C 187.817 108.450,187.374 108.500,185.109 108.542 C 183.628 108.570,185.079 108.608,188.333 108.627 C 194.339 108.662,194.522 108.647,194.719 108.116 C 194.876 107.691,194.870 31.303,194.713 31.146 C 194.642 31.074,194.606 32.166,194.633 33.571 M260.000 33.629 C 260.000 35.594,259.944 36.350,259.792 36.448 C 259.677 36.523,253.883 36.638,246.917 36.705 C 239.950 36.773,231.156 36.870,227.375 36.921 L 220.500 37.014 220.500 39.998 C 220.500 43.767,220.182 43.473,224.121 43.348 C 225.750 43.297,231.583 43.254,237.083 43.252 L 247.083 43.250 247.126 62.880 C 247.163 80.118,247.138 82.522,246.920 82.605 C 246.736 82.676,246.715 82.779,246.836 83.006 C 247.179 83.645,247.039 88.294,246.667 88.667 C 246.339 88.994,246.111 89.000,233.753 89.000 L 221.173 89.000 221.081 88.625 C 221.030 88.419,221.010 87.013,221.036 85.500 L 221.083 82.750 223.833 82.663 L 226.583 82.575 223.833 82.496 L 221.083 82.417 221.041 63.266 C 221.010 49.271,220.948 44.054,220.809 43.888 C 220.659 43.707,219.989 43.669,217.562 43.705 L 214.504 43.750 214.443 47.250 C 214.409 49.175,214.371 63.552,214.359 79.198 C 214.341 100.312,214.286 107.756,214.143 108.069 L 213.950 108.492 211.267 108.542 C 209.791 108.570,211.304 108.609,214.629 108.629 L 220.675 108.667 220.851 108.208 C 220.971 107.896,220.989 105.912,220.908 101.989 C 220.819 97.711,220.839 96.135,220.983 95.864 L 221.178 95.500 233.807 95.500 C 244.445 95.500,246.487 95.537,246.760 95.736 C 247.051 95.949,247.092 96.248,247.167 98.695 L 247.250 101.417 247.333 98.583 L 247.417 95.750 250.167 95.750 C 251.679 95.750,253.048 95.804,253.208 95.870 C 253.479 95.981,253.500 96.440,253.500 102.158 L 253.500 108.327 253.125 108.415 C 252.919 108.463,251.625 108.524,250.250 108.551 C 248.875 108.577,250.465 108.596,253.784 108.591 C 257.735 108.586,259.877 108.523,259.990 108.410 C 260.169 108.231,260.264 31.209,260.086 31.031 C 260.039 30.983,260.000 32.153,260.000 33.629 M351.541 33.615 C 351.511 35.553,351.441 36.352,351.292 36.448 C 351.177 36.523,345.308 36.637,338.250 36.702 C 323.187 36.841,319.394 36.967,319.163 37.333 C 319.076 37.471,319.004 38.758,319.003 40.195 C 319.001 41.631,318.962 42.906,318.915 43.028 C 318.844 43.212,320.395 43.241,327.873 43.200 C 337.466 43.147,338.266 43.180,338.399 43.634 C 338.445 43.789,338.534 46.639,338.598 49.965 C 338.705 55.538,338.738 56.026,339.013 56.174 C 339.520 56.445,351.252 56.382,351.481 56.107 C 351.618 55.942,351.657 52.482,351.625 43.398 C 351.601 36.533,351.563 32.131,351.541 33.615 M64.153 36.667 C 64.073 36.873,63.541 36.926,61.111 36.969 C 58.285 37.019,58.159 37.036,57.958 37.386 C 57.794 37.673,57.739 45.122,57.698 72.750 C 57.653 102.907,57.613 107.801,57.405 108.121 C 57.177 108.473,57.039 108.494,54.624 108.542 C 53.227 108.570,54.722 108.609,57.946 108.630 C 63.209 108.663,63.838 108.638,64.085 108.391 C 64.339 108.137,64.357 106.138,64.316 82.487 C 64.280 61.593,64.312 56.809,64.490 56.596 C 64.681 56.365,65.481 56.333,71.020 56.333 L 77.333 56.333 77.333 56.833 C 77.333 57.423,77.391 57.442,77.833 57.000 C 78.371 56.463,83.026 56.494,83.407 57.037 C 83.830 57.641,83.799 94.470,83.375 94.981 C 83.104 95.307,82.894 95.335,80.417 95.379 C 78.950 95.405,80.464 95.442,83.782 95.463 L 89.814 95.500 90.074 95.130 C 90.586 94.398,90.398 57.588,89.879 57.069 C 89.696 56.886,89.004 56.837,86.659 56.842 C 84.891 56.845,83.539 56.777,83.347 56.674 C 83.161 56.575,81.914 56.500,80.440 56.500 C 77.045 56.500,77.298 56.797,77.335 52.849 C 77.392 46.939,77.338 44.167,77.167 44.167 C 77.063 44.167,77.000 45.165,77.000 46.827 C 77.000 49.288,76.976 49.501,76.678 49.661 C 76.001 50.023,64.706 49.884,64.506 49.511 C 64.249 49.032,64.280 44.135,64.542 43.784 C 64.719 43.547,65.153 43.498,67.417 43.456 L 70.083 43.408 67.395 43.370 C 64.067 43.324,64.352 43.666,64.295 39.654 C 64.270 37.873,64.206 36.529,64.153 36.667 M37.750 36.833 C 37.688 36.933,36.564 37.000,34.939 37.000 C 32.863 37.000,32.155 37.055,31.907 37.237 C 31.590 37.468,31.582 37.919,31.531 59.445 C 31.502 71.529,31.414 81.660,31.336 81.958 L 31.194 82.500 34.508 82.500 C 37.613 82.500,37.832 82.480,37.994 82.178 C 38.221 81.754,38.236 36.667,38.010 36.667 C 37.924 36.667,37.807 36.742,37.750 36.833 M142.083 36.833 C 141.900 36.912,140.652 36.982,139.310 36.988 C 137.167 36.999,136.822 37.039,136.477 37.319 L 136.083 37.637 136.031 72.694 C 135.986 102.892,135.945 107.801,135.738 108.121 C 135.509 108.474,135.374 108.494,132.874 108.545 C 131.431 108.575,132.937 108.595,136.222 108.591 C 141.995 108.584,142.202 108.572,142.443 108.250 C 142.662 107.957,142.686 104.821,142.643 82.358 C 142.595 57.368,142.601 56.793,142.912 56.566 C 143.171 56.377,144.391 56.333,149.449 56.333 L 155.667 56.333 155.678 56.875 C 155.689 57.395,155.697 57.401,155.875 57.031 C 156.101 56.561,161.335 56.516,161.892 56.979 C 162.144 57.189,162.167 58.739,162.167 76.011 L 162.167 94.814 161.796 95.074 C 161.497 95.283,160.895 95.333,158.680 95.333 C 157.169 95.333,156.005 95.390,156.092 95.458 C 156.507 95.786,168.350 95.431,168.612 95.083 C 168.957 94.625,168.876 57.477,168.529 57.129 C 168.376 56.976,167.462 56.905,165.232 56.876 C 163.535 56.853,162.006 56.759,161.834 56.667 C 161.663 56.575,160.323 56.500,158.858 56.500 C 157.393 56.500,156.076 56.455,155.932 56.399 C 155.700 56.311,155.670 55.601,155.671 50.291 C 155.672 46.987,155.634 44.245,155.586 44.197 C 155.539 44.150,155.500 45.325,155.500 46.810 L 155.500 49.508 155.057 49.677 C 154.285 49.970,143.024 49.807,142.830 49.500 C 142.530 49.025,142.627 44.074,142.942 43.812 C 143.138 43.649,143.963 43.559,145.817 43.498 L 148.417 43.412 145.750 43.331 C 142.349 43.228,142.667 43.589,142.667 39.823 C 142.667 38.087,142.610 36.672,142.542 36.678 C 142.473 36.685,142.267 36.755,142.083 36.833 M312.115 49.958 C 312.016 50.111,311.256 50.167,309.272 50.167 C 307.363 50.167,306.483 50.228,306.290 50.375 C 305.894 50.676,305.837 53.123,305.701 75.617 C 305.623 88.438,305.526 95.041,305.413 95.154 C 305.316 95.250,304.126 95.346,302.663 95.375 C 301.244 95.403,302.840 95.443,306.208 95.463 L 312.333 95.500 312.369 98.625 L 312.405 101.750 312.494 98.833 L 312.583 95.917 315.667 95.828 C 317.362 95.779,318.712 95.710,318.667 95.674 C 318.621 95.639,317.196 95.566,315.500 95.513 L 312.417 95.417 312.333 72.583 C 312.287 60.025,312.189 49.844,312.115 49.958 M339.750 82.451 C 338.724 82.561,338.760 82.346,338.626 89.216 C 338.403 100.610,338.360 101.556,338.044 101.794 C 337.824 101.959,335.044 102.003,325.097 101.998 L 312.430 101.992 312.174 102.454 C 311.979 102.805,311.904 103.586,311.862 105.685 L 311.806 108.454 312.195 108.558 C 313.194 108.826,351.135 108.674,351.408 108.402 C 351.701 108.108,351.738 82.849,351.445 82.556 C 351.303 82.414,340.959 82.321,339.750 82.451 M31.583 95.923 C 31.475 95.973,31.435 98.041,31.470 101.793 C 31.504 105.507,31.461 107.748,31.350 108.039 L 31.178 108.492 28.464 108.542 C 26.971 108.570,28.471 108.609,31.796 108.629 L 37.842 108.667 38.012 108.218 C 38.217 107.679,38.154 96.265,37.945 96.055 C 37.801 95.911,31.877 95.788,31.583 95.923 M280.049 95.966 C 279.910 96.055,279.822 97.035,279.761 99.172 C 279.600 104.900,279.417 108.150,279.246 108.321 C 279.152 108.415,278.003 108.513,276.663 108.542 C 275.336 108.570,276.855 108.610,280.038 108.630 L 285.826 108.667 286.086 108.270 C 286.526 107.598,286.379 96.401,285.926 96.070 C 285.572 95.810,280.437 95.720,280.049 95.966 " stroke="none" fill="#fbe41c" fill-rule="evenodd"></path><path id="path2" d="M38.277 35.292 C 38.217 37.835,38.167 49.371,38.167 60.926 C 38.167 77.474,38.122 81.996,37.958 82.216 C 37.770 82.469,37.106 82.500,31.152 82.540 L 24.555 82.583 24.709 83.250 C 24.794 83.617,24.812 84.867,24.750 86.033 L 24.637 88.150 25.256 88.408 C 26.011 88.724,43.266 88.804,43.844 88.494 C 44.352 88.223,44.352 31.111,43.844 30.839 C 43.662 30.742,42.406 30.667,40.954 30.667 L 38.387 30.667 38.277 35.292 M64.418 36.735 C 64.350 40.073,64.346 42.885,64.407 42.985 C 64.535 43.192,69.958 43.242,70.274 43.039 C 70.576 42.845,70.494 31.311,70.188 30.942 C 69.992 30.707,69.567 30.667,67.250 30.667 L 64.541 30.667 64.418 36.735 M116.512 69.208 C 116.486 98.745,116.432 107.846,116.279 108.166 L 116.079 108.583 110.998 108.713 C 108.203 108.784,105.410 108.808,104.792 108.767 L 103.667 108.692 103.667 111.563 C 103.667 113.573,103.727 114.493,103.867 114.633 C 104.261 115.028,122.781 114.909,122.994 114.511 C 123.172 114.178,123.080 31.098,122.901 30.809 C 122.853 30.731,121.403 30.667,119.679 30.667 L 116.545 30.667 116.512 69.208 M142.801 33.625 C 142.792 35.252,142.778 38.046,142.768 39.833 L 142.750 43.083 145.417 43.131 C 146.883 43.157,148.233 43.142,148.417 43.097 C 148.807 43.001,148.863 31.354,148.475 30.887 C 148.337 30.721,147.621 30.667,145.554 30.667 L 142.815 30.667 142.801 33.625 M195.040 33.542 C 195.016 35.123,194.941 52.601,194.873 72.381 C 194.773 101.644,194.710 108.371,194.533 108.480 C 194.252 108.653,184.230 108.872,182.917 108.733 L 181.917 108.627 181.970 111.519 C 182.001 113.218,182.095 114.497,182.199 114.622 C 182.418 114.887,199.882 114.933,200.572 114.671 L 201.000 114.508 201.000 72.750 L 201.000 30.992 200.572 30.829 C 200.337 30.740,199.006 30.667,197.614 30.667 L 195.083 30.667 195.040 33.542 M260.277 35.542 C 260.217 38.223,260.167 55.700,260.167 74.379 L 260.167 108.342 259.762 108.495 C 259.540 108.580,256.596 108.672,253.221 108.700 L 247.083 108.750 247.130 111.583 C 247.156 113.142,247.210 114.510,247.250 114.625 C 247.391 115.029,265.944 114.917,266.161 114.511 C 266.427 114.014,266.400 31.133,266.133 30.867 C 265.994 30.727,265.095 30.667,263.160 30.667 L 260.387 30.667 260.277 35.542 M351.777 35.042 C 351.717 37.448,351.667 43.133,351.667 47.675 C 351.667 53.876,351.617 55.983,351.467 56.133 C 351.205 56.395,339.475 56.421,338.989 56.161 C 338.804 56.062,338.667 55.813,338.667 55.577 C 338.667 55.352,338.609 55.167,338.539 55.167 C 338.469 55.167,338.432 56.010,338.457 57.042 C 338.591 62.576,338.573 62.353,338.912 62.600 C 339.347 62.918,357.150 62.950,357.467 62.633 C 357.813 62.287,357.750 30.901,357.403 30.768 C 357.258 30.712,355.958 30.667,354.513 30.667 L 351.887 30.667 351.777 35.042 M159.792 42.787 C 160.090 42.824,160.577 42.824,160.875 42.787 C 161.173 42.750,160.929 42.720,160.333 42.720 C 159.737 42.720,159.494 42.750,159.792 42.787 M178.333 42.833 C 176.308 42.951,176.367 43.014,178.500 43.014 C 180.912 43.014,181.000 43.008,181.000 42.833 C 181.000 42.742,180.794 42.681,180.542 42.699 C 180.290 42.717,179.296 42.778,178.333 42.833 M219.602 42.803 C 219.556 42.878,219.739 42.907,220.009 42.868 C 220.279 42.828,220.500 42.767,220.500 42.731 C 220.500 42.604,219.685 42.670,219.602 42.803 M97.799 42.946 C 97.959 43.010,97.967 43.089,97.828 43.256 C 97.674 43.442,97.716 43.446,98.070 43.282 C 98.629 43.022,98.616 42.830,98.042 42.846 C 97.790 42.854,97.680 42.899,97.799 42.946 M220.430 43.145 C 220.379 43.227,220.487 43.484,220.669 43.715 C 220.995 44.129,221.000 44.432,221.000 63.235 C 221.000 78.401,221.043 82.334,221.208 82.336 C 222.619 82.356,226.691 82.368,227.041 82.353 L 227.499 82.333 227.541 62.883 L 227.583 43.432 228.000 43.303 C 228.238 43.229,227.966 43.212,227.363 43.263 C 224.928 43.470,221.161 43.444,220.839 43.218 C 220.665 43.096,220.480 43.063,220.430 43.145 M231.125 43.284 C 231.331 43.324,231.669 43.324,231.875 43.284 C 232.081 43.245,231.912 43.212,231.500 43.212 C 231.088 43.212,230.919 43.245,231.125 43.284 M232.795 43.287 C 233.094 43.325,233.544 43.324,233.795 43.286 C 234.045 43.248,233.800 43.217,233.250 43.218 C 232.700 43.219,232.495 43.250,232.795 43.287 M235.292 43.284 C 235.498 43.324,235.835 43.324,236.042 43.284 C 236.248 43.245,236.079 43.212,235.667 43.212 C 235.254 43.212,235.085 43.245,235.292 43.284 M246.667 43.500 C 247.060 43.894,247.167 43.915,247.167 43.601 C 247.167 43.473,247.048 43.323,246.903 43.268 C 246.416 43.081,246.331 43.164,246.667 43.500 M319.098 43.292 C 319.029 43.360,317.535 43.454,315.778 43.500 L 312.583 43.583 312.480 46.833 C 312.424 48.621,312.368 60.265,312.355 72.708 L 312.333 95.333 315.403 95.333 C 317.091 95.333,318.595 95.286,318.744 95.229 C 318.993 95.134,319.013 93.265,318.992 72.573 C 318.979 60.169,319.018 49.939,319.080 49.839 C 319.190 49.661,335.440 49.617,337.458 49.790 C 338.250 49.858,338.333 49.903,338.333 50.266 C 338.333 50.486,338.397 50.667,338.475 50.667 C 338.613 50.667,338.555 44.436,338.410 43.730 C 338.361 43.491,338.167 43.342,337.815 43.271 C 337.068 43.122,319.248 43.141,319.098 43.292 M77.587 43.667 C 77.467 43.880,77.336 55.937,77.452 56.083 C 77.656 56.342,83.715 56.210,83.547 55.951 C 83.475 55.840,83.379 53.050,83.333 49.750 L 83.250 43.750 80.442 43.667 C 78.898 43.621,77.613 43.621,77.587 43.667 M99.875 43.615 C 100.035 43.657,100.298 43.657,100.458 43.615 C 100.619 43.573,100.487 43.539,100.167 43.539 C 99.846 43.539,99.715 43.573,99.875 43.615 M155.748 49.958 L 155.626 56.333 149.428 56.333 C 144.388 56.333,143.171 56.377,142.912 56.566 C 142.601 56.793,142.595 57.368,142.643 82.358 C 142.686 104.824,142.662 107.957,142.443 108.250 C 142.161 108.627,134.528 108.952,130.792 108.747 L 129.000 108.649 129.000 111.729 L 129.000 114.809 138.566 114.827 C 147.141 114.843,148.159 114.817,148.399 114.577 C 148.642 114.334,148.667 112.007,148.667 88.905 L 148.667 63.500 149.016 63.151 C 149.349 62.818,149.501 62.805,152.431 62.859 C 154.871 62.905,155.514 62.871,155.582 62.695 C 155.628 62.573,155.667 61.099,155.667 59.421 C 155.667 55.780,155.228 56.167,159.359 56.167 C 162.236 56.167,162.500 56.143,162.262 55.905 C 162.034 55.677,162.000 54.901,162.000 49.931 C 162.000 42.971,162.389 43.701,158.639 43.633 L 155.870 43.583 155.748 49.958 M247.058 47.500 C 247.058 48.279,247.087 48.598,247.122 48.208 C 247.157 47.819,247.157 47.181,247.122 46.792 C 247.087 46.402,247.058 46.721,247.058 47.500 M247.069 53.250 C 247.070 54.992,247.094 55.682,247.124 54.783 C 247.154 53.884,247.154 52.459,247.124 51.616 C 247.094 50.773,247.069 51.508,247.069 53.250 M168.778 50.778 C 168.717 50.839,168.667 52.114,168.667 53.611 L 168.667 56.333 166.958 56.345 C 166.019 56.352,164.669 56.347,163.958 56.335 C 162.779 56.314,162.667 56.341,162.667 56.639 C 162.667 56.919,162.744 56.949,163.208 56.853 C 164.086 56.673,168.294 56.894,168.533 57.133 C 168.944 57.544,168.956 94.711,168.544 95.122 C 168.215 95.451,156.576 95.883,155.833 95.593 C 155.512 95.468,155.559 101.253,155.882 101.642 C 156.154 101.969,174.483 101.794,174.694 101.462 C 174.768 101.345,174.829 92.684,174.831 82.214 L 174.833 63.178 175.181 62.993 C 175.411 62.869,176.532 62.825,178.502 62.862 L 181.475 62.917 181.571 62.438 C 181.795 61.317,181.674 57.084,181.407 56.704 L 181.148 56.333 175.167 56.333 C 171.878 56.333,169.145 56.267,169.095 56.186 C 169.045 56.105,168.990 54.830,168.972 53.353 C 168.955 51.875,168.929 50.667,168.915 50.667 C 168.900 50.667,168.839 50.717,168.778 50.778 M338.383 54.167 C 338.383 54.671,338.415 54.877,338.453 54.625 C 338.491 54.373,338.491 53.960,338.453 53.708 C 338.415 53.456,338.383 53.663,338.383 54.167 M90.046 55.625 C 89.802 56.269,89.578 56.324,87.016 56.371 C 85.350 56.401,84.500 56.478,84.500 56.597 C 84.500 56.719,85.321 56.773,87.042 56.764 C 89.241 56.752,89.619 56.789,89.848 57.036 C 90.421 57.656,90.608 94.474,90.042 95.139 C 89.759 95.471,89.566 95.483,83.583 95.532 L 77.417 95.583 77.466 98.500 C 77.508 101.013,77.554 101.447,77.799 101.638 C 78.070 101.850,96.246 101.810,96.458 101.597 C 96.498 101.558,96.542 92.892,96.557 82.340 C 96.580 65.490,96.614 63.135,96.833 62.991 C 96.977 62.897,98.391 62.838,100.167 62.852 L 103.250 62.876 103.341 60.146 C 103.430 57.479,103.349 56.719,102.948 56.464 C 102.839 56.395,100.067 56.337,96.787 56.336 L 90.825 56.333 90.725 55.833 C 90.615 55.285,90.220 55.164,90.046 55.625 M64.490 56.596 C 64.312 56.809,64.280 61.593,64.316 82.487 C 64.355 105.011,64.331 108.146,64.112 108.364 C 63.842 108.634,53.811 108.940,52.083 108.731 L 51.250 108.630 51.302 111.523 C 51.331 113.127,51.428 114.491,51.519 114.583 C 51.624 114.690,54.969 114.750,60.878 114.750 L 70.073 114.750 70.287 114.333 C 70.458 114.000,70.498 108.909,70.488 88.750 C 70.481 74.908,70.527 63.451,70.590 63.290 C 70.761 62.849,71.235 62.794,74.316 62.858 L 77.142 62.917 77.238 62.438 C 77.290 62.174,77.333 60.693,77.333 59.146 L 77.333 56.333 71.020 56.333 C 65.481 56.333,64.681 56.365,64.490 56.596 M247.074 61.583 C 247.074 64.242,247.097 65.306,247.125 63.948 C 247.153 62.590,247.153 60.415,247.125 59.115 C 247.096 57.814,247.073 58.925,247.074 61.583 M247.048 69.250 C 247.049 69.708,247.081 69.876,247.120 69.623 C 247.158 69.369,247.157 68.994,247.117 68.789 C 247.078 68.584,247.046 68.792,247.048 69.250 M247.050 76.000 C 247.050 76.504,247.081 76.710,247.119 76.458 C 247.158 76.206,247.158 75.794,247.119 75.542 C 247.081 75.290,247.050 75.496,247.050 76.000 M343.050 82.291 C 343.949 82.321,345.374 82.321,346.217 82.291 C 347.060 82.261,346.325 82.236,344.583 82.236 C 342.842 82.236,342.152 82.261,343.050 82.291 M351.025 82.461 C 351.310 82.498,351.501 82.648,351.564 82.884 C 351.825 83.857,351.671 108.139,351.402 108.407 C 351.163 108.647,349.254 108.668,331.527 108.628 L 311.917 108.583 311.969 111.580 C 312.006 113.656,312.083 114.616,312.219 114.703 C 312.576 114.930,357.239 114.861,357.467 114.633 C 357.704 114.396,357.757 83.068,357.521 82.695 C 357.413 82.524,356.600 82.465,353.982 82.438 C 352.113 82.418,350.782 82.429,351.025 82.461 M338.389 85.333 C 338.389 86.021,338.419 86.302,338.455 85.958 C 338.491 85.615,338.491 85.052,338.455 84.708 C 338.419 84.365,338.389 84.646,338.389 85.333 M32.333 95.694 C 32.333 95.755,33.565 95.830,35.070 95.861 C 36.575 95.891,37.869 95.979,37.945 96.055 C 38.153 96.264,38.121 108.279,37.912 108.488 C 37.802 108.598,35.380 108.676,31.138 108.705 L 24.535 108.750 24.608 109.250 C 24.754 110.257,24.796 110.952,24.815 112.621 L 24.833 114.325 25.325 114.579 C 25.929 114.891,43.271 114.968,43.844 114.661 C 44.297 114.419,44.355 96.545,43.905 96.095 C 43.695 95.886,43.203 95.830,41.446 95.815 C 40.238 95.804,37.694 95.748,35.791 95.690 C 33.889 95.631,32.333 95.633,32.333 95.694 M220.991 95.850 C 220.859 96.097,220.820 97.989,220.860 102.257 C 220.896 106.150,220.857 108.373,220.750 108.479 C 220.647 108.581,218.134 108.665,214.212 108.697 C 210.708 108.726,207.914 108.775,208.004 108.806 C 208.101 108.839,208.167 109.980,208.167 111.647 C 208.167 113.592,208.227 114.494,208.367 114.633 C 208.639 114.905,226.198 114.921,226.975 114.650 L 227.500 114.467 227.503 108.359 C 227.504 104.999,227.566 102.153,227.641 102.035 C 227.833 101.734,246.321 101.710,246.507 102.011 C 246.877 102.611,247.000 101.840,247.000 98.913 C 247.000 96.050,246.978 95.834,246.678 95.673 C 246.464 95.558,242.126 95.500,233.767 95.500 L 221.178 95.500 220.991 95.850 M280.333 95.654 C 280.333 95.775,281.195 95.833,282.968 95.833 C 284.980 95.833,285.679 95.889,285.926 96.070 C 286.411 96.424,286.523 107.736,286.048 108.303 C 285.755 108.652,285.644 108.659,279.583 108.704 L 273.417 108.750 273.473 111.666 C 273.511 113.646,273.591 114.621,273.723 114.705 C 274.020 114.894,291.571 114.861,292.072 114.671 L 292.500 114.508 292.500 105.598 C 292.500 100.574,292.433 96.512,292.347 96.285 L 292.193 95.881 288.722 95.768 C 286.812 95.705,284.144 95.614,282.792 95.564 C 281.089 95.502,280.333 95.529,280.333 95.654 M299.582 95.805 C 299.629 95.927,299.667 97.216,299.667 98.668 C 299.667 102.199,298.923 101.833,306.095 101.833 L 312.000 101.833 312.019 102.292 C 312.085 103.873,312.316 100.961,312.324 98.441 L 312.333 95.465 305.916 95.524 C 300.658 95.573,299.513 95.623,299.582 95.805 M246.064 111.833 C 246.064 112.979,246.091 113.448,246.123 112.875 C 246.156 112.302,246.156 111.365,246.123 110.792 C 246.091 110.219,246.064 110.688,246.064 111.833 " stroke="none" fill="#d88a14" fill-rule="evenodd"></path><path id="path3" d="M64.856 28.970 C 64.471 29.007,64.270 29.124,64.212 29.345 C 64.166 29.522,63.994 29.667,63.829 29.667 C 63.334 29.667,63.627 30.252,64.232 30.471 C 64.560 30.589,65.799 30.667,67.366 30.667 C 70.760 30.667,70.411 29.941,70.444 37.067 C 70.474 43.571,70.386 43.122,71.553 42.678 L 72.000 42.508 72.000 36.530 C 72.000 30.821,71.985 30.538,71.676 30.259 C 71.498 30.097,71.305 29.748,71.246 29.483 C 71.188 29.217,71.052 28.996,70.945 28.991 C 69.887 28.945,65.289 28.929,64.856 28.970 M145.457 28.955 C 143.555 29.004,143.308 29.045,143.125 29.338 C 142.992 29.552,142.737 29.667,142.396 29.667 C 142.021 29.667,141.849 29.757,141.789 29.984 C 141.671 30.435,142.241 30.533,145.493 30.614 C 147.097 30.654,148.325 30.757,148.451 30.862 C 148.620 31.002,148.667 32.315,148.667 36.927 C 148.667 43.279,148.634 43.065,149.546 42.779 C 150.389 42.516,150.395 42.458,150.297 36.006 L 150.215 30.563 149.816 30.133 C 149.596 29.897,149.304 29.551,149.167 29.364 C 148.859 28.946,148.271 28.881,145.457 28.955 M261.696 28.990 C 259.975 29.068,259.616 29.131,259.480 29.375 C 259.327 29.649,258.529 29.667,246.408 29.667 C 233.526 29.667,233.501 29.667,233.831 29.998 C 234.155 30.322,234.466 30.331,247.123 30.408 C 261.619 30.497,265.798 30.597,266.117 30.862 C 266.398 31.095,266.441 113.987,266.161 114.511 C 265.944 114.917,247.386 115.029,247.255 114.625 C 247.218 114.510,247.127 111.711,247.052 108.404 C 246.931 103.025,246.886 102.362,246.627 102.103 C 246.244 101.720,227.883 101.655,227.641 102.035 C 227.566 102.153,227.504 104.999,227.503 108.359 L 227.500 114.467 226.975 114.650 C 226.198 114.921,208.639 114.905,208.367 114.633 C 208.227 114.494,208.167 113.604,208.167 111.702 C 208.167 109.070,208.153 108.959,207.792 108.666 L 207.417 108.363 207.463 76.140 C 207.489 58.417,207.507 43.823,207.505 43.708 C 207.502 43.594,207.659 43.500,207.853 43.500 C 208.121 43.500,208.185 43.422,208.120 43.175 C 208.074 42.996,208.121 42.812,208.226 42.765 C 208.331 42.719,208.192 42.703,207.917 42.729 C 207.558 42.763,207.402 42.874,207.366 43.121 C 207.338 43.311,207.169 43.504,206.991 43.551 C 206.472 43.686,206.481 114.793,207.000 115.167 C 207.183 115.299,207.333 115.503,207.333 115.620 C 207.333 115.746,207.539 115.833,207.839 115.833 C 208.117 115.833,208.545 115.965,208.790 116.125 C 209.197 116.392,209.986 116.421,218.076 116.465 C 227.152 116.515,227.667 116.494,227.667 116.092 C 227.667 115.962,227.835 115.833,228.042 115.803 L 228.417 115.750 228.460 109.565 L 228.504 103.381 235.995 103.298 C 242.572 103.225,243.536 103.181,243.904 102.941 C 244.152 102.778,244.663 102.667,245.161 102.667 L 246.000 102.667 246.042 106.292 C 246.065 108.285,246.090 111.117,246.098 112.583 C 246.107 114.050,246.126 115.381,246.140 115.542 C 246.162 115.780,246.330 115.833,247.058 115.833 C 247.737 115.833,248.020 115.912,248.251 116.167 C 248.710 116.675,265.868 116.658,266.303 116.150 C 266.452 115.976,266.697 115.833,266.848 115.833 C 266.998 115.833,267.300 115.552,267.519 115.208 L 267.917 114.583 267.917 108.167 C 267.917 102.370,267.888 101.698,267.625 101.217 C 267.294 100.611,267.170 92.167,267.492 92.167 C 268.148 92.167,268.321 31.105,267.667 30.545 C 267.483 30.388,267.333 30.126,267.333 29.963 C 267.333 29.758,267.205 29.667,266.917 29.667 C 266.654 29.667,266.500 29.572,266.500 29.413 C 266.500 29.273,266.308 29.085,266.072 28.996 C 265.634 28.829,265.241 28.829,261.696 28.990 M38.548 29.333 C 38.492 29.549,38.321 29.667,38.064 29.667 C 37.519 29.667,37.537 30.221,38.091 30.473 C 38.353 30.593,39.474 30.667,41.019 30.667 C 42.426 30.667,43.663 30.742,43.844 30.839 C 44.161 31.009,44.167 31.507,44.167 59.667 C 44.167 87.826,44.161 88.325,43.844 88.494 C 43.300 88.785,26.012 88.726,25.311 88.430 L 24.750 88.194 24.747 85.555 C 24.744 82.826,24.648 82.280,24.187 82.369 C 23.779 82.448,23.687 89.121,24.093 89.277 C 24.239 89.333,24.426 89.556,24.509 89.773 L 24.658 90.167 34.761 90.167 C 44.561 90.167,44.867 90.157,44.948 89.849 C 44.993 89.674,45.174 89.493,45.349 89.448 C 45.660 89.366,45.667 88.742,45.667 59.516 L 45.667 29.667 45.269 29.667 C 45.012 29.667,44.841 29.549,44.785 29.333 C 44.722 29.094,44.558 29.000,44.202 29.000 C 43.846 29.000,43.681 29.094,43.618 29.333 C 43.562 29.548,43.391 29.667,43.139 29.667 C 42.923 29.667,42.653 29.517,42.539 29.333 C 42.351 29.033,42.150 29.000,40.483 29.000 C 38.776 29.000,38.629 29.025,38.548 29.333 M50.278 29.111 C 50.217 29.172,50.167 29.391,50.167 29.597 C 50.167 29.803,50.073 30.006,49.958 30.048 C 49.792 30.108,49.792 30.194,49.958 30.476 C 50.282 31.024,50.247 35.610,49.917 35.940 C 49.779 36.078,49.667 36.363,49.667 36.575 C 49.667 36.786,49.779 37.053,49.917 37.167 C 50.138 37.350,50.167 41.936,50.167 76.604 C 50.167 114.088,50.180 115.833,50.463 115.833 C 50.626 115.833,50.888 115.983,51.045 116.167 C 51.511 116.711,68.719 116.686,69.414 116.139 C 69.832 115.810,69.886 115.803,70.028 116.056 C 70.268 116.485,70.807 116.386,71.388 115.805 L 71.917 115.276 71.966 103.596 C 71.994 97.172,71.940 87.942,71.846 83.083 C 71.723 76.697,71.728 73.419,71.863 71.250 C 72.004 68.984,72.001 67.836,71.853 66.560 C 71.702 65.257,71.703 64.770,71.855 64.435 L 72.054 64.000 74.277 64.000 L 76.500 64.000 76.500 64.423 C 76.500 64.656,76.341 65.062,76.147 65.324 C 75.698 65.931,75.741 67.937,76.213 68.459 C 76.481 68.755,76.500 69.924,76.500 85.721 L 76.500 102.667 76.907 102.667 C 77.131 102.667,77.562 102.807,77.865 102.979 C 78.670 103.434,95.269 103.426,95.774 102.970 C 95.944 102.816,96.421 102.666,96.834 102.637 L 97.583 102.583 97.626 83.292 L 97.668 64.000 100.167 64.000 L 102.667 64.000 102.667 65.146 C 102.667 65.962,102.595 66.352,102.417 66.500 C 102.044 66.809,102.039 103.335,102.412 104.050 C 102.610 104.429,102.659 105.536,102.674 109.944 C 102.695 116.321,102.597 115.833,103.851 115.833 C 104.611 115.833,104.909 115.909,105.167 116.167 C 105.491 116.491,105.722 116.500,114.071 116.500 C 122.964 116.500,123.167 116.485,123.167 115.841 C 123.167 115.766,123.306 115.669,123.476 115.625 C 123.980 115.493,123.977 115.725,123.995 72.221 C 124.013 29.542,124.015 29.667,123.493 29.667 C 123.326 29.667,123.142 29.517,123.083 29.333 C 122.935 28.865,122.004 28.865,121.882 29.333 C 121.771 29.755,121.635 29.755,121.372 29.333 C 121.052 28.821,117.015 28.821,116.882 29.333 C 116.804 29.630,111.509 29.891,109.875 29.679 C 109.760 29.664,109.667 29.802,109.667 29.986 C 109.667 30.306,109.806 30.324,112.958 30.409 C 121.648 30.645,122.756 30.689,122.868 30.802 C 123.069 31.002,123.194 114.138,122.994 114.511 C 122.781 114.909,104.261 115.028,103.867 114.633 C 103.727 114.494,103.666 113.595,103.664 111.675 C 103.662 108.653,103.596 108.167,103.189 108.167 C 102.904 108.167,102.808 64.357,103.091 63.623 C 103.357 62.933,102.957 62.833,99.938 62.836 C 98.368 62.837,96.971 62.910,96.833 62.996 C 96.614 63.135,96.580 65.487,96.557 82.340 C 96.542 92.892,96.498 101.558,96.458 101.597 C 96.279 101.777,78.196 101.861,77.865 101.684 C 77.392 101.430,77.335 99.371,77.243 79.265 C 77.203 70.382,77.125 63.070,77.071 63.015 C 76.938 62.882,71.572 62.779,71.088 62.901 C 70.464 63.057,70.475 62.577,70.488 88.750 C 70.498 108.905,70.458 114.000,70.287 114.333 L 70.074 114.750 61.135 114.793 C 55.674 114.819,52.031 114.774,51.772 114.675 L 51.349 114.514 51.250 111.632 C 51.048 105.686,50.988 30.798,51.186 30.560 C 51.289 30.435,51.515 30.333,51.687 30.333 C 51.889 30.333,52.000 30.215,52.000 30.000 C 52.000 29.817,51.896 29.667,51.769 29.667 C 51.643 29.667,51.500 29.517,51.452 29.333 C 51.365 29.004,50.541 28.848,50.278 29.111 M195.708 29.172 C 195.502 29.255,195.333 29.400,195.333 29.495 C 195.333 29.608,194.102 29.667,191.750 29.667 C 188.314 29.667,188.167 29.680,188.167 29.990 C 188.167 30.297,188.342 30.319,191.458 30.404 C 196.908 30.553,200.571 30.742,200.792 30.885 C 200.957 30.992,201.000 39.552,201.000 72.764 L 201.000 114.508 200.572 114.671 C 199.909 114.923,182.454 114.888,182.200 114.633 C 182.061 114.495,182.000 113.628,182.000 111.811 C 182.000 109.009,181.893 108.431,181.346 108.288 C 181.036 108.207,181.000 108.271,181.000 108.899 C 181.000 109.285,180.910 109.690,180.800 109.800 C 180.644 109.956,180.644 110.044,180.800 110.200 C 181.107 110.507,181.066 113.124,180.750 113.440 C 180.612 113.578,180.500 113.912,180.500 114.184 C 180.500 114.469,180.606 114.718,180.750 114.773 C 180.887 114.826,181.001 115.067,181.001 115.309 C 181.003 115.765,181.733 116.298,181.926 115.984 C 182.080 115.736,182.504 115.812,182.961 116.171 C 183.606 116.679,200.677 116.657,201.186 116.147 C 201.359 115.975,201.650 115.833,201.833 115.833 C 202.166 115.833,202.167 115.722,202.167 77.305 C 202.167 41.715,202.188 38.753,202.442 38.472 C 202.995 37.861,202.888 32.909,202.308 32.258 C 202.094 32.019,202.139 31.371,202.375 31.286 C 202.542 31.225,202.542 31.140,202.375 30.857 C 202.260 30.663,202.167 30.346,202.167 30.151 C 202.167 29.222,197.392 28.499,195.708 29.172 M220.667 29.157 C 220.667 29.255,220.479 29.499,220.250 29.698 C 219.748 30.135,219.714 30.591,220.167 30.833 C 220.432 30.975,220.500 30.960,220.500 30.759 C 220.500 30.620,220.805 30.351,221.177 30.161 C 222.047 29.717,222.064 29.114,221.208 29.031 C 220.902 29.002,220.667 29.056,220.667 29.157 M355.892 29.166 C 355.695 29.245,355.485 29.390,355.424 29.488 C 355.347 29.613,350.821 29.667,340.425 29.667 C 324.900 29.667,325.333 29.650,325.333 30.262 C 325.333 30.299,331.240 30.363,338.458 30.405 C 349.209 30.467,357.396 30.637,357.625 30.803 C 357.796 30.927,357.639 62.461,357.467 62.633 C 357.210 62.890,339.481 62.924,339.004 62.669 C 338.559 62.431,338.514 61.883,338.418 55.596 C 338.370 52.486,338.288 49.899,338.235 49.846 C 338.008 49.619,319.234 49.634,319.073 49.862 C 318.976 49.999,318.949 58.748,319.000 72.750 L 319.083 95.417 328.500 95.457 C 334.267 95.481,338.014 95.435,338.167 95.337 C 338.382 95.201,338.417 94.302,338.417 88.931 C 338.417 84.525,338.472 82.628,338.604 82.496 C 339.019 82.081,357.254 82.274,357.522 82.696 C 357.758 83.068,357.703 114.397,357.467 114.633 C 357.255 114.845,312.812 114.943,312.264 114.732 C 312.038 114.645,312.000 114.224,311.997 111.774 C 311.995 108.733,311.910 108.281,311.431 108.759 C 311.129 109.061,311.081 115.305,311.379 115.601 C 311.449 115.672,311.955 115.762,312.504 115.801 C 313.161 115.849,313.500 115.945,313.500 116.086 C 313.500 116.489,314.117 116.500,335.863 116.500 C 357.558 116.500,357.698 116.498,357.785 116.167 C 357.841 115.951,358.012 115.833,358.269 115.833 C 358.488 115.833,358.667 115.737,358.667 115.620 C 358.667 115.503,358.817 115.299,359.000 115.167 C 359.329 114.929,359.333 114.735,359.333 98.894 C 359.333 82.838,359.320 82.333,358.910 82.333 C 358.789 82.333,358.666 82.165,358.637 81.958 L 358.583 81.583 348.250 81.540 C 338.683 81.500,337.901 81.518,337.708 81.780 C 337.550 81.995,337.500 83.586,337.500 88.365 L 337.500 94.667 328.950 94.667 C 322.522 94.667,320.350 94.617,320.200 94.467 C 320.046 94.313,320.000 89.219,320.000 72.550 L 320.000 50.833 320.814 50.833 C 321.262 50.833,321.843 50.945,322.106 51.082 C 322.760 51.423,325.312 51.428,325.760 51.089 C 326.029 50.885,327.036 50.843,331.790 50.839 L 337.496 50.833 337.540 57.284 L 337.583 63.735 338.000 63.851 C 338.513 63.994,358.037 64.039,358.403 63.899 C 358.548 63.843,358.667 63.658,358.667 63.488 C 358.667 63.318,358.817 63.098,359.000 63.000 C 359.330 62.823,359.333 62.651,359.333 46.750 C 359.333 30.849,359.330 30.677,359.000 30.500 C 358.817 30.402,358.667 30.174,358.667 29.994 C 358.667 29.764,358.553 29.667,358.287 29.667 C 358.078 29.667,357.779 29.517,357.622 29.333 C 357.319 28.980,356.540 28.904,355.892 29.166 M24.003 29.913 C 23.679 30.303,23.838 32.910,24.208 33.280 C 24.486 33.558,24.500 33.503,24.500 32.139 C 24.500 30.618,24.594 30.410,25.332 30.308 C 25.564 30.275,25.771 30.122,25.802 29.958 C 25.876 29.571,24.320 29.531,24.003 29.913 M102.737 30.041 C 102.672 30.247,102.498 30.503,102.351 30.611 C 102.116 30.782,102.076 31.514,102.027 36.568 L 101.970 42.329 101.619 42.141 C 101.077 41.851,98.073 42.078,97.521 42.452 C 97.086 42.746,97.093 42.749,99.000 42.884 C 100.944 43.022,102.000 42.945,102.000 42.663 C 102.000 42.569,102.166 42.571,102.422 42.669 C 103.148 42.945,103.214 42.431,103.095 37.417 C 103.036 34.942,102.943 32.481,102.888 31.949 C 102.796 31.058,102.817 30.973,103.144 30.888 C 103.340 30.836,103.500 30.733,103.500 30.658 C 103.500 30.584,103.650 30.475,103.833 30.417 C 104.017 30.358,104.167 30.166,104.167 29.989 C 104.167 29.478,102.901 29.525,102.737 30.041 M129.046 30.000 C 129.025 30.275,129.123 30.333,129.612 30.333 C 130.077 30.333,130.181 30.278,130.103 30.075 C 130.046 29.926,130.074 29.859,130.169 29.918 C 130.259 29.974,130.333 29.940,130.333 29.843 C 130.333 29.483,129.073 29.637,129.046 30.000 M181.000 30.167 C 181.000 30.946,182.070 30.784,182.380 29.958 C 182.474 29.708,182.385 29.667,181.745 29.667 C 181.028 29.667,181.000 29.686,181.000 30.167 M311.908 29.848 C 311.846 29.948,311.890 30.116,312.006 30.223 C 312.169 30.374,312.186 30.362,312.083 30.167 C 311.980 29.971,311.997 29.959,312.163 30.112 C 312.434 30.363,312.840 30.211,312.722 29.903 C 312.615 29.624,312.069 29.588,311.908 29.848 M220.200 40.867 C 219.923 41.144,219.950 41.612,220.250 41.727 C 220.443 41.801,220.500 41.690,220.500 41.245 C 220.500 40.601,220.485 40.582,220.200 40.867 M311.237 41.263 C 311.123 41.867,311.358 42.667,311.650 42.667 C 311.880 42.667,312.044 41.745,311.917 41.167 C 311.765 40.478,311.373 40.533,311.237 41.263 M77.639 42.112 C 77.308 42.200,77.115 42.615,77.341 42.754 C 77.428 42.809,77.500 42.997,77.500 43.173 C 77.500 43.609,77.825 43.662,80.750 43.710 L 83.250 43.750 83.333 49.805 C 83.427 56.590,83.370 56.309,84.657 56.354 C 86.577 56.422,89.580 56.277,89.747 56.107 C 90.361 55.485,90.568 50.930,90.005 50.421 C 89.455 49.924,89.483 43.883,90.035 43.803 C 90.301 43.765,90.435 43.597,90.515 43.205 C 90.620 42.691,90.601 42.664,90.188 42.719 C 89.600 42.798,89.522 43.309,89.510 47.125 C 89.501 49.696,89.462 50.167,89.253 50.167 C 88.864 50.167,88.781 50.872,88.908 53.098 L 89.026 55.167 87.116 55.167 C 85.346 55.167,85.199 55.142,85.118 54.833 C 85.070 54.650,84.912 54.500,84.766 54.500 C 84.548 54.500,84.562 54.438,84.844 54.156 C 85.327 53.673,85.282 46.371,84.792 45.623 C 84.585 45.308,84.500 44.843,84.500 44.026 C 84.500 42.632,84.141 42.205,83.314 42.618 C 82.857 42.846,82.000 42.762,82.000 42.490 C 82.000 42.116,78.704 41.830,77.639 42.112 M214.875 42.108 C 214.526 42.253,214.639 42.787,215.042 42.895 C 215.615 43.049,219.220 43.014,219.475 42.852 C 220.391 42.272,216.139 41.584,214.875 42.108 M156.200 42.617 C 155.422 43.490,155.639 43.579,158.660 43.629 C 162.385 43.692,162.000 42.965,162.000 49.936 C 162.000 57.051,161.586 56.333,165.689 56.333 L 168.649 56.333 168.700 49.660 C 168.742 44.094,168.789 42.963,168.988 42.840 C 169.192 42.715,168.557 42.696,167.958 42.810 C 167.890 42.823,167.833 43.043,167.833 43.300 C 167.833 43.557,167.743 43.857,167.633 43.967 C 167.478 44.122,167.478 44.211,167.633 44.367 C 167.937 44.670,167.873 45.761,167.517 46.345 C 167.169 46.918,166.998 53.651,167.319 54.151 C 167.792 54.890,167.221 55.167,165.223 55.167 L 163.333 55.167 163.333 50.417 C 163.333 45.889,163.318 45.651,163.000 45.333 C 162.607 44.941,162.556 44.078,162.917 43.940 C 163.233 43.818,163.244 43.186,162.932 43.066 C 162.802 43.016,162.651 42.794,162.595 42.571 C 162.461 42.035,161.518 41.980,161.382 42.500 C 161.265 42.945,159.571 42.994,159.254 42.561 C 158.879 42.048,156.670 42.089,156.200 42.617 M175.750 42.500 C 175.450 42.832,175.459 42.833,177.766 42.828 L 180.083 42.822 179.690 42.494 C 179.102 42.004,176.195 42.008,175.750 42.500 M298.917 42.794 C 298.520 43.086,298.631 43.667,299.084 43.667 C 299.461 43.667,299.515 43.604,299.469 43.221 C 299.414 42.754,299.198 42.588,298.917 42.794 M227.611 43.444 C 227.550 43.506,227.500 52.265,227.500 62.909 L 227.500 82.263 237.208 82.257 L 246.917 82.250 246.959 63.115 C 246.988 50.115,246.946 43.877,246.828 43.657 C 246.653 43.329,227.934 43.122,227.611 43.444 M246.000 62.149 C 246.000 77.602,245.966 80.144,245.761 80.223 C 245.630 80.273,245.499 80.562,245.470 80.865 L 245.417 81.417 237.292 81.460 C 229.251 81.503,229.167 81.500,229.167 81.168 C 229.167 80.944,229.056 80.833,228.833 80.833 C 228.502 80.833,228.500 80.722,228.500 62.500 L 228.500 44.167 237.250 44.167 L 246.000 44.167 246.000 62.149 M298.439 45.464 C 298.223 45.814,298.125 50.904,298.324 51.411 C 298.685 52.325,298.828 51.519,298.828 48.583 C 298.828 45.981,298.709 45.027,298.439 45.464 M149.000 63.167 C 148.670 63.497,148.667 63.722,148.667 88.905 C 148.667 112.015,148.642 114.334,148.399 114.577 C 148.159 114.817,147.144 114.844,138.607 114.830 L 129.083 114.816 129.124 115.450 C 129.196 116.562,128.737 116.516,139.382 116.464 C 148.951 116.417,149.021 116.414,149.301 116.066 C 149.456 115.873,149.702 115.674,149.847 115.623 C 150.116 115.530,150.333 96.003,150.333 71.875 L 150.333 64.000 152.499 64.000 L 154.665 64.000 154.708 83.292 L 154.750 102.583 155.108 102.634 C 155.305 102.662,155.504 102.831,155.551 103.009 C 155.686 103.525,174.550 103.516,174.872 103.000 C 174.987 102.817,175.250 102.667,175.457 102.667 C 175.832 102.667,175.833 102.659,175.833 99.971 C 175.833 97.639,175.873 97.233,176.125 96.954 C 176.398 96.652,176.418 95.655,176.440 81.441 C 176.454 73.086,176.472 65.744,176.482 65.125 L 176.500 64.000 178.717 64.000 C 180.990 64.000,181.333 63.910,181.333 63.318 C 181.333 63.163,181.215 62.990,181.070 62.934 C 180.617 62.761,175.499 62.822,175.156 63.006 C 174.840 63.175,174.833 63.566,174.831 82.214 C 174.829 92.684,174.768 101.345,174.694 101.462 C 174.449 101.848,156.148 101.962,155.831 101.580 C 155.619 101.326,155.578 98.671,155.524 82.160 L 155.462 63.034 154.960 62.934 C 153.586 62.659,149.342 62.825,149.000 63.167 M298.311 84.111 C 297.991 84.496,297.896 101.373,298.210 101.987 C 298.324 102.209,298.754 102.584,299.167 102.820 L 299.917 103.250 305.200 103.300 C 310.131 103.347,310.503 103.330,310.783 103.046 C 311.074 102.752,311.093 102.753,311.372 103.079 C 311.733 103.502,311.994 103.208,311.997 102.375 L 312.000 101.833 306.095 101.833 C 298.915 101.833,299.667 102.212,299.667 98.596 C 299.667 95.932,299.659 95.874,299.250 95.432 L 298.833 94.983 298.833 89.501 C 298.833 84.145,298.776 83.550,298.311 84.111 M40.220 94.135 C 40.021 94.163,39.768 94.295,39.658 94.427 C 39.490 94.629,38.286 94.667,31.980 94.667 L 24.500 94.667 24.500 95.125 L 24.500 95.583 28.625 95.583 C 36.229 95.583,43.651 95.841,43.924 96.115 C 44.357 96.547,44.280 114.428,43.844 114.661 C 43.271 114.968,25.929 114.891,25.325 114.579 L 24.833 114.325 24.822 112.704 C 24.801 109.898,24.631 108.667,24.265 108.667 C 23.880 108.667,23.833 109.075,23.833 112.412 L 23.833 115.631 24.250 115.735 C 24.479 115.793,24.667 115.943,24.667 116.068 C 24.667 116.478,25.380 116.507,34.942 116.489 C 44.547 116.471,44.833 116.459,44.833 116.084 C 44.833 115.966,45.021 115.822,45.250 115.765 L 45.667 115.660 45.667 105.588 L 45.667 95.515 45.242 95.091 C 44.926 94.775,44.645 94.667,44.136 94.667 C 43.707 94.667,43.382 94.569,43.261 94.404 C 43.077 94.151,41.243 93.989,40.220 94.135 M280.833 94.333 C 280.519 94.648,280.278 94.667,276.518 94.667 C 273.246 94.667,272.520 94.709,272.446 94.902 C 272.396 95.031,272.366 96.774,272.380 98.777 C 272.403 102.309,272.405 102.332,272.456 99.545 C 272.503 96.947,272.537 96.658,272.818 96.508 C 272.989 96.417,273.178 96.146,273.238 95.905 L 273.348 95.468 279.549 95.565 C 282.959 95.618,287.199 95.708,288.969 95.766 L 292.189 95.870 292.344 96.279 C 292.434 96.514,292.500 100.483,292.500 105.598 L 292.500 114.508 292.072 114.671 C 291.568 114.863,274.019 114.893,273.720 114.703 C 273.525 114.579,273.474 113.622,273.239 105.639 C 273.164 103.108,273.101 102.510,272.900 102.433 C 272.516 102.286,272.511 102.369,272.462 109.250 L 272.417 115.750 272.827 115.808 C 273.052 115.840,273.328 115.990,273.438 116.141 C 273.781 116.611,292.659 116.649,292.782 116.180 C 292.829 116.000,293.028 115.829,293.225 115.801 L 293.583 115.750 293.583 105.250 L 293.583 94.750 290.531 94.705 C 287.756 94.663,287.446 94.629,287.124 94.330 C 286.581 93.824,281.340 93.827,280.833 94.333 M24.090 96.434 C 23.799 96.725,23.874 97.247,24.268 97.661 C 24.468 97.871,24.500 97.784,24.500 97.036 C 24.500 96.079,24.478 96.046,24.090 96.434 " stroke="none" fill="#856c25" fill-rule="evenodd"></path><path id="path4" d="M25.778 30.026 C 25.728 30.217,25.547 30.333,25.299 30.333 C 24.648 30.333,24.500 30.638,24.500 31.978 C 24.500 33.446,24.638 33.507,24.695 32.063 L 24.734 31.060 25.365 30.863 C 26.197 30.604,37.762 30.584,37.922 30.842 C 37.981 30.938,38.030 32.288,38.030 33.841 C 38.030 35.394,38.098 36.708,38.182 36.759 C 38.271 36.814,38.333 35.549,38.333 33.688 C 38.333 30.669,38.318 30.518,38.000 30.417 C 37.817 30.358,37.667 30.168,37.667 29.992 C 37.667 29.504,25.906 29.537,25.778 30.026 M52.000 30.000 C 52.000 30.215,51.889 30.333,51.687 30.333 C 50.979 30.333,50.998 29.185,51.041 69.684 L 51.083 108.583 51.639 108.637 L 52.194 108.690 51.858 108.220 C 51.501 107.720,51.202 31.243,51.555 30.889 C 51.770 30.674,63.600 30.619,63.996 30.831 C 64.302 30.995,64.329 31.216,64.375 33.962 L 64.425 36.917 64.462 33.712 L 64.500 30.506 64.099 30.406 C 63.879 30.350,63.661 30.161,63.615 29.986 C 63.481 29.474,52.000 29.488,52.000 30.000 M104.167 29.989 C 104.167 30.166,104.017 30.358,103.833 30.417 C 103.650 30.475,103.500 30.584,103.500 30.658 C 103.500 30.733,103.346 30.835,103.157 30.884 C 102.834 30.969,102.820 31.056,102.918 32.362 C 103.133 35.213,103.098 42.464,102.868 42.696 C 102.715 42.851,102.069 42.913,100.618 42.913 C 99.499 42.913,98.536 42.980,98.477 43.061 C 98.419 43.142,98.045 43.085,97.644 42.932 C 97.041 42.704,96.376 42.664,93.752 42.703 L 90.586 42.750 90.500 43.250 C 90.439 43.608,90.308 43.765,90.041 43.803 C 89.423 43.891,89.459 49.913,90.080 50.497 C 90.343 50.744,90.467 51.013,90.422 51.234 C 90.248 52.094,90.150 54.697,90.295 54.607 C 90.384 54.552,90.418 54.689,90.373 54.922 C 90.327 55.161,90.373 55.333,90.481 55.333 C 90.614 55.333,90.667 53.759,90.669 49.792 C 90.671 46.744,90.727 44.163,90.795 44.057 C 90.921 43.859,95.235 43.681,100.447 43.659 C 102.744 43.650,103.018 43.617,103.416 43.304 L 103.854 42.960 103.816 37.008 C 103.796 33.734,103.839 30.959,103.913 30.840 C 104.042 30.631,115.857 30.731,116.208 30.944 C 116.277 30.986,116.333 32.215,116.333 33.677 C 116.333 35.337,116.396 36.333,116.500 36.333 C 116.805 36.333,116.715 30.905,116.405 30.595 C 116.185 30.375,115.626 30.333,112.905 30.333 C 109.778 30.333,109.667 30.322,109.667 30.000 C 109.667 29.680,109.556 29.667,106.917 29.667 C 104.310 29.667,104.167 29.683,104.167 29.989 M130.333 29.843 C 130.333 29.940,130.259 29.974,130.169 29.918 C 130.074 29.859,130.046 29.926,130.103 30.075 C 130.181 30.279,130.076 30.333,129.601 30.333 C 129.231 30.333,129.000 30.414,129.000 30.542 C 129.000 30.706,130.375 30.739,135.458 30.699 C 143.383 30.636,142.543 30.258,142.518 33.876 C 142.507 35.567,142.565 36.687,142.666 36.750 C 142.867 36.874,142.869 36.818,142.834 33.335 C 142.805 30.470,142.772 30.341,142.057 30.336 C 141.780 30.334,141.718 30.257,141.785 30.000 C 141.871 29.671,141.790 29.667,136.103 29.667 C 132.153 29.667,130.333 29.722,130.333 29.843 M182.381 29.955 C 182.227 30.368,181.817 30.655,181.375 30.661 L 181.000 30.667 181.000 36.833 L 181.000 43.000 180.458 43.008 C 178.469 43.035,176.800 42.971,176.083 42.840 C 174.978 42.637,169.319 42.629,169.000 42.830 C 168.792 42.961,168.741 43.650,168.696 46.952 C 168.659 49.720,168.695 50.865,168.818 50.745 C 168.925 50.640,169.010 49.290,169.038 47.245 L 169.083 43.917 175.167 43.772 C 180.900 43.636,181.278 43.608,181.730 43.287 L 182.210 42.947 182.088 37.008 C 181.978 31.659,181.993 31.047,182.235 30.846 C 182.566 30.571,194.275 30.752,194.625 31.038 C 194.775 31.160,194.833 31.922,194.833 33.770 C 194.833 35.368,194.896 36.333,195.000 36.333 C 195.216 36.333,195.220 31.009,195.004 30.667 C 194.874 30.461,194.254 30.408,191.506 30.365 C 188.452 30.318,188.167 30.289,188.167 30.021 C 188.167 29.570,182.550 29.506,182.381 29.955 M221.208 30.112 C 220.819 30.339,220.500 30.576,220.500 30.637 C 220.500 30.699,229.294 30.775,240.042 30.806 C 250.790 30.837,259.713 30.898,259.871 30.941 C 260.126 31.011,260.164 31.334,260.209 33.802 L 260.259 36.583 260.296 33.559 C 260.328 30.933,260.299 30.522,260.070 30.434 C 259.925 30.379,254.037 30.333,246.986 30.333 C 234.389 30.333,234.161 30.328,233.833 30.000 C 233.512 29.679,233.289 29.667,227.708 29.683 L 221.917 29.700 221.208 30.112 M312.722 29.903 C 312.826 30.174,312.395 30.402,312.244 30.157 C 312.102 29.928,311.833 30.132,311.834 30.468 C 311.834 30.731,313.163 30.754,331.459 30.806 C 342.252 30.837,351.213 30.898,351.371 30.941 C 351.626 31.011,351.664 31.334,351.709 33.802 L 351.759 36.583 351.796 33.559 C 351.828 30.933,351.799 30.522,351.570 30.434 C 351.425 30.379,345.457 30.333,338.308 30.333 C 325.387 30.333,325.311 30.331,325.417 30.000 C 325.521 29.671,325.447 29.667,319.077 29.667 C 313.583 29.667,312.644 29.702,312.722 29.903 M311.833 42.417 C 311.833 42.634,311.095 42.667,306.188 42.667 C 299.814 42.667,299.500 42.695,299.500 43.271 C 299.500 43.570,299.409 43.667,299.125 43.667 L 298.750 43.667 298.692 59.125 C 298.618 78.918,298.795 94.883,299.093 95.291 C 299.281 95.549,299.639 95.585,302.111 95.595 C 304.685 95.605,304.722 95.601,302.568 95.549 C 300.333 95.494,300.210 95.473,300.038 95.121 C 299.754 94.538,299.630 44.071,299.912 43.837 C 300.053 43.720,302.107 43.677,306.103 43.706 L 312.083 43.750 312.172 46.833 C 312.221 48.529,312.290 49.879,312.326 49.833 C 312.361 49.788,312.434 48.362,312.487 46.667 L 312.583 43.583 315.579 43.538 C 317.227 43.513,318.629 43.438,318.696 43.371 C 318.763 43.304,317.452 43.270,315.784 43.295 C 312.461 43.344,311.871 43.226,311.969 42.535 C 311.997 42.332,311.979 42.167,311.927 42.167 C 311.876 42.167,311.833 42.279,311.833 42.417 M71.083 42.876 C 70.871 43.005,69.631 43.114,67.667 43.176 L 64.583 43.273 67.182 43.303 C 68.926 43.323,70.049 43.415,70.599 43.582 C 71.167 43.754,72.188 43.830,73.950 43.832 C 75.515 43.833,76.647 43.907,76.909 44.027 L 77.333 44.220 77.369 46.985 L 77.405 49.750 77.494 46.667 C 77.543 44.971,77.541 43.396,77.488 43.167 L 77.393 42.750 74.405 42.711 C 72.290 42.684,71.319 42.732,71.083 42.876 M149.250 42.880 C 149.043 43.006,147.871 43.119,146.167 43.177 L 143.417 43.272 145.750 43.305 C 147.251 43.325,148.375 43.425,148.901 43.585 C 149.481 43.761,150.505 43.833,152.411 43.833 C 155.917 43.833,155.650 43.577,155.710 47.000 C 155.758 49.689,155.760 49.671,155.796 46.208 L 155.833 42.667 152.708 42.672 C 150.554 42.675,149.480 42.740,149.250 42.880 M208.226 42.766 C 208.121 42.812,208.074 42.996,208.120 43.175 C 208.185 43.422,208.121 43.500,207.853 43.500 C 207.659 43.500,207.502 43.594,207.505 43.708 C 207.508 43.823,207.483 58.279,207.449 75.833 C 207.382 110.322,207.346 108.559,208.132 108.636 C 208.706 108.692,208.752 108.637,208.512 108.189 C 208.232 107.666,208.235 43.997,208.515 43.822 C 208.718 43.694,216.825 43.571,219.521 43.655 C 220.399 43.682,220.458 43.659,220.458 43.296 L 220.458 42.909 217.771 42.883 C 216.293 42.869,213.583 42.818,211.750 42.770 C 209.917 42.722,208.331 42.721,208.226 42.766 M229.960 43.285 C 230.168 43.324,230.468 43.323,230.627 43.281 C 230.786 43.239,230.617 43.207,230.250 43.209 C 229.883 43.211,229.753 43.245,229.960 43.285 M237.214 43.290 C 237.745 43.323,238.570 43.323,239.048 43.289 C 239.526 43.256,239.092 43.229,238.083 43.229 C 237.075 43.229,236.684 43.257,237.214 43.290 M241.296 43.289 C 241.688 43.324,242.288 43.324,242.629 43.288 C 242.971 43.252,242.650 43.223,241.917 43.224 C 241.183 43.224,240.904 43.254,241.296 43.289 M244.708 43.282 C 244.869 43.323,245.131 43.323,245.292 43.282 C 245.452 43.240,245.321 43.205,245.000 43.205 C 244.679 43.205,244.548 43.240,244.708 43.282 M24.517 62.875 L 24.507 82.500 25.212 82.495 C 25.834 82.490,25.882 82.463,25.625 82.268 C 25.350 82.059,25.333 80.937,25.333 62.857 C 25.333 44.056,25.327 43.667,25.014 43.667 C 24.838 43.667,24.657 43.573,24.611 43.458 C 24.565 43.344,24.522 52.081,24.517 62.875 M129.079 56.583 C 129.079 63.733,129.100 66.634,129.125 63.029 C 129.150 59.425,129.150 53.575,129.125 50.029 C 129.100 46.484,129.079 49.433,129.079 56.583 M247.045 45.500 C 247.045 45.913,247.078 46.081,247.118 45.875 C 247.157 45.669,247.157 45.331,247.118 45.125 C 247.078 44.919,247.045 45.087,247.045 45.500 M338.483 51.042 C 338.405 52.710,338.440 55.166,338.542 55.166 C 338.610 55.167,338.667 54.154,338.667 52.917 C 338.667 51.033,338.542 49.764,338.483 51.042 M77.833 56.326 C 77.833 56.417,78.986 56.515,80.542 56.556 C 82.031 56.595,83.531 56.682,83.875 56.749 C 84.587 56.887,84.813 56.456,84.125 56.272 C 83.496 56.103,77.833 56.151,77.833 56.326 M156.000 56.326 C 156.000 56.418,157.203 56.512,158.875 56.549 C 160.456 56.584,161.956 56.671,162.208 56.742 C 162.605 56.855,162.667 56.825,162.667 56.519 C 162.667 56.172,162.617 56.167,159.333 56.167 C 157.326 56.167,156.000 56.230,156.000 56.326 M77.304 60.500 C 77.068 67.326,77.225 95.329,77.500 95.504 C 77.638 95.590,78.987 95.646,80.500 95.627 L 83.250 95.592 80.590 95.542 C 78.723 95.506,77.892 95.430,77.801 95.287 C 77.730 95.175,77.661 88.033,77.647 79.417 C 77.633 70.800,77.576 62.288,77.520 60.500 L 77.417 57.250 77.304 60.500 M155.625 61.319 C 155.495 65.540,155.447 95.500,155.570 95.500 C 155.608 95.500,155.770 95.550,155.930 95.612 C 156.154 95.697,156.186 95.669,156.069 95.487 C 155.981 95.349,155.882 87.284,155.833 76.250 C 155.774 62.693,155.714 58.416,155.625 61.319 M103.365 60.365 C 103.348 61.712,103.262 62.858,103.174 62.912 C 103.086 62.966,103.055 63.117,103.105 63.247 C 103.155 63.378,103.147 63.564,103.086 63.662 C 102.789 64.144,102.909 108.167,103.208 108.167 C 103.369 108.167,103.500 108.270,103.500 108.397 C 103.500 108.524,103.688 108.664,103.918 108.708 C 104.276 108.776,104.306 108.752,104.126 108.535 C 103.961 108.336,103.892 103.381,103.800 85.266 C 103.737 72.607,103.620 61.275,103.541 60.083 L 103.397 57.917 103.365 60.365 M181.494 62.716 C 181.375 63.247,181.215 63.720,181.138 63.767 C 181.062 63.815,181.000 73.818,181.000 85.998 L 181.000 108.142 181.526 108.404 C 182.268 108.775,182.558 108.753,182.339 108.344 C 182.223 108.127,182.166 100.744,182.164 85.636 C 182.162 67.319,182.121 63.114,181.936 62.500 L 181.711 61.750 181.494 62.716 M247.055 67.417 C 247.055 68.058,247.086 68.300,247.122 67.955 C 247.158 67.609,247.157 67.084,247.120 66.788 C 247.083 66.492,247.054 66.775,247.055 67.417 M247.064 73.167 C 247.064 74.313,247.091 74.781,247.123 74.208 C 247.156 73.635,247.156 72.698,247.123 72.125 C 247.091 71.552,247.064 72.021,247.064 73.167 M129.080 90.917 C 129.080 99.625,129.100 103.212,129.125 98.888 C 129.150 94.563,129.150 87.438,129.125 83.054 C 129.100 78.670,129.080 82.208,129.080 90.917 M247.048 77.583 C 247.049 78.042,247.081 78.209,247.120 77.956 C 247.158 77.703,247.157 77.328,247.117 77.123 C 247.078 76.918,247.046 77.125,247.048 77.583 M247.053 79.833 C 247.053 80.429,247.084 80.673,247.121 80.375 C 247.158 80.077,247.158 79.590,247.121 79.292 C 247.084 78.994,247.053 79.237,247.053 79.833 M246.987 81.583 L 246.917 82.250 236.873 82.260 C 230.845 82.266,226.767 82.333,226.673 82.427 C 226.576 82.524,230.385 82.570,236.800 82.548 L 247.083 82.512 247.136 82.087 C 247.165 81.853,247.160 81.494,247.124 81.289 C 247.081 81.047,247.033 81.149,246.987 81.583 M222.798 82.457 C 223.375 82.490,224.275 82.489,224.798 82.456 C 225.322 82.423,224.850 82.397,223.750 82.397 C 222.650 82.397,222.222 82.424,222.798 82.457 M338.612 82.458 C 338.497 82.653,338.442 87.067,338.510 90.750 C 338.565 93.798,338.578 93.603,338.660 88.484 C 338.731 84.085,338.799 82.825,338.979 82.609 C 339.175 82.373,339.170 82.333,338.947 82.333 C 338.804 82.333,338.653 82.390,338.612 82.458 M27.300 82.624 C 28.060 82.655,29.260 82.655,29.966 82.624 C 30.672 82.593,30.050 82.567,28.583 82.567 C 27.117 82.568,26.539 82.593,27.300 82.624 M338.425 94.750 C 338.346 95.025,338.200 95.305,338.099 95.372 C 337.858 95.534,319.280 95.537,319.075 95.375 C 318.988 95.306,317.454 95.291,315.667 95.340 L 312.417 95.431 315.187 95.465 C 317.147 95.490,318.165 95.573,318.667 95.750 C 319.265 95.961,320.854 96.000,328.848 96.000 C 339.489 96.000,338.772 96.089,338.627 94.784 L 338.568 94.250 338.425 94.750 M24.708 95.610 C 24.547 95.676,24.500 97.148,24.500 102.181 L 24.500 108.667 25.176 108.667 C 25.842 108.667,25.848 108.661,25.593 108.296 C 25.235 107.786,25.210 96.759,25.565 96.292 C 25.760 96.035,26.113 96.000,28.539 96.000 C 31.339 96.000,32.333 95.907,32.333 95.646 C 32.333 95.495,25.078 95.461,24.708 95.610 M157.716 95.624 C 158.431 95.655,159.556 95.655,160.216 95.624 C 160.876 95.592,160.292 95.566,158.917 95.567 C 157.542 95.567,157.001 95.593,157.716 95.624 M273.243 95.875 C 273.182 96.081,272.996 96.362,272.831 96.500 C 272.555 96.729,272.524 97.209,272.458 102.333 C 272.418 105.404,272.430 106.698,272.484 105.208 C 272.539 103.718,272.640 102.499,272.708 102.499 C 272.777 102.500,272.907 102.500,272.996 102.500 C 273.095 102.500,273.177 103.703,273.205 105.542 L 273.250 108.583 273.833 108.622 C 274.310 108.653,274.352 108.633,274.065 108.511 C 273.557 108.295,273.557 108.288,273.517 102.132 C 273.472 95.043,273.050 95.793,277.044 95.852 C 279.404 95.887,280.245 95.847,280.295 95.700 C 280.345 95.549,279.504 95.500,276.858 95.500 C 273.370 95.500,273.355 95.502,273.243 95.875 M246.993 99.417 C 246.951 101.067,246.940 103.823,246.968 105.542 L 247.020 108.667 247.468 108.662 C 247.853 108.657,247.875 108.633,247.625 108.487 C 247.365 108.335,247.331 107.984,247.313 105.283 C 247.302 103.615,247.243 100.938,247.181 99.333 L 247.070 96.417 246.993 99.417 M312.169 102.042 C 312.171 102.345,312.203 102.369,312.333 102.167 C 312.542 101.844,312.542 101.667,312.333 101.667 C 312.242 101.667,312.168 101.835,312.169 102.042 M129.167 108.500 C 129.167 108.592,129.448 108.666,129.792 108.664 C 130.257 108.662,130.353 108.620,130.167 108.500 C 129.838 108.288,129.167 108.288,129.167 108.500 M27.300 108.791 C 28.060 108.822,29.260 108.822,29.966 108.790 C 30.672 108.759,30.050 108.734,28.583 108.734 C 27.117 108.734,26.539 108.760,27.300 108.791 M53.375 108.790 C 53.994 108.822,55.006 108.822,55.625 108.790 C 56.244 108.758,55.737 108.732,54.500 108.732 C 53.262 108.732,52.756 108.758,53.375 108.790 M105.549 108.790 C 106.171 108.823,107.146 108.822,107.715 108.790 C 108.284 108.757,107.775 108.731,106.583 108.731 C 105.392 108.732,104.926 108.758,105.549 108.790 M131.534 108.790 C 132.149 108.822,133.199 108.822,133.868 108.791 C 134.536 108.759,134.033 108.733,132.750 108.732 C 131.467 108.732,130.920 108.758,131.534 108.790 M184.201 108.790 C 184.816 108.822,185.866 108.822,186.534 108.791 C 187.203 108.759,186.700 108.733,185.417 108.732 C 184.133 108.732,183.586 108.758,184.201 108.790 M209.868 108.790 C 210.482 108.822,211.532 108.822,212.201 108.791 C 212.870 108.759,212.367 108.733,211.083 108.732 C 209.800 108.732,209.253 108.758,209.868 108.790 M249.201 108.790 C 249.816 108.822,250.866 108.822,251.534 108.791 C 252.203 108.759,251.700 108.733,250.417 108.732 C 249.133 108.732,248.586 108.758,249.201 108.790 M275.534 108.790 C 276.149 108.822,277.199 108.822,277.868 108.791 C 278.536 108.759,278.033 108.733,276.750 108.732 C 275.467 108.732,274.920 108.758,275.534 108.790 " stroke="none" fill="#beb16f" fill-rule="evenodd"></path></g></svg>