<svg id="svg" version="1.1" xmlns="http://www.w3.org/2000/svg" xmlns:xlink="http://www.w3.org/1999/xlink" width="400" height="400" viewBox="0, 0, 400,400"><g id="svgg"><path id="path0" d="M24.922 43.748 C 24.965 43.977,24.460 44.166,23.800 44.168 C 23.140 44.170,22.454 44.407,22.275 44.695 C 22.097 44.982,21.795 45.121,21.605 45.003 C 21.154 44.724,19.092 45.637,18.675 46.300 C 18.497 46.584,18.177 46.710,17.966 46.579 C 17.754 46.448,17.630 46.579,17.690 46.870 C 17.751 47.162,17.611 47.367,17.379 47.326 C 16.799 47.225,13.564 49.831,13.879 50.146 C 14.019 50.286,13.846 50.400,13.494 50.400 C 12.924 50.400,11.090 52.456,11.312 52.845 C 11.360 52.930,11.324 52.954,11.230 52.897 C 10.947 52.725,9.632 54.928,9.829 55.246 C 9.929 55.409,9.649 55.657,9.206 55.798 C 8.763 55.939,8.400 56.232,8.400 56.451 C 8.400 56.669,8.598 56.725,8.840 56.575 C 9.145 56.387,9.139 56.567,8.820 57.163 C 8.567 57.636,8.227 57.940,8.065 57.840 C 7.902 57.740,7.730 58.140,7.681 58.729 C 7.633 59.318,7.415 59.860,7.197 59.933 C 6.978 60.007,6.800 60.581,6.800 61.210 C 6.800 61.838,6.619 62.464,6.399 62.601 C 5.845 62.943,5.849 287.600,6.403 287.600 C 6.621 287.600,6.800 288.140,6.800 288.800 C 6.800 289.607,6.999 290.000,7.408 290.000 C 7.846 290.000,7.962 290.294,7.825 291.050 C 7.690 291.793,7.893 292.328,8.517 292.880 C 9.003 293.310,9.175 293.547,8.900 293.407 C 8.116 293.008,8.315 293.799,9.200 294.600 C 9.640 294.998,10.000 295.539,10.000 295.801 C 10.000 296.368,11.589 298.285,11.625 297.761 C 11.639 297.563,11.820 297.822,12.026 298.338 C 12.233 298.853,12.760 299.369,13.197 299.483 C 13.634 299.597,13.892 299.850,13.772 300.045 C 13.651 300.240,13.844 300.400,14.200 300.400 C 14.556 300.400,14.736 300.580,14.600 300.800 C 14.464 301.020,14.621 301.200,14.949 301.200 C 15.278 301.200,15.660 301.560,15.800 302.000 C 15.940 302.440,16.387 302.800,16.794 302.800 C 18.017 302.800,18.762 303.233,18.540 303.813 C 18.385 304.215,18.607 304.310,19.374 304.170 C 20.078 304.043,20.495 304.183,20.656 304.602 C 20.808 304.997,21.169 305.137,21.647 304.985 C 22.175 304.817,22.400 304.942,22.400 305.402 C 22.400 305.836,22.703 306.033,23.300 305.984 C 24.927 305.853,26.050 305.995,25.857 306.308 C 25.607 306.713,21.413 306.686,94.943 306.747 C 156.057 306.797,159.271 306.835,158.986 307.500 C 158.822 307.885,158.602 308.695,158.498 309.300 C 158.394 309.905,158.129 310.400,157.909 310.400 C 157.689 310.400,157.586 310.921,157.679 311.559 C 157.809 312.444,157.714 312.665,157.274 312.496 C 156.822 312.323,156.734 312.582,156.863 313.692 C 156.985 314.730,156.891 315.056,156.514 314.912 C 156.163 314.777,156.000 315.109,156.000 315.957 C 156.000 316.641,155.799 317.200,155.553 317.200 C 155.293 317.200,155.186 317.616,155.298 318.200 C 155.426 318.871,155.310 319.200,154.945 319.200 C 154.606 319.200,154.400 319.654,154.400 320.400 C 154.400 321.060,154.220 321.600,154.000 321.600 C 153.780 321.600,153.600 322.140,153.600 322.800 C 153.600 323.460,153.420 324.000,153.200 324.000 C 152.980 324.000,152.800 324.270,152.800 324.600 C 152.800 324.930,152.987 325.200,153.216 325.200 C 153.444 325.200,153.263 325.595,152.813 326.078 C 152.364 326.561,152.091 327.255,152.207 327.621 C 152.323 327.987,152.144 328.515,151.809 328.793 C 151.474 329.071,151.200 329.633,151.200 330.043 C 151.200 330.750,150.607 330.793,139.500 330.894 C 130.398 330.976,127.822 331.111,127.900 331.500 C 127.990 331.952,127.503 332.174,126.700 332.047 C 126.535 332.021,126.445 332.217,126.500 332.482 C 126.555 332.747,126.330 332.980,126.000 333.000 C 125.670 333.020,125.445 333.253,125.500 333.518 C 125.555 333.783,125.420 334.000,125.200 334.000 C 124.947 334.000,124.800 336.867,124.800 341.800 L 124.800 349.600 95.619 349.600 C 65.797 349.600,65.209 349.627,63.674 351.092 C 63.385 351.368,63.279 351.820,63.439 352.097 C 63.598 352.374,63.581 352.466,63.400 352.303 C 62.132 351.154,61.502 358.049,62.703 359.926 C 63.625 361.368,64.256 362.000,64.771 362.000 C 65.007 362.000,65.200 362.179,65.200 362.398 C 65.200 362.661,112.859 362.796,205.800 362.797 C 299.127 362.798,346.400 362.665,346.400 362.399 C 346.400 362.180,346.951 362.000,347.624 362.000 C 348.337 362.000,348.744 361.833,348.600 361.600 C 348.464 361.380,348.644 361.200,349.000 361.200 C 349.356 361.200,349.545 361.035,349.420 360.832 C 349.295 360.630,349.477 360.180,349.825 359.832 C 350.228 359.429,350.284 359.200,349.980 359.200 C 349.634 359.200,349.621 359.057,349.933 358.681 C 350.432 358.080,350.433 352.733,349.934 353.041 C 349.750 353.154,349.600 352.998,349.600 352.693 C 349.600 351.989,347.831 350.303,347.470 350.663 C 347.322 350.812,347.200 350.633,347.200 350.267 C 347.200 349.900,347.009 349.600,346.776 349.600 C 346.543 349.600,346.464 349.779,346.599 349.999 C 346.763 350.264,346.494 350.264,345.797 349.999 C 345.129 349.745,332.118 349.600,309.974 349.600 L 275.200 349.600 275.200 341.776 C 275.200 336.663,275.061 334.038,274.800 334.200 C 274.580 334.336,274.400 334.138,274.400 333.759 C 274.400 332.910,272.056 330.757,271.216 330.835 C 265.569 331.357,248.779 330.708,248.374 329.952 C 248.006 329.265,248.023 329.165,248.460 329.429 C 248.876 329.679,248.902 329.621,248.572 329.177 C 248.174 328.640,247.113 325.489,247.035 324.610 C 247.016 324.395,246.791 323.993,246.536 323.717 C 246.280 323.440,246.174 322.823,246.299 322.344 C 246.426 321.859,246.363 321.576,246.156 321.703 C 245.953 321.829,245.582 321.497,245.331 320.966 C 245.065 320.403,245.028 319.906,245.241 319.775 C 245.442 319.651,245.342 319.285,245.020 318.963 C 244.698 318.641,244.536 318.112,244.660 317.788 C 244.784 317.465,244.686 317.200,244.443 317.200 C 244.199 317.200,244.000 316.660,244.000 316.000 C 244.000 315.340,243.820 314.800,243.600 314.800 C 243.380 314.800,243.200 314.260,243.200 313.600 C 243.200 312.940,243.020 312.400,242.800 312.400 C 242.580 312.400,242.400 311.937,242.400 311.371 C 242.400 310.806,242.128 310.071,241.796 309.739 C 241.464 309.407,241.295 308.970,241.420 308.768 C 241.545 308.565,241.507 308.175,241.335 307.900 C 241.163 307.625,240.995 307.220,240.961 307.000 C 240.921 306.734,263.013 306.628,306.705 306.685 C 352.487 306.743,372.752 306.640,373.304 306.345 C 373.910 306.020,374.025 306.036,373.793 306.412 C 373.594 306.733,373.682 306.833,374.044 306.702 C 374.350 306.591,374.566 306.330,374.524 306.123 C 374.483 305.915,374.949 305.819,375.560 305.909 C 376.191 306.001,376.918 305.825,377.244 305.499 C 377.559 305.184,378.139 304.973,378.533 305.031 C 378.927 305.089,379.338 304.907,379.446 304.626 C 379.553 304.345,380.037 304.158,380.521 304.211 C 381.355 304.302,382.423 303.568,382.412 302.912 C 382.409 302.745,382.630 302.596,382.903 302.581 C 383.882 302.528,384.800 301.903,384.800 301.291 C 384.800 300.947,384.908 300.775,385.040 300.906 C 385.394 301.260,387.658 298.818,387.386 298.377 C 387.258 298.170,387.523 298.000,387.976 298.000 C 388.442 298.000,388.800 297.739,388.800 297.400 C 388.800 297.070,389.010 296.800,389.267 296.800 C 389.523 296.800,389.633 296.700,389.510 296.577 C 389.388 296.454,389.808 295.784,390.444 295.088 C 391.137 294.328,391.600 293.377,391.600 292.711 C 391.600 292.100,391.780 291.600,392.000 291.600 C 392.220 291.600,392.400 291.240,392.400 290.800 C 392.400 290.360,392.580 290.000,392.800 290.000 C 393.020 290.000,393.200 289.449,393.200 288.776 C 393.200 288.071,393.368 287.656,393.596 287.797 C 393.857 287.959,393.993 249.556,393.996 175.221 C 393.998 100.290,393.865 62.400,393.600 62.400 C 393.380 62.400,393.200 61.849,393.200 61.176 C 393.200 60.463,393.033 60.056,392.800 60.200 C 392.573 60.340,392.400 60.004,392.400 59.424 C 392.400 58.861,392.220 58.400,392.000 58.400 C 391.780 58.400,391.600 57.950,391.600 57.400 C 391.600 56.850,391.426 56.400,391.213 56.400 C 390.999 56.400,390.932 56.123,391.062 55.784 C 391.212 55.391,391.098 55.210,390.749 55.284 C 390.412 55.355,390.211 55.068,390.227 54.540 C 390.247 53.939,390.076 53.749,389.662 53.908 C 389.285 54.053,389.171 53.970,389.350 53.681 C 389.506 53.428,389.090 52.659,388.416 51.953 C 387.747 51.254,387.200 50.534,387.200 50.353 C 387.200 50.173,386.932 50.128,386.603 50.254 C 386.245 50.392,385.893 50.187,385.723 49.743 C 385.265 48.550,383.614 47.109,382.982 47.351 C 382.639 47.483,382.400 47.339,382.400 47.000 C 382.400 46.653,382.162 46.517,381.800 46.655 C 381.415 46.803,381.200 46.647,381.200 46.219 C 381.200 45.853,381.019 45.665,380.797 45.802 C 380.575 45.939,380.099 45.757,379.739 45.397 C 379.330 44.988,378.741 44.829,378.167 44.973 C 377.659 45.100,377.121 44.996,376.963 44.740 C 376.785 44.452,376.852 44.385,377.138 44.562 C 377.392 44.719,377.600 44.659,377.600 44.428 C 377.600 44.198,377.285 44.036,376.900 44.068 C 375.533 44.183,374.756 43.995,374.995 43.607 C 375.355 43.025,27.409 43.060,26.321 43.642 C 25.871 43.883,25.607 43.912,25.734 43.707 C 25.861 43.501,25.713 43.333,25.405 43.333 C 25.097 43.333,24.879 43.520,24.922 43.748 M369.224 57.213 C 369.784 57.513,370.000 57.499,370.000 57.165 C 370.000 56.818,370.137 56.816,370.549 57.158 C 370.851 57.409,371.368 57.510,371.698 57.384 C 372.027 57.257,372.569 57.426,372.901 57.758 C 373.233 58.090,373.616 58.250,373.752 58.114 C 373.889 57.978,374.000 58.077,374.000 58.333 C 374.000 58.590,374.294 58.800,374.653 58.800 C 375.012 58.800,375.597 59.127,375.953 59.528 C 376.309 59.928,376.917 60.373,377.304 60.517 C 377.691 60.660,377.968 60.918,377.919 61.089 C 377.778 61.583,378.839 63.301,379.759 64.070 C 380.311 64.532,380.411 64.778,380.051 64.787 C 379.649 64.796,379.616 64.938,379.930 65.315 C 380.165 65.598,380.268 66.393,380.160 67.080 C 380.052 67.767,380.151 68.446,380.382 68.589 C 380.671 68.767,380.800 97.714,380.800 162.424 L 380.800 256.000 350.000 256.000 L 319.200 256.000 319.153 220.300 C 319.127 200.665,319.134 184.443,319.169 184.251 C 319.204 184.059,318.976 184.000,318.662 184.121 C 318.255 184.277,318.148 184.119,318.291 183.575 C 318.412 183.111,318.247 182.716,317.871 182.572 C 317.530 182.441,317.339 182.102,317.448 181.819 C 317.557 181.535,317.353 181.191,316.995 181.054 C 316.557 180.885,316.428 180.542,316.599 180.002 C 316.746 179.541,316.672 179.200,316.427 179.200 C 316.192 179.200,316.000 178.919,316.000 178.576 C 316.000 178.233,315.839 178.052,315.642 178.174 C 315.171 178.465,314.762 177.366,315.055 176.600 C 315.182 176.270,315.086 176.000,314.843 176.000 C 314.599 176.000,314.400 175.807,314.400 175.571 C 314.400 175.336,314.128 174.871,313.796 174.539 C 313.464 174.207,313.283 173.789,313.394 173.610 C 313.505 173.430,313.308 173.173,312.956 173.039 C 312.592 172.899,312.415 172.537,312.546 172.197 C 312.672 171.868,312.646 171.599,312.487 171.597 C 312.183 171.594,311.200 169.681,311.200 169.092 C 311.200 168.900,310.928 168.471,310.596 168.139 C 310.264 167.807,310.095 167.370,310.220 167.168 C 310.345 166.965,310.257 166.800,310.024 166.800 C 309.791 166.800,309.600 166.530,309.600 166.200 C 309.600 165.870,309.443 165.600,309.251 165.600 C 309.059 165.600,308.787 164.880,308.646 164.000 C 308.506 163.120,308.238 162.400,308.052 162.400 C 307.866 162.400,307.287 161.410,306.764 160.200 C 306.242 158.990,305.676 158.000,305.507 158.000 C 305.338 158.000,305.200 157.736,305.200 157.414 C 305.200 157.092,304.757 156.035,304.216 155.065 C 303.674 154.095,303.359 153.160,303.516 152.987 C 303.672 152.814,303.575 152.801,303.300 152.959 C 302.817 153.237,302.629 152.789,302.770 151.700 C 302.806 151.425,302.563 151.200,302.230 151.200 C 301.858 151.200,301.713 150.970,301.854 150.603 C 301.985 150.263,301.808 149.901,301.444 149.761 C 301.092 149.627,300.919 149.330,301.060 149.103 C 301.200 148.876,300.884 148.359,300.358 147.954 C 299.831 147.549,299.627 147.214,299.903 147.209 C 300.301 147.202,300.305 147.037,299.923 146.426 C 299.657 146.000,299.268 145.758,299.058 145.888 C 298.848 146.017,298.790 145.940,298.929 145.715 C 299.613 144.608,296.514 143.317,293.400 143.413 C 290.323 143.507,290.299 143.513,290.642 144.068 C 290.826 144.366,290.726 144.457,290.364 144.318 C 290.041 144.194,289.221 144.683,288.464 145.450 C 287.732 146.193,287.359 146.800,287.636 146.800 C 287.935 146.800,287.787 147.176,287.270 147.726 C 286.791 148.235,286.400 148.865,286.400 149.126 C 286.400 149.387,286.220 149.600,286.000 149.600 C 285.780 149.600,285.600 149.960,285.600 150.400 C 285.600 150.840,285.409 151.200,285.176 151.200 C 284.943 151.200,284.855 151.365,284.980 151.568 C 285.105 151.770,284.936 152.207,284.604 152.539 C 284.272 152.871,284.000 153.426,284.000 153.771 C 284.000 154.117,283.820 154.400,283.600 154.400 C 283.380 154.400,283.200 154.930,283.200 155.577 C 283.200 156.233,282.890 156.986,282.500 157.277 C 282.115 157.565,281.742 158.070,281.670 158.400 C 281.599 158.730,281.374 159.060,281.170 159.133 C 280.967 159.207,280.797 159.747,280.794 160.333 C 280.789 161.187,280.706 161.280,280.376 160.800 C 280.051 160.326,279.987 160.414,280.074 161.218 C 280.140 161.833,279.835 162.610,279.306 163.179 C 278.823 163.697,278.513 164.259,278.618 164.428 C 278.722 164.597,278.523 165.020,278.175 165.368 C 277.827 165.715,277.652 166.000,277.786 166.000 C 277.919 166.000,277.804 166.405,277.529 166.900 C 277.255 167.395,277.068 167.935,277.115 168.100 C 277.162 168.265,276.936 168.400,276.613 168.400 C 276.286 168.400,276.116 168.638,276.231 168.936 C 276.344 169.231,276.160 169.701,275.823 169.981 C 275.485 170.261,275.300 170.639,275.412 170.820 C 275.524 171.000,275.252 171.795,274.808 172.586 C 274.363 173.377,274.000 174.336,274.000 174.716 C 274.000 175.096,273.656 175.622,273.236 175.885 C 272.816 176.147,272.352 176.909,272.205 177.579 C 272.058 178.248,271.637 178.971,271.269 179.185 C 270.723 179.504,270.710 179.579,271.200 179.594 C 271.617 179.607,271.657 179.703,271.332 179.910 C 271.075 180.074,270.805 180.476,270.732 180.804 C 270.659 181.132,270.257 181.715,269.839 182.100 C 269.345 182.554,269.261 182.800,269.600 182.800 C 269.902 182.800,269.745 183.127,269.228 183.575 C 268.646 184.081,268.361 184.742,268.410 185.475 C 268.451 186.094,268.466 202.215,268.442 221.300 L 268.400 256.000 265.600 256.000 L 262.800 256.000 262.800 176.200 C 262.800 127.111,262.656 96.400,262.427 96.400 C 262.222 96.400,261.952 96.079,261.827 95.687 C 261.570 94.876,259.445 93.488,259.056 93.877 C 258.915 94.018,258.800 93.926,258.800 93.672 C 258.800 93.328,250.959 93.235,227.700 93.306 C 202.138 93.383,196.620 93.494,196.710 93.930 C 196.770 94.221,196.640 94.348,196.420 94.212 C 195.581 93.694,193.330 96.640,193.322 98.268 C 193.318 99.110,193.288 134.945,193.257 177.900 L 193.200 256.000 190.600 256.000 L 188.000 256.000 187.954 196.100 C 187.929 163.155,187.938 135.894,187.976 135.519 C 188.013 135.145,187.763 134.411,187.420 133.887 C 187.078 133.364,186.918 132.816,187.065 132.668 C 187.213 132.521,187.123 132.400,186.867 132.400 C 186.610 132.400,186.400 132.029,186.400 131.576 C 186.400 131.123,186.229 130.858,186.020 130.988 C 185.811 131.117,185.433 130.836,185.180 130.363 C 184.808 129.668,184.823 129.557,185.260 129.781 C 185.557 129.934,185.451 129.776,185.024 129.430 C 184.596 129.083,184.407 128.800,184.604 128.800 C 184.800 128.800,184.744 128.584,184.480 128.320 C 184.216 128.056,184.000 127.535,184.000 127.163 C 184.000 126.790,183.733 126.383,183.407 126.258 C 183.069 126.128,182.915 125.765,183.050 125.415 C 183.179 125.077,183.086 124.800,182.843 124.800 C 182.599 124.800,182.396 124.575,182.391 124.300 C 182.386 124.025,182.030 123.350,181.600 122.800 C 181.170 122.250,180.814 121.485,180.809 121.100 C 180.804 120.715,180.620 120.400,180.400 120.400 C 180.180 120.400,180.000 120.135,180.000 119.812 C 180.000 119.489,179.640 118.583,179.200 117.800 C 178.760 117.017,178.400 116.188,178.400 115.959 C 178.400 115.730,178.128 115.271,177.796 114.939 C 177.464 114.607,177.295 114.170,177.420 113.968 C 177.545 113.765,177.457 113.600,177.224 113.600 C 176.991 113.600,176.800 113.240,176.800 112.800 C 176.800 112.360,176.620 112.000,176.400 112.000 C 176.180 112.000,176.000 111.640,176.000 111.200 C 176.000 110.760,175.820 110.400,175.600 110.400 C 175.380 110.400,175.200 110.187,175.200 109.926 C 175.200 109.088,173.539 105.991,173.201 106.199 C 173.022 106.310,172.968 106.043,173.083 105.605 C 173.215 105.101,173.055 104.719,172.648 104.563 C 172.294 104.427,172.105 104.154,172.228 103.955 C 172.351 103.756,172.168 103.311,171.822 102.965 C 171.476 102.619,171.296 102.169,171.422 101.965 C 171.548 101.761,171.368 101.311,171.022 100.965 C 170.676 100.619,170.495 100.170,170.620 99.968 C 170.745 99.765,170.572 99.600,170.236 99.600 C 169.852 99.600,169.712 99.373,169.860 98.988 C 169.996 98.635,169.737 98.065,169.247 97.641 C 168.781 97.237,168.400 96.599,168.400 96.225 C 168.400 95.110,165.952 93.335,165.122 93.848 C 164.877 94.000,164.777 93.960,164.901 93.760 C 165.026 93.557,163.926 93.387,162.404 93.373 C 160.313 93.355,159.729 93.471,159.884 93.874 C 159.995 94.164,159.886 94.400,159.643 94.400 C 159.399 94.400,159.200 94.194,159.200 93.942 C 159.200 93.689,158.769 93.948,158.242 94.517 C 157.715 95.085,157.146 95.427,156.978 95.275 C 156.809 95.124,156.792 95.210,156.940 95.468 C 157.087 95.725,156.981 96.182,156.704 96.483 C 155.820 97.445,155.200 98.762,155.194 99.695 C 155.189 100.426,155.113 100.485,154.800 100.000 C 154.469 99.488,154.411 99.504,154.406 100.105 C 154.400 100.811,154.278 101.116,153.068 103.444 C 152.712 104.128,152.536 104.803,152.677 104.944 C 152.818 105.085,152.693 105.200,152.400 105.200 C 152.107 105.200,151.984 105.317,152.127 105.460 C 152.270 105.604,152.075 105.977,151.694 106.290 C 151.312 106.603,151.223 106.747,151.495 106.609 C 151.822 106.444,151.909 106.571,151.753 106.979 C 151.622 107.321,151.264 107.600,150.957 107.600 C 150.630 107.600,150.400 108.012,150.400 108.600 C 150.400 109.150,150.026 109.974,149.569 110.431 C 149.067 110.933,148.838 111.522,148.990 111.919 C 149.129 112.280,149.113 112.447,148.956 112.289 C 148.534 111.867,147.113 114.397,147.381 115.094 C 147.538 115.505,147.422 115.617,147.005 115.457 C 146.591 115.299,146.400 115.474,146.400 116.013 C 146.400 116.446,146.220 116.800,146.000 116.800 C 145.780 116.800,145.600 117.160,145.600 117.600 C 145.600 118.040,145.390 118.400,145.133 118.400 C 144.877 118.400,144.779 118.512,144.916 118.650 C 145.053 118.787,144.813 119.590,144.383 120.434 C 143.952 121.278,143.600 122.230,143.600 122.551 C 143.600 122.871,143.412 123.196,143.182 123.273 C 142.952 123.349,142.735 123.802,142.699 124.278 C 142.663 124.755,142.491 125.056,142.317 124.949 C 142.043 124.779,141.812 126.012,141.953 126.900 C 141.979 127.065,141.820 127.200,141.600 127.200 C 141.380 127.200,141.200 127.481,141.200 127.824 C 141.200 128.167,141.020 128.336,140.800 128.200 C 140.580 128.064,140.400 128.289,140.400 128.701 C 140.400 129.112,140.085 129.798,139.700 130.225 C 139.315 130.651,138.982 131.225,138.960 131.500 C 138.867 132.662,138.779 132.834,138.400 132.600 C 138.172 132.459,138.000 132.804,138.000 133.400 C 138.000 134.040,137.834 134.345,137.573 134.183 C 137.339 134.038,137.180 134.163,137.221 134.460 C 137.261 134.757,137.273 162.225,137.247 195.500 L 137.200 256.000 130.200 256.000 C 126.350 256.000,123.189 255.865,123.175 255.700 C 122.968 253.225,123.083 249.327,123.358 249.497 C 123.555 249.619,123.625 249.242,123.513 248.659 C 123.393 248.029,123.491 247.598,123.755 247.594 C 124.000 247.591,123.930 247.413,123.600 247.200 C 123.200 246.942,123.167 246.810,123.500 246.806 C 123.775 246.803,124.000 246.609,124.000 246.376 C 124.000 246.143,123.802 246.075,123.560 246.225 C 123.245 246.419,123.238 246.277,123.534 245.724 C 123.767 245.288,123.939 242.429,123.928 239.175 C 123.908 233.239,124.130 229.737,124.552 229.314 C 124.685 229.182,124.593 228.832,124.348 228.537 C 124.077 228.211,124.059 228.000,124.301 228.000 C 124.520 228.000,124.700 227.553,124.700 227.007 C 124.700 226.379,124.535 226.113,124.250 226.284 C 123.954 226.461,123.963 226.352,124.277 225.964 C 124.606 225.557,124.734 223.461,124.692 219.186 C 124.658 215.782,124.782 212.753,124.967 212.454 C 125.176 212.115,125.095 211.777,124.751 211.555 C 124.361 211.304,124.330 211.112,124.647 210.900 C 125.189 210.536,125.389 188.800,124.850 188.800 C 124.659 188.800,124.556 187.990,124.623 187.000 C 124.690 185.991,124.568 185.200,124.345 185.200 C 124.125 185.200,124.056 184.855,124.189 184.434 C 124.323 184.012,124.261 183.561,124.052 183.432 C 123.842 183.302,123.762 182.271,123.874 181.140 C 124.049 179.373,123.988 179.119,123.439 179.330 C 123.088 179.465,122.800 179.401,122.800 179.187 C 122.800 178.974,122.986 178.800,123.214 178.800 C 123.473 178.800,123.499 178.538,123.283 178.100 C 123.093 177.715,123.001 176.712,123.078 175.871 C 123.167 174.900,123.069 174.434,122.809 174.594 C 122.565 174.745,122.380 174.314,122.349 173.524 C 122.260 171.171,122.188 170.616,121.852 169.660 C 121.670 169.143,121.477 168.333,121.423 167.860 C 121.369 167.387,121.188 166.572,121.020 166.050 C 120.811 165.400,120.853 165.185,121.153 165.371 C 121.427 165.540,121.502 165.410,121.354 165.023 C 121.223 164.683,120.972 164.494,120.796 164.602 C 120.620 164.711,120.572 164.082,120.690 163.204 C 120.830 162.159,120.713 161.372,120.352 160.927 C 119.875 160.339,119.882 160.292,120.400 160.582 C 120.888 160.855,120.907 160.817,120.500 160.379 C 119.682 159.497,119.919 158.642,121.387 157.181 C 122.150 156.421,122.780 155.564,122.787 155.276 C 122.794 154.988,122.966 154.855,123.168 154.980 C 123.660 155.284,125.873 152.559,126.203 151.245 C 126.347 150.670,126.818 149.871,127.249 149.469 C 127.680 149.068,128.137 148.213,128.266 147.569 C 128.395 146.926,128.657 146.400,128.850 146.400 C 129.042 146.400,129.200 145.939,129.200 145.376 C 129.200 144.664,129.352 144.444,129.700 144.653 C 129.991 144.828,129.950 144.639,129.600 144.200 C 129.250 143.761,129.209 143.572,129.500 143.747 C 129.835 143.948,130.000 143.776,130.000 143.224 C 130.000 142.771,130.180 142.400,130.400 142.400 C 130.620 142.400,130.800 141.579,130.800 140.576 C 130.800 139.528,130.961 138.852,131.180 138.987 C 131.643 139.274,131.496 126.755,131.016 125.000 C 130.835 124.340,130.674 123.498,130.658 123.129 C 130.642 122.761,130.487 122.546,130.314 122.653 C 130.141 122.760,130.000 122.482,130.000 122.036 C 130.000 121.589,129.640 120.583,129.200 119.800 C 128.760 119.017,128.400 118.040,128.400 117.631 C 128.400 117.221,128.128 116.781,127.796 116.654 C 127.464 116.527,127.232 116.282,127.281 116.111 C 127.330 115.940,127.158 115.419,126.899 114.953 C 126.640 114.487,126.542 113.992,126.681 113.853 C 126.820 113.714,126.723 113.600,126.467 113.600 C 126.210 113.600,126.000 113.330,126.000 113.000 C 126.000 112.670,125.820 112.400,125.600 112.400 C 125.380 112.400,125.200 112.149,125.200 111.842 C 125.200 111.536,124.698 110.747,124.084 110.090 C 123.470 109.433,123.035 108.694,123.118 108.447 C 123.203 108.190,123.010 108.098,122.663 108.231 C 122.209 108.406,122.112 108.256,122.276 107.632 C 122.430 107.043,122.305 106.800,121.847 106.800 C 121.491 106.800,121.200 106.627,121.200 106.416 C 121.200 106.204,120.806 105.664,120.325 105.216 C 119.843 104.767,119.601 104.400,119.787 104.400 C 119.972 104.400,119.802 104.044,119.409 103.609 C 119.015 103.175,118.509 102.932,118.285 103.071 C 118.060 103.210,117.988 103.143,118.124 102.922 C 118.354 102.551,117.262 101.064,116.522 100.741 C 116.345 100.663,115.901 100.060,115.536 99.400 C 115.171 98.740,114.497 98.004,114.039 97.764 C 113.580 97.525,113.324 97.210,113.469 97.064 C 113.614 96.919,113.363 96.800,112.909 96.800 C 112.456 96.800,111.972 96.505,111.834 96.143 C 111.614 95.570,111.667 95.558,112.255 96.043 C 112.872 96.553,112.883 96.527,112.384 95.726 C 112.085 95.245,111.711 94.931,111.554 95.028 C 111.397 95.126,111.208 95.029,111.134 94.814 C 111.021 94.484,109.971 94.149,108.676 94.030 C 108.498 94.013,108.448 93.845,108.565 93.656 C 108.682 93.467,107.658 93.347,106.289 93.391 C 103.410 93.482,101.643 93.932,102.379 94.387 C 102.686 94.577,102.426 94.775,101.674 94.925 C 100.849 95.090,100.501 95.384,100.541 95.882 C 100.581 96.368,100.331 96.592,99.767 96.575 C 99.308 96.562,98.933 96.787,98.933 97.075 C 98.933 97.364,99.083 97.600,99.267 97.600 C 99.450 97.600,99.285 97.927,98.900 98.326 C 98.515 98.725,97.941 99.040,97.623 99.026 C 97.306 99.012,96.840 99.404,96.588 99.898 C 96.335 100.391,96.010 100.676,95.864 100.531 C 95.719 100.386,95.600 100.467,95.600 100.713 C 95.600 100.958,95.150 101.644,94.600 102.238 C 94.050 102.831,93.600 103.561,93.600 103.858 C 93.600 104.156,93.390 104.400,93.133 104.400 C 92.877 104.400,92.781 104.514,92.921 104.654 C 93.060 104.794,92.525 105.424,91.732 106.054 C 90.939 106.684,90.439 107.200,90.621 107.200 C 90.804 107.200,90.670 107.425,90.324 107.700 C 89.979 107.975,89.583 108.689,89.444 109.286 C 89.270 110.033,89.006 110.300,88.596 110.143 C 88.220 109.999,88.000 110.152,88.000 110.557 C 88.000 110.911,87.775 111.203,87.500 111.206 C 87.105 111.211,87.106 111.280,87.506 111.533 C 87.879 111.770,87.699 112.162,86.817 113.027 C 86.160 113.672,85.617 114.425,85.611 114.700 C 85.605 114.975,85.420 115.200,85.200 115.200 C 84.980 115.200,84.800 115.560,84.800 116.000 C 84.800 116.440,84.620 116.800,84.400 116.800 C 84.180 116.800,84.000 117.250,84.000 117.800 C 84.000 118.350,83.826 118.800,83.613 118.800 C 83.399 118.800,83.329 119.070,83.455 119.400 C 83.601 119.780,83.450 120.000,83.043 120.000 C 82.604 120.000,82.400 120.359,82.400 121.133 C 82.400 121.757,82.265 122.402,82.100 122.567 C 81.935 122.732,81.778 123.212,81.750 123.633 C 81.723 124.055,81.678 124.771,81.650 125.224 C 81.623 125.677,81.455 125.958,81.278 125.848 C 80.771 125.535,80.932 138.876,81.446 139.800 C 81.691 140.240,81.804 140.846,81.697 141.146 C 81.590 141.447,81.699 141.814,81.938 141.962 C 82.178 142.110,82.418 142.809,82.472 143.516 C 82.526 144.222,82.712 144.800,82.885 144.800 C 83.058 144.800,83.200 145.160,83.200 145.600 C 83.200 146.040,83.549 146.749,83.975 147.175 C 84.484 147.684,84.588 148.004,84.279 148.107 C 83.774 148.275,84.630 149.374,85.400 149.547 C 85.620 149.596,85.744 149.988,85.675 150.418 C 85.606 150.848,85.741 151.200,85.975 151.200 C 86.209 151.200,86.400 151.476,86.400 151.813 C 86.400 152.149,86.669 152.528,86.998 152.654 C 87.326 152.781,87.525 153.000,87.440 153.142 C 87.354 153.284,87.535 153.632,87.842 153.916 C 88.149 154.199,88.400 154.336,88.400 154.220 C 88.400 154.103,88.744 154.303,89.165 154.663 C 89.586 155.023,89.836 155.561,89.722 155.859 C 89.537 156.341,90.033 156.587,90.907 156.445 C 91.077 156.417,91.418 156.841,91.666 157.385 C 91.914 157.929,92.243 158.297,92.398 158.201 C 92.759 157.978,92.837 160.419,92.487 160.978 C 92.204 161.429,92.085 161.904,91.780 163.800 C 91.397 166.182,91.302 167.025,91.252 168.524 C 91.214 169.627,91.062 169.964,90.700 169.747 C 90.409 169.572,90.450 169.761,90.800 170.200 C 91.150 170.639,91.191 170.828,90.900 170.653 C 90.520 170.425,90.400 170.984,90.400 172.976 C 90.400 174.459,90.226 175.600,90.000 175.600 C 89.780 175.600,89.600 176.309,89.600 177.176 C 89.600 178.043,89.401 178.876,89.157 179.026 C 88.849 179.217,88.879 179.404,89.257 179.644 C 89.657 179.897,89.668 179.989,89.300 179.994 C 88.959 179.998,88.798 180.733,88.794 182.300 C 88.790 183.723,88.658 184.395,88.447 184.062 C 88.236 183.729,88.085 184.482,88.049 186.041 C 88.018 187.425,87.818 188.665,87.606 188.797 C 87.035 189.149,87.176 208.516,87.752 208.894 C 88.068 209.101,88.053 209.190,87.700 209.194 C 87.425 209.197,87.200 209.470,87.200 209.800 C 87.200 210.130,87.425 210.403,87.700 210.406 C 88.032 210.410,87.999 210.540,87.600 210.794 C 87.092 211.117,87.081 211.307,87.531 212.031 C 87.923 212.665,88.059 214.852,88.053 220.443 C 88.049 224.917,88.199 228.000,88.423 228.000 C 88.630 228.000,88.800 228.191,88.800 228.424 C 88.800 228.657,88.620 228.736,88.400 228.600 C 88.180 228.464,88.000 228.543,88.000 228.776 C 88.000 229.009,88.225 229.214,88.500 229.232 C 88.855 229.254,88.842 229.326,88.455 229.480 C 87.994 229.663,87.994 229.751,88.455 230.042 C 88.874 230.308,88.881 230.389,88.486 230.394 C 88.109 230.398,88.078 230.599,88.369 231.142 C 88.588 231.550,88.817 235.077,88.880 238.978 C 88.942 242.880,89.138 246.162,89.316 246.272 C 89.493 246.381,89.446 246.704,89.209 246.989 C 88.736 247.559,88.793 249.948,89.287 250.254 C 89.459 250.360,89.600 251.697,89.600 253.224 L 89.600 256.000 54.398 256.000 L 19.197 256.000 19.335 162.300 C 19.411 110.765,19.595 67.970,19.745 67.200 C 19.895 66.430,20.036 65.395,20.059 64.900 C 20.081 64.405,20.277 64.000,20.493 64.000 C 20.709 64.000,20.784 63.736,20.660 63.413 C 20.536 63.090,20.635 62.702,20.879 62.551 C 21.167 62.373,21.210 62.461,21.000 62.800 C 20.786 63.146,20.833 63.227,21.138 63.038 C 21.392 62.881,21.600 62.581,21.600 62.371 C 21.600 61.685,25.543 58.034,25.749 58.529 C 25.862 58.799,26.054 58.649,26.200 58.177 C 26.415 57.479,26.722 57.374,28.227 57.487 C 29.251 57.564,30.000 57.448,30.000 57.213 C 30.000 56.637,368.148 56.637,369.224 57.213 M34.000 69.280 C 34.000 69.964,33.893 70.053,33.520 69.680 C 32.787 68.947,32.283 69.107,32.516 70.000 C 32.743 70.867,32.195 71.119,31.865 70.300 C 31.754 70.025,31.649 70.205,31.632 70.700 C 31.614 71.195,31.448 71.600,31.263 71.600 C 30.627 71.600,30.763 77.872,31.411 78.409 C 31.735 78.678,32.000 79.115,32.000 79.381 C 32.000 79.647,32.450 80.106,33.000 80.400 C 33.550 80.694,34.000 81.087,34.000 81.273 C 34.000 81.458,46.788 81.603,62.417 81.595 C 80.753 81.585,90.749 81.441,90.594 81.190 C 90.381 80.846,90.939 80.635,91.358 80.900 C 91.787 81.171,93.200 79.359,93.200 78.538 C 93.200 78.022,93.392 77.600,93.627 77.600 C 94.928 77.600,93.900 71.941,92.273 70.154 L 90.677 68.400 62.338 68.400 L 34.000 68.400 34.000 69.280 M34.174 87.557 C 34.295 87.754,33.938 88.029,33.381 88.169 C 32.823 88.309,32.475 88.598,32.607 88.812 C 32.739 89.025,32.572 89.200,32.236 89.200 C 31.857 89.200,31.713 89.428,31.855 89.800 C 32.002 90.183,31.848 90.400,31.430 90.400 C 30.868 90.400,30.788 90.871,30.868 93.700 C 30.955 96.785,31.382 98.169,32.110 97.728 C 32.280 97.625,32.370 97.772,32.310 98.056 C 32.249 98.339,32.605 98.755,33.100 98.980 C 33.595 99.205,34.000 99.617,34.000 99.895 C 34.000 100.286,35.906 100.400,42.424 100.400 C 47.937 100.400,50.762 100.262,50.600 100.000 C 50.464 99.780,50.528 99.600,50.743 99.600 C 50.958 99.600,51.215 99.825,51.314 100.100 C 51.458 100.495,51.683 100.489,52.390 100.070 C 52.881 99.779,53.164 99.734,53.018 99.970 C 52.872 100.207,52.943 100.400,53.176 100.400 C 53.409 100.400,53.600 100.119,53.600 99.776 C 53.600 99.433,53.780 99.264,54.000 99.400 C 54.220 99.536,54.400 99.337,54.400 98.957 C 54.400 98.577,54.517 98.383,54.659 98.526 C 55.009 98.876,56.441 97.189,56.168 96.748 C 56.050 96.557,56.111 96.400,56.304 96.400 C 56.907 96.400,56.669 91.213,56.049 90.830 C 55.746 90.643,55.595 90.332,55.713 90.140 C 55.998 89.679,55.257 88.753,53.914 87.894 C 52.713 87.126,33.707 86.802,34.174 87.557 M249.600 112.600 L 249.600 118.400 239.100 118.447 C 233.325 118.473,228.460 118.472,228.289 118.444 C 228.118 118.416,227.878 118.653,227.756 118.971 C 227.628 119.305,227.266 119.447,226.901 119.307 C 226.483 119.146,226.367 119.222,226.558 119.532 C 226.733 119.816,226.592 120.000,226.200 120.000 C 225.844 120.000,225.651 120.160,225.772 120.355 C 225.893 120.550,225.712 120.941,225.371 121.224 C 223.600 122.694,225.293 130.800,227.371 130.800 C 227.717 130.800,228.000 130.980,228.000 131.200 C 228.000 131.457,231.867 131.600,238.800 131.600 L 249.600 131.600 249.600 137.400 L 249.600 143.200 246.500 143.250 C 244.795 143.278,242.905 143.291,242.300 143.278 C 241.695 143.266,241.200 143.423,241.200 143.628 C 241.200 143.833,241.065 143.964,240.900 143.921 C 240.280 143.757,238.798 144.472,239.018 144.829 C 239.144 145.033,238.967 145.200,238.624 145.200 C 238.273 145.200,238.000 145.540,238.000 145.976 C 238.000 146.403,237.820 146.864,237.600 147.000 C 235.737 148.152,238.250 156.493,240.232 155.733 C 240.487 155.634,240.810 155.848,240.947 156.207 C 241.107 156.622,241.600 156.834,242.299 156.788 C 242.905 156.748,244.795 156.734,246.500 156.758 L 249.600 156.800 249.600 162.600 L 249.600 168.400 239.100 168.447 C 233.325 168.473,228.460 168.472,228.289 168.444 C 228.118 168.416,227.878 168.653,227.756 168.971 C 227.628 169.305,227.266 169.447,226.901 169.307 C 226.483 169.146,226.367 169.222,226.558 169.532 C 226.733 169.816,226.592 170.000,226.200 170.000 C 225.844 170.000,225.651 170.160,225.772 170.355 C 225.893 170.550,225.712 170.941,225.371 171.224 C 223.600 172.694,225.293 180.800,227.371 180.800 C 227.717 180.800,228.000 180.980,228.000 181.200 C 228.000 181.457,231.867 181.600,238.800 181.600 L 249.600 181.600 249.600 187.400 L 249.600 193.200 246.500 193.250 C 244.795 193.278,242.905 193.291,242.300 193.278 C 241.695 193.266,241.200 193.423,241.200 193.628 C 241.200 193.833,241.065 193.964,240.900 193.921 C 240.280 193.757,238.798 194.472,239.018 194.829 C 239.144 195.033,238.967 195.200,238.624 195.200 C 238.273 195.200,238.000 195.540,238.000 195.976 C 238.000 196.403,237.847 196.847,237.661 196.962 C 235.773 198.129,238.227 206.502,240.232 205.733 C 240.487 205.634,240.810 205.848,240.947 206.207 C 241.107 206.622,241.600 206.834,242.299 206.788 C 242.905 206.748,244.795 206.734,246.500 206.758 L 249.600 206.800 249.600 212.600 L 249.600 218.400 239.100 218.447 C 233.325 218.473,228.460 218.472,228.289 218.444 C 228.118 218.416,227.878 218.653,227.756 218.971 C 227.628 219.305,227.266 219.447,226.901 219.307 C 226.483 219.146,226.367 219.222,226.558 219.532 C 226.733 219.816,226.592 220.000,226.200 220.000 C 225.844 220.000,225.651 220.160,225.772 220.355 C 225.893 220.550,225.712 220.941,225.371 221.224 C 223.600 222.694,225.293 230.800,227.371 230.800 C 227.717 230.800,228.000 230.980,228.000 231.200 C 228.000 231.457,231.867 231.600,238.800 231.600 L 249.600 231.600 249.600 243.800 L 249.600 256.000 228.200 256.000 L 206.800 256.000 206.800 181.400 L 206.800 106.800 228.200 106.800 L 249.600 106.800 249.600 112.600 M107.185 111.179 C 107.493 111.607,107.893 111.866,108.073 111.755 C 108.253 111.644,108.400 111.823,108.400 112.154 C 108.400 112.484,108.731 112.990,109.135 113.277 C 109.540 113.565,109.995 114.302,110.147 114.916 C 110.299 115.530,110.568 115.944,110.744 115.834 C 110.921 115.725,111.306 116.250,111.600 117.000 C 111.894 117.750,112.285 118.271,112.468 118.158 C 112.650 118.045,112.801 118.278,112.802 118.676 C 112.803 119.074,113.352 119.985,114.022 120.700 C 114.692 121.415,115.044 122.000,114.805 122.000 C 114.565 122.000,114.736 122.394,115.184 122.875 C 115.633 123.357,116.000 124.077,116.000 124.475 C 116.000 124.874,116.180 125.200,116.400 125.200 C 116.620 125.200,116.800 125.663,116.800 126.229 C 116.800 126.794,117.041 127.498,117.335 127.792 C 117.664 128.121,117.856 129.187,117.835 130.563 C 117.815 131.807,117.978 132.803,118.200 132.806 C 118.447 132.810,118.439 132.924,118.178 133.106 C 117.946 133.268,117.741 133.805,117.722 134.300 C 117.704 134.795,117.669 135.841,117.644 136.624 C 117.615 137.555,117.447 137.952,117.157 137.774 C 116.863 137.591,116.800 137.770,116.971 138.308 C 117.126 138.798,116.986 139.357,116.614 139.729 C 116.276 140.067,115.999 140.491,115.998 140.671 C 115.996 140.852,115.734 141.501,115.414 142.113 C 115.019 142.872,114.988 143.148,115.317 142.979 C 115.583 142.844,115.213 143.243,114.496 143.866 C 113.779 144.490,113.194 145.206,113.196 145.457 C 113.198 145.709,112.919 146.022,112.575 146.154 C 112.225 146.289,112.076 146.599,112.236 146.859 C 112.407 147.135,112.350 147.216,112.094 147.058 C 111.858 146.912,111.425 147.019,111.132 147.296 C 110.184 148.194,108.300 149.003,107.439 148.882 C 106.754 148.786,106.710 148.840,107.200 149.176 C 107.693 149.514,107.640 149.589,106.900 149.594 C 106.405 149.597,106.000 149.398,106.000 149.151 C 106.000 148.828,105.841 148.834,105.436 149.170 C 105.023 149.513,104.797 149.518,104.595 149.192 C 104.443 148.946,104.047 148.850,103.715 148.977 C 103.288 149.141,103.181 149.025,103.351 148.584 C 103.483 148.240,103.427 148.059,103.228 148.183 C 103.028 148.306,102.580 148.123,102.232 147.775 C 101.885 147.427,101.600 147.330,101.600 147.559 C 101.600 147.788,101.315 147.865,100.966 147.732 C 100.456 147.536,100.437 147.423,100.866 147.150 C 101.292 146.881,101.276 146.811,100.789 146.806 C 100.453 146.803,99.870 146.440,99.493 146.000 C 99.116 145.560,98.993 145.200,99.220 145.200 C 99.453 145.200,99.407 144.957,99.116 144.642 C 98.832 144.335,98.465 144.166,98.300 144.266 C 98.135 144.365,97.997 144.032,97.994 143.524 C 97.990 142.867,97.890 142.754,97.650 143.132 C 97.410 143.511,97.245 143.323,97.076 142.480 C 96.946 141.829,96.577 141.034,96.257 140.714 C 95.936 140.393,95.616 139.517,95.546 138.766 C 95.475 138.015,95.265 137.291,95.079 137.158 C 94.484 136.732,94.686 127.112,95.315 125.898 C 95.625 125.301,95.996 124.929,96.139 125.073 C 96.283 125.216,96.400 124.943,96.400 124.467 C 96.400 123.990,96.559 123.600,96.753 123.600 C 97.074 123.600,97.460 122.741,97.815 121.240 C 97.887 120.932,98.162 120.547,98.425 120.385 C 98.687 120.222,98.779 119.889,98.628 119.645 C 98.476 119.400,98.556 119.200,98.805 119.200 C 99.360 119.200,100.440 118.162,100.344 117.721 C 100.197 117.053,100.910 116.000,101.509 116.000 C 101.853 116.000,102.028 115.895,101.900 115.767 C 101.607 115.474,102.900 114.074,103.279 114.274 C 103.433 114.355,103.488 114.057,103.402 113.611 C 103.316 113.165,103.461 112.795,103.723 112.788 C 103.985 112.781,104.650 112.247,105.200 111.600 C 106.394 110.196,106.465 110.181,107.185 111.179 M163.029 116.571 C 163.343 116.886,163.600 117.426,163.600 117.771 C 163.600 118.117,163.780 118.400,164.000 118.400 C 164.220 118.400,164.400 118.764,164.400 119.208 C 164.400 119.652,164.889 120.777,165.487 121.708 C 166.084 122.639,166.582 123.490,166.593 123.600 C 166.604 123.710,166.755 124.025,166.930 124.300 C 167.177 124.689,166.239 124.800,162.690 124.800 C 158.588 124.800,158.141 124.730,158.211 124.100 C 158.340 122.939,158.861 121.991,159.242 122.226 C 159.439 122.348,159.600 121.884,159.600 121.195 C 159.600 119.961,160.470 118.603,160.952 119.086 C 161.089 119.222,161.200 118.843,161.200 118.243 C 161.200 117.618,161.371 117.258,161.600 117.400 C 161.820 117.536,162.000 117.277,162.000 116.824 C 162.000 115.853,162.249 115.792,163.029 116.571 M174.530 138.263 C 174.675 138.408,174.570 138.803,174.297 139.140 C 173.900 139.629,173.901 139.693,174.300 139.453 C 174.674 139.229,174.800 139.664,174.800 141.176 L 174.800 143.200 162.600 143.200 L 150.400 143.200 150.400 140.776 C 150.400 139.263,150.550 138.446,150.800 138.600 C 151.020 138.736,151.200 138.657,151.200 138.424 C 151.200 137.954,174.064 137.797,174.530 138.263 M174.800 206.400 L 174.800 256.000 162.600 256.000 L 150.400 256.000 150.400 206.400 L 150.400 156.800 162.600 156.800 L 174.800 156.800 174.800 206.400 M158.459 162.992 C 157.942 163.545,157.329 163.880,157.098 163.737 C 156.862 163.591,156.794 163.666,156.942 163.906 C 157.088 164.142,156.934 164.609,156.600 164.943 C 156.065 165.478,155.994 170.073,156.004 203.434 C 156.011 224.270,156.131 241.202,156.272 241.061 C 156.413 240.920,156.725 241.195,156.964 241.672 C 157.722 243.180,159.558 243.939,162.524 243.971 C 164.358 243.990,165.161 243.861,164.983 243.573 C 164.838 243.339,164.963 243.180,165.260 243.221 C 166.816 243.434,167.569 243.183,167.319 242.534 C 167.151 242.095,167.219 241.964,167.520 242.151 C 167.800 242.324,168.075 242.041,168.231 241.419 C 168.371 240.862,168.646 240.505,168.843 240.627 C 169.053 240.756,169.195 225.185,169.186 203.024 C 169.173 170.827,169.087 165.200,168.609 165.200 C 168.300 165.200,167.919 164.992,167.762 164.738 C 167.574 164.435,167.669 164.376,168.038 164.566 C 168.347 164.725,167.947 164.258,167.149 163.527 C 165.113 161.666,159.995 161.351,158.459 162.992 M106.800 164.176 C 106.800 164.933,106.980 165.664,107.200 165.800 C 107.420 165.936,107.600 166.926,107.600 168.000 C 107.600 169.074,107.780 170.064,108.000 170.200 C 108.220 170.336,108.400 171.211,108.400 172.144 C 108.400 173.077,108.625 174.082,108.900 174.379 C 109.305 174.815,109.292 174.856,108.832 174.593 C 108.389 174.340,108.336 174.438,108.589 175.034 C 108.768 175.455,108.960 176.520,109.016 177.400 C 109.072 178.280,109.136 179.236,109.159 179.524 C 109.181 179.812,109.380 179.936,109.600 179.800 C 109.820 179.664,110.000 179.743,110.000 179.976 C 110.000 180.209,109.775 180.403,109.500 180.406 C 109.163 180.410,109.140 180.508,109.430 180.706 C 109.666 180.868,109.836 181.765,109.808 182.700 C 109.778 183.689,109.938 184.400,110.191 184.400 C 110.556 184.400,110.626 185.118,110.432 186.900 C 110.415 187.065,108.523 187.200,106.228 187.200 C 101.696 187.200,100.970 186.724,102.261 184.600 C 102.529 184.160,102.707 183.170,102.658 182.400 C 102.609 181.630,102.756 180.747,102.984 180.439 C 103.213 180.130,103.423 178.894,103.451 177.693 C 103.479 176.491,103.683 175.393,103.905 175.254 C 104.126 175.114,104.338 174.190,104.375 173.200 C 104.475 170.557,104.502 170.416,104.867 170.641 C 105.050 170.755,105.139 169.684,105.064 168.261 C 104.953 166.147,105.033 165.714,105.500 165.894 C 105.933 166.060,106.053 165.786,105.995 164.756 C 105.895 162.966,105.929 162.800,106.400 162.800 C 106.620 162.800,106.800 163.419,106.800 164.176 M294.000 166.624 C 294.000 166.967,294.167 167.144,294.371 167.018 C 294.576 166.891,294.805 167.196,294.881 167.694 C 294.957 168.192,295.214 168.564,295.452 168.519 C 295.691 168.474,295.837 168.879,295.778 169.419 C 295.719 169.959,295.822 170.400,296.007 170.400 C 296.193 170.400,296.406 170.805,296.482 171.300 C 296.557 171.795,296.833 172.157,297.095 172.105 C 297.360 172.052,297.474 172.264,297.351 172.584 C 297.229 172.900,297.506 173.562,297.965 174.055 C 298.424 174.548,298.800 175.378,298.800 175.899 C 298.800 176.421,298.961 176.748,299.158 176.626 C 299.588 176.360,300.097 177.519,299.778 178.036 C 299.654 178.236,299.743 178.400,299.976 178.400 C 300.209 178.400,300.400 178.760,300.400 179.200 C 300.400 179.640,300.580 180.000,300.800 180.000 C 301.020 180.000,301.200 180.286,301.200 180.636 C 301.200 180.986,301.605 181.629,302.100 182.066 C 302.595 182.503,302.762 182.738,302.470 182.589 C 302.036 182.365,302.032 182.462,302.451 183.132 C 302.731 183.581,303.104 183.859,303.280 183.751 C 303.456 183.642,303.600 183.866,303.600 184.248 C 303.600 185.241,304.501 187.600,304.880 187.600 C 305.056 187.600,305.200 187.971,305.200 188.424 C 305.200 188.877,305.350 189.155,305.532 189.042 C 305.715 188.929,305.904 189.818,305.953 191.018 L 306.041 193.200 293.821 193.200 L 281.600 193.200 281.600 191.424 C 281.600 190.447,281.792 189.528,282.027 189.383 C 282.262 189.238,282.358 188.867,282.240 188.560 C 282.116 188.237,282.274 188.000,282.613 188.000 C 282.972 188.000,283.200 187.613,283.200 187.000 C 283.200 186.450,283.380 186.000,283.600 186.000 C 283.820 186.000,284.000 185.730,284.000 185.400 C 284.000 185.070,284.180 184.800,284.400 184.800 C 284.620 184.800,284.800 184.440,284.800 184.000 C 284.800 183.560,284.970 183.200,285.177 183.200 C 285.384 183.200,285.485 182.840,285.400 182.400 C 285.303 181.899,285.461 181.600,285.823 181.600 C 286.140 181.600,286.400 181.240,286.400 180.800 C 286.400 180.360,286.588 180.000,286.818 180.000 C 287.047 180.000,287.196 179.775,287.148 179.500 C 287.035 178.846,288.032 176.800,288.464 176.800 C 288.649 176.800,288.800 176.440,288.800 176.000 C 288.800 175.560,288.980 175.200,289.200 175.200 C 289.420 175.200,289.600 174.851,289.600 174.424 C 289.600 173.997,289.783 173.534,290.007 173.396 C 290.230 173.258,290.318 172.992,290.203 172.805 C 290.087 172.618,290.276 172.181,290.622 171.835 C 290.968 171.489,291.122 170.997,290.964 170.741 C 290.785 170.452,290.851 170.384,291.138 170.562 C 291.442 170.750,291.600 170.490,291.600 169.800 C 291.600 169.204,291.772 168.859,292.000 169.000 C 292.220 169.136,292.400 168.877,292.400 168.424 C 292.400 167.971,292.580 167.600,292.800 167.600 C 293.020 167.600,293.179 167.465,293.153 167.300 C 293.037 166.567,293.232 166.000,293.600 166.000 C 293.820 166.000,294.000 166.281,294.000 166.624 M111.401 206.566 C 111.401 209.958,111.283 212.703,111.140 212.666 C 110.997 212.630,110.880 212.780,110.880 213.000 C 110.880 213.220,111.042 213.355,111.240 213.300 C 111.438 213.245,111.600 213.380,111.600 213.600 C 111.600 213.820,111.285 214.003,110.900 214.006 C 110.302 214.011,110.287 214.069,110.800 214.400 C 111.200 214.658,111.233 214.790,110.900 214.794 C 110.625 214.797,110.400 214.991,110.400 215.224 C 110.400 215.457,110.568 215.544,110.772 215.417 C 110.977 215.291,111.261 215.374,111.402 215.603 C 111.544 215.832,111.426 215.970,111.141 215.910 C 110.736 215.824,110.606 217.181,110.548 222.100 C 110.494 226.647,110.602 228.402,110.937 228.406 C 111.221 228.410,111.185 228.548,110.845 228.764 C 110.505 228.979,110.367 229.517,110.490 230.157 C 110.599 230.731,110.513 231.200,110.298 231.200 C 110.083 231.200,109.996 231.540,110.104 231.956 C 110.213 232.371,110.157 232.947,109.979 233.234 C 109.801 233.522,109.817 234.058,110.014 234.426 C 110.211 234.794,110.257 235.210,110.116 235.351 C 109.660 235.807,109.566 245.590,110.010 246.418 C 110.240 246.848,110.284 247.200,110.107 247.200 C 109.931 247.200,109.816 247.830,109.852 248.600 C 109.891 249.422,109.728 250.003,109.459 250.006 C 109.207 250.009,109.270 250.187,109.600 250.400 C 110.036 250.682,110.057 250.789,109.676 250.794 C 109.388 250.797,109.264 250.980,109.400 251.200 C 109.536 251.420,109.473 251.600,109.261 251.600 C 109.049 251.600,108.969 251.960,109.084 252.400 C 109.199 252.840,109.454 253.200,109.650 253.200 C 109.852 253.200,109.845 253.503,109.633 253.900 C 109.427 254.285,109.161 254.915,109.042 255.300 C 108.865 255.872,108.352 256.000,106.232 256.000 C 103.366 256.000,102.457 255.344,103.343 253.914 C 103.697 253.341,103.678 253.100,103.257 252.838 C 102.910 252.621,102.863 252.408,103.128 252.245 C 103.403 252.074,103.414 251.558,103.159 250.695 C 102.949 249.983,102.752 245.853,102.721 241.518 C 102.691 237.183,102.546 233.710,102.400 233.800 C 102.253 233.891,102.133 233.711,102.133 233.400 C 102.133 233.089,102.311 232.945,102.528 233.079 C 102.773 233.231,102.793 233.112,102.581 232.769 C 102.076 231.952,102.027 231.272,101.926 223.600 C 101.870 219.302,101.673 216.487,101.417 216.306 C 101.146 216.115,101.175 216.010,101.500 216.006 C 101.775 216.003,102.000 215.640,102.000 215.200 C 102.000 214.760,101.831 214.400,101.625 214.400 C 101.419 214.400,101.236 213.725,101.219 212.900 C 101.154 209.696,101.123 204.111,101.161 202.300 L 101.200 200.400 106.301 200.400 L 111.402 200.400 111.401 206.566 M306.000 231.400 L 306.000 256.000 293.800 256.000 L 281.600 256.000 281.600 231.400 L 281.600 206.800 293.800 206.800 L 306.000 206.800 306.000 231.400 M289.411 213.605 C 288.537 214.482,287.698 215.200,287.546 215.200 C 287.395 215.200,287.249 220.960,287.221 228.000 C 287.187 236.608,287.306 240.800,287.585 240.800 C 287.813 240.800,288.000 241.083,288.000 241.429 C 288.000 242.049,288.906 243.200,289.395 243.200 C 289.534 243.200,289.533 242.975,289.393 242.700 C 289.253 242.425,289.507 242.617,289.956 243.127 C 291.259 244.607,296.764 244.271,298.611 242.600 C 299.482 241.812,300.638 239.808,300.000 240.192 C 299.503 240.492,299.485 240.449,299.893 239.944 C 300.497 239.197,300.573 215.200,299.972 215.200 C 299.767 215.200,299.600 214.930,299.600 214.600 C 299.600 214.270,299.319 214.000,298.976 214.000 C 298.633 214.000,298.464 213.820,298.600 213.600 C 298.822 213.240,298.297 213.027,297.500 213.153 C 297.335 213.179,297.200 212.966,297.200 212.681 C 297.200 212.306,296.336 212.141,294.100 212.086 L 291.000 212.011 289.411 213.605 M352.706 212.556 C 352.325 212.844,352.145 213.225,352.306 213.404 C 352.468 213.582,352.374 213.598,352.097 213.439 C 351.498 213.094,350.779 213.775,350.081 215.350 C 349.364 216.970,349.515 222.400,350.278 222.400 C 350.591 222.400,350.746 222.564,350.623 222.764 C 349.680 224.289,352.669 225.114,359.239 225.139 C 366.663 225.169,368.400 224.650,368.400 222.405 C 368.400 221.936,368.580 221.664,368.800 221.800 C 369.020 221.936,369.200 221.756,369.200 221.400 C 369.200 221.031,369.011 220.870,368.760 221.025 C 368.451 221.216,368.435 221.075,368.708 220.548 C 369.325 219.359,369.229 215.200,368.585 215.200 C 368.289 215.200,367.919 214.992,367.762 214.738 C 367.574 214.435,367.669 214.376,368.038 214.566 C 368.347 214.725,367.929 214.242,367.109 213.493 L 365.619 212.131 359.509 212.082 C 355.034 212.046,353.214 212.173,352.706 212.556 M334.434 231.251 C 333.183 231.733,331.729 233.197,331.281 234.428 C 330.788 235.781,330.732 240.800,331.210 240.800 C 331.425 240.800,331.600 241.095,331.600 241.456 C 331.600 242.249,332.729 243.170,333.724 243.187 C 334.122 243.194,334.344 243.367,334.219 243.570 C 334.080 243.794,340.159 243.957,349.626 243.982 C 360.888 244.013,365.187 243.902,364.991 243.586 C 364.841 243.342,364.960 243.180,365.260 243.221 C 366.816 243.434,367.569 243.183,367.319 242.534 C 367.151 242.095,367.219 241.964,367.520 242.151 C 367.800 242.324,368.075 242.041,368.231 241.419 C 368.371 240.862,368.627 240.493,368.800 240.600 C 368.973 240.707,369.136 239.266,369.162 237.397 C 369.191 235.340,369.050 234.000,368.805 234.000 C 368.582 234.000,368.400 233.807,368.400 233.571 C 368.400 233.049,367.767 232.425,366.251 231.453 C 365.535 230.995,365.224 230.921,365.428 231.259 C 365.696 231.704,365.642 231.709,365.121 231.287 C 364.359 230.671,336.030 230.637,334.434 231.251 M380.800 275.176 C 380.800 278.792,380.639 281.252,380.394 281.404 C 380.170 281.542,380.056 282.283,380.141 283.051 C 380.226 283.819,380.077 284.666,379.811 284.932 C 379.544 285.199,379.372 285.729,379.428 286.110 C 379.484 286.492,379.366 286.702,379.165 286.578 C 378.964 286.454,378.800 286.543,378.800 286.776 C 378.800 287.009,378.787 287.277,378.771 287.372 C 378.702 287.780,375.137 291.215,374.691 291.303 C 374.421 291.356,374.110 291.490,374.000 291.600 C 373.399 292.201,370.014 293.052,369.847 292.645 C 369.746 292.400,369.649 292.470,369.632 292.800 C 369.604 293.333,350.602 293.378,200.300 293.200 C 87.664 293.067,30.902 293.134,30.706 293.400 C 30.540 293.627,30.410 293.501,30.406 293.110 C 30.401 292.535,30.229 292.485,29.377 292.809 C 28.620 293.097,28.429 293.076,28.643 292.731 C 28.836 292.418,28.712 292.348,28.266 292.519 C 27.899 292.660,27.600 292.582,27.600 292.345 C 27.600 292.108,27.323 292.021,26.985 292.150 C 26.635 292.285,26.272 292.131,26.142 291.793 C 26.017 291.467,25.680 291.200,25.393 291.200 C 24.823 291.200,21.509 287.888,21.530 287.340 C 21.537 287.153,21.300 286.730,21.003 286.400 C 20.705 286.070,20.360 285.350,20.235 284.800 C 20.110 284.250,19.882 283.260,19.728 282.600 C 19.573 281.940,19.382 278.655,19.304 275.300 L 19.161 269.200 199.980 269.200 L 380.800 269.200 380.800 275.176 M34.000 275.193 C 34.000 275.417,33.783 275.555,33.518 275.500 C 33.253 275.445,33.020 275.670,33.000 276.000 C 32.980 276.330,32.733 276.551,32.452 276.490 C 32.171 276.430,32.049 276.556,32.181 276.770 C 32.314 276.984,32.061 277.353,31.619 277.590 C 30.907 277.971,30.817 278.410,30.840 281.414 C 30.853 283.280,31.009 284.718,31.187 284.608 C 31.364 284.499,31.607 284.785,31.728 285.245 C 31.867 285.776,32.124 285.971,32.435 285.778 C 32.728 285.597,32.821 285.643,32.666 285.893 C 32.525 286.122,32.677 286.532,33.004 286.804 C 33.332 287.076,33.605 287.141,33.612 286.949 C 33.619 286.757,33.803 286.906,34.021 287.281 C 34.641 288.343,76.126 288.359,77.340 287.298 C 77.778 286.914,77.994 286.844,77.819 287.143 C 77.325 287.984,79.282 287.253,79.909 286.362 C 80.189 285.965,80.672 285.385,80.983 285.074 C 81.405 284.652,81.433 284.393,81.094 284.054 C 80.794 283.754,80.783 283.600,81.064 283.600 C 81.315 283.600,81.516 282.460,81.558 280.800 C 81.601 279.089,81.468 278.000,81.214 278.000 C 80.987 278.000,80.800 277.717,80.800 277.371 C 80.800 276.596,80.134 275.939,78.710 275.309 C 77.288 274.680,34.000 274.568,34.000 275.193 M89.817 275.324 C 88.452 276.154,88.000 276.719,88.000 277.595 C 88.000 278.065,87.819 278.336,87.598 278.199 C 87.338 278.038,87.221 279.163,87.267 281.375 C 87.306 283.259,87.487 284.800,87.669 284.800 C 87.851 284.800,88.000 284.993,88.000 285.229 C 88.000 285.743,88.632 286.375,90.063 287.290 C 91.295 288.078,102.800 288.243,102.800 287.472 C 102.800 287.249,102.914 287.180,103.053 287.319 C 103.462 287.728,104.848 286.801,104.549 286.318 C 104.392 286.063,104.458 285.989,104.708 286.143 C 105.732 286.776,106.731 284.277,106.646 281.295 C 106.566 278.513,106.505 278.350,104.891 276.606 L 103.220 274.800 96.910 274.824 C 92.772 274.839,90.330 275.011,89.817 275.324 M226.334 306.900 C 226.278 307.175,226.458 307.809,226.735 308.308 C 227.011 308.808,227.127 309.394,226.993 309.611 C 226.859 309.828,227.004 310.103,227.315 310.223 C 227.661 310.355,227.812 310.804,227.703 311.373 C 227.605 311.886,227.722 312.428,227.962 312.577 C 228.203 312.725,228.400 313.297,228.400 313.847 C 228.400 314.412,228.574 314.740,228.800 314.600 C 229.189 314.360,229.360 315.109,229.227 316.465 C 229.191 316.830,229.378 317.263,229.643 317.426 C 229.968 317.627,230.019 317.554,229.800 317.200 C 229.586 316.853,229.633 316.773,229.940 316.963 C 230.206 317.128,230.299 317.661,230.159 318.221 C 229.989 318.897,230.105 319.266,230.540 319.432 C 230.998 319.608,231.101 319.995,230.925 320.877 C 230.790 321.551,230.868 322.195,231.102 322.340 C 231.332 322.483,231.583 322.960,231.660 323.400 C 231.737 323.840,231.934 324.300,232.098 324.422 C 232.262 324.545,232.435 325.117,232.483 325.694 C 232.531 326.271,232.757 326.711,232.985 326.672 C 233.219 326.631,233.355 327.177,233.296 327.926 C 233.232 328.739,233.348 329.156,233.596 329.002 C 233.828 328.859,234.000 329.189,234.000 329.776 L 234.000 330.800 199.738 330.800 C 165.873 330.800,165.484 330.791,166.177 330.025 C 166.563 329.599,166.777 329.086,166.652 328.884 C 166.527 328.683,166.684 328.176,167.000 327.759 C 167.316 327.342,167.580 326.593,167.587 326.095 C 167.594 325.597,167.780 324.832,168.000 324.395 C 168.220 323.958,168.580 323.242,168.800 322.805 C 169.020 322.368,169.200 321.684,169.200 321.285 C 169.200 320.886,169.350 320.389,169.533 320.180 C 169.715 319.971,170.084 318.990,170.351 318.000 C 170.618 317.010,170.995 315.840,171.187 315.400 C 171.567 314.533,172.142 312.444,172.178 311.800 C 172.190 311.580,172.431 311.156,172.714 310.858 C 172.996 310.560,173.119 309.975,172.987 309.558 C 172.854 309.141,172.919 308.800,173.130 308.800 C 173.341 308.800,173.626 308.351,173.764 307.803 L 174.014 306.806 200.107 306.700 C 214.458 306.642,226.253 306.550,226.318 306.497 C 226.382 306.444,226.389 306.625,226.334 306.900 M262.000 346.800 L 262.000 349.600 200.000 349.600 L 138.000 349.600 138.000 346.800 L 138.000 344.000 200.000 344.000 L 262.000 344.000 262.000 346.800 " stroke="none" fill="#ecdc14" fill-rule="evenodd"></path><path id="path1" d="M24.677 43.964 C 24.287 44.446,24.310 44.487,24.800 44.188 C 25.130 43.987,25.641 43.786,25.937 43.741 C 26.862 43.601,26.934 43.240,26.022 43.308 C 25.545 43.344,24.939 43.639,24.677 43.964 M17.867 46.500 C 17.463 46.922,17.209 47.343,17.302 47.436 C 17.395 47.529,17.799 47.243,18.200 46.800 C 19.139 45.762,18.835 45.488,17.867 46.500 M389.590 53.863 C 389.816 53.975,390.000 54.311,390.000 54.610 C 390.000 54.908,390.178 55.263,390.395 55.397 C 390.645 55.551,390.668 55.312,390.456 54.741 C 390.273 54.246,389.911 53.800,389.652 53.751 C 389.392 53.701,389.365 53.752,389.590 53.863 M379.200 64.200 C 379.200 64.530,379.492 64.800,379.849 64.800 C 380.380 64.800,380.408 64.691,380.000 64.200 C 379.726 63.870,379.434 63.600,379.351 63.600 C 379.268 63.600,379.200 63.870,379.200 64.200 M92.281 70.163 C 92.677 70.693,93.059 70.964,93.132 70.767 C 93.205 70.569,92.993 70.136,92.661 69.804 C 91.723 68.865,91.483 69.093,92.281 70.163 M108.626 93.558 C 108.504 93.755,108.674 94.019,109.002 94.146 C 109.365 94.285,109.600 94.144,109.600 93.787 C 109.600 93.140,108.975 92.993,108.626 93.558 M159.200 93.867 C 159.200 94.160,159.361 94.400,159.557 94.400 C 159.754 94.400,160.007 94.160,160.119 93.867 C 160.232 93.573,160.071 93.333,159.762 93.333 C 159.453 93.333,159.200 93.573,159.200 93.867 M101.017 94.772 C 100.891 94.977,100.998 95.275,101.255 95.434 C 101.537 95.608,101.617 95.551,101.456 95.290 C 101.301 95.040,101.571 94.784,102.094 94.683 C 102.993 94.510,102.993 94.509,102.124 94.454 C 101.642 94.425,101.144 94.568,101.017 94.772 M100.000 96.000 C 100.529 96.342,100.527 96.388,99.981 96.394 C 99.641 96.397,98.651 97.156,97.781 98.081 C 96.912 99.006,96.507 99.530,96.882 99.247 C 97.258 98.963,97.708 98.808,97.882 98.902 C 98.057 98.996,98.504 98.753,98.875 98.362 C 99.347 97.864,99.407 97.597,99.075 97.473 C 98.814 97.375,99.095 97.098,99.700 96.858 C 100.930 96.368,101.177 95.597,100.100 95.606 C 99.502 95.611,99.487 95.669,100.000 96.000 M111.881 96.267 C 111.993 96.560,112.471 96.779,112.943 96.754 C 113.626 96.717,113.657 96.670,113.095 96.523 C 112.707 96.422,112.474 96.203,112.578 96.036 C 112.681 95.870,112.520 95.733,112.221 95.733 C 111.921 95.733,111.768 95.973,111.881 96.267 M31.866 97.868 C 31.481 98.252,32.806 99.601,33.562 99.594 C 33.968 99.590,33.836 99.396,33.200 99.061 C 32.650 98.772,32.245 98.324,32.300 98.067 C 32.413 97.541,32.262 97.472,31.866 97.868 M93.200 103.413 C 93.200 103.749,92.930 104.129,92.600 104.255 C 92.270 104.382,92.000 104.731,92.000 105.030 C 92.000 105.349,92.248 105.480,92.598 105.346 C 92.926 105.219,93.096 104.955,92.974 104.758 C 92.852 104.561,92.922 104.400,93.130 104.400 C 93.337 104.400,93.601 104.040,93.716 103.600 C 93.831 103.160,93.762 102.800,93.563 102.800 C 93.363 102.800,93.200 103.076,93.200 103.413 M89.000 109.200 C 89.136 109.420,89.046 109.600,88.800 109.600 C 88.554 109.600,88.476 109.799,88.626 110.043 C 88.817 110.351,89.004 110.321,89.244 109.943 C 89.710 109.208,89.686 108.800,89.176 108.800 C 88.943 108.800,88.864 108.980,89.000 109.200 M86.811 112.187 C 86.543 112.509,86.386 112.942,86.462 113.150 C 86.538 113.357,86.923 113.093,87.319 112.563 C 88.085 111.536,87.631 111.199,86.811 112.187 M108.400 113.197 C 108.400 113.418,108.552 113.600,108.739 113.600 C 108.925 113.600,109.273 114.005,109.512 114.500 C 109.918 115.342,109.948 115.348,109.973 114.596 C 109.988 114.154,109.640 113.568,109.200 113.293 C 108.726 112.997,108.400 112.957,108.400 113.197 M159.600 120.200 C 159.600 120.530,159.780 120.800,160.000 120.800 C 160.220 120.800,160.400 120.530,160.400 120.200 C 160.400 119.870,160.220 119.600,160.000 119.600 C 159.780 119.600,159.600 119.870,159.600 120.200 M99.493 146.000 C 99.870 146.440,100.432 146.800,100.743 146.800 C 101.079 146.800,100.896 146.476,100.291 146.000 C 99.731 145.560,99.169 145.200,99.041 145.200 C 98.913 145.200,99.116 145.560,99.493 146.000 M112.061 146.135 C 111.411 146.826,111.338 147.067,111.775 147.067 C 112.100 147.067,112.279 146.928,112.174 146.758 C 112.069 146.588,112.300 146.272,112.688 146.055 C 113.076 145.838,113.291 145.557,113.165 145.432 C 113.039 145.306,112.543 145.622,112.061 146.135 M106.000 149.200 C 106.000 149.420,106.405 149.597,106.900 149.594 C 107.628 149.589,107.685 149.514,107.200 149.200 C 106.424 148.699,106.000 148.699,106.000 149.200 M122.832 155.313 C 122.814 155.704,122.544 156.123,122.231 156.243 C 121.918 156.364,121.549 156.763,121.411 157.131 C 121.256 157.545,121.568 157.397,122.228 156.743 C 122.815 156.162,123.198 155.442,123.079 155.143 C 122.932 154.772,122.853 154.825,122.832 155.313 M92.446 159.467 C 92.421 159.724,92.284 160.264,92.141 160.667 C 91.940 161.236,91.994 161.297,92.379 160.942 C 92.652 160.691,92.789 160.151,92.684 159.742 C 92.579 159.334,92.472 159.210,92.446 159.467 M166.578 163.236 C 166.397 163.528,166.443 163.621,166.693 163.466 C 167.146 163.186,168.134 164.132,167.770 164.497 C 167.647 164.619,167.709 164.820,167.907 164.942 C 168.563 165.348,168.279 164.015,167.573 163.376 C 167.046 162.899,166.807 162.865,166.578 163.236 M121.023 165.163 C 120.899 165.363,120.971 165.948,121.181 166.463 C 121.532 167.322,121.558 167.292,121.497 166.100 C 121.425 164.706,121.371 164.600,121.023 165.163 M107.600 170.553 C 107.600 170.883,107.780 171.264,108.000 171.400 C 108.220 171.536,108.400 171.377,108.400 171.047 C 108.400 170.717,108.220 170.336,108.000 170.200 C 107.780 170.064,107.600 170.223,107.600 170.553 M89.600 174.800 C 89.600 175.240,89.780 175.600,90.000 175.600 C 90.220 175.600,90.400 175.240,90.400 174.800 C 90.400 174.360,90.220 174.000,90.000 174.000 C 89.780 174.000,89.600 174.360,89.600 174.800 M102.081 184.818 C 101.772 185.313,101.746 185.600,102.009 185.600 C 102.238 185.600,102.532 185.322,102.662 184.983 C 103.022 184.045,102.633 183.934,102.081 184.818 M101.467 212.667 C 101.102 213.031,101.128 214.400,101.500 214.400 C 101.665 214.400,101.826 213.950,101.858 213.400 C 101.920 212.328,101.880 212.254,101.467 212.667 M288.598 213.602 C 287.534 214.778,288.019 214.887,289.322 213.766 C 289.974 213.205,290.210 212.800,289.884 212.800 C 289.576 212.800,288.997 213.161,288.598 213.602 M366.578 213.236 C 366.397 213.528,366.443 213.621,366.693 213.466 C 367.146 213.186,368.134 214.132,367.770 214.497 C 367.647 214.619,367.709 214.820,367.907 214.942 C 368.563 215.348,368.279 214.015,367.573 213.376 C 367.046 212.899,366.807 212.865,366.578 213.236 M102.185 232.410 C 102.176 233.253,102.272 233.879,102.397 233.802 C 102.754 233.581,102.844 231.275,102.504 231.065 C 102.337 230.961,102.193 231.566,102.185 232.410 M109.671 235.534 C 109.684 236.472,109.753 237.181,109.823 237.110 C 110.170 236.763,110.284 234.859,109.986 234.377 C 109.771 234.029,109.656 234.449,109.671 235.534 M108.893 253.800 C 108.893 254.900,108.981 255.440,109.089 255.000 C 109.198 254.560,109.469 253.975,109.692 253.700 C 109.968 253.360,109.964 253.200,109.678 253.200 C 109.448 253.200,109.176 252.885,109.076 252.500 C 108.975 252.115,108.893 252.700,108.893 253.800 M105.000 276.739 C 105.880 277.652,106.657 278.399,106.727 278.400 C 107.127 278.401,105.001 275.923,104.272 275.538 C 103.739 275.257,104.022 275.724,105.000 276.739 M32.400 276.224 C 32.400 276.567,32.220 276.736,32.000 276.600 C 31.780 276.464,31.600 276.661,31.600 277.038 C 31.600 277.676,31.656 277.674,32.391 277.009 C 32.825 276.615,33.085 276.137,32.967 275.947 C 32.639 275.416,32.400 275.533,32.400 276.224 M77.200 287.400 C 76.781 287.905,76.852 287.995,77.651 287.968 C 78.173 287.951,78.374 287.846,78.098 287.734 C 77.821 287.623,77.697 287.367,77.821 287.166 C 78.184 286.579,77.744 286.745,77.200 287.400 M228.695 314.646 C 228.440 315.058,229.032 316.314,229.328 315.988 C 229.422 315.885,229.373 315.452,229.219 315.027 C 229.064 314.601,228.829 314.430,228.695 314.646 M229.439 317.138 C 229.300 317.361,229.382 317.665,229.620 317.812 C 230.235 318.193,230.632 317.672,230.118 317.158 C 229.831 316.871,229.607 316.864,229.439 317.138 M230.092 319.675 C 230.291 320.273,231.200 320.602,231.200 320.076 C 231.200 319.861,230.915 319.576,230.567 319.443 C 230.177 319.293,229.994 319.382,230.092 319.675 M232.552 326.552 C 232.605 326.913,232.850 327.410,233.096 327.656 C 233.427 327.987,233.519 327.933,233.448 327.448 C 233.395 327.087,233.150 326.590,232.904 326.344 C 232.573 326.013,232.481 326.067,232.552 326.552 M126.581 331.970 C 126.707 332.173,126.493 332.402,126.105 332.479 C 125.717 332.556,125.581 332.733,125.802 332.872 C 126.023 333.012,126.628 332.783,127.146 332.363 C 128.085 331.603,128.085 331.600,127.221 331.600 C 126.743 331.600,126.456 331.766,126.581 331.970 " stroke="none" fill="#ece414" fill-rule="evenodd"></path></g></svg>