<svg id="svg" version="1.1" xmlns="http://www.w3.org/2000/svg" xmlns:xlink="http://www.w3.org/1999/xlink" width="400" height="400" viewBox="0, 0, 400,400"><g id="svgg"><path id="path0" d="M105.469 164.446 L 105.469 166.406 103.516 166.406 L 101.563 166.406 101.563 168.359 L 101.563 170.313 99.609 170.313 L 97.656 170.313 97.656 184.148 L 97.656 197.984 103.462 198.108 C 106.656 198.176,109.337 198.163,109.420 198.080 C 109.504 197.996,109.550 189.978,109.523 180.263 L 109.473 162.598 107.471 162.542 L 105.469 162.486 105.469 164.446 M121.289 164.453 L 121.289 166.406 119.336 166.406 L 117.383 166.406 117.383 168.359 L 117.383 170.313 115.576 170.336 C 114.583 170.348,113.703 170.348,113.622 170.335 C 113.541 170.322,113.497 180.134,113.525 192.138 L 113.574 213.965 119.434 213.965 L 125.293 213.965 125.343 198.096 L 125.393 182.227 127.345 182.227 L 129.297 182.227 129.297 194.141 L 129.297 206.055 135.254 206.055 L 141.211 206.055 141.211 194.141 L 141.211 182.227 143.163 182.227 L 145.115 182.227 145.165 198.096 L 145.215 213.965 151.123 214.017 L 157.031 214.068 157.031 188.284 L 157.031 162.500 153.027 162.500 L 149.023 162.500 149.023 164.453 L 149.023 166.406 147.070 166.406 L 145.117 166.406 145.117 168.457 L 145.117 170.508 141.211 170.508 L 137.305 170.508 137.305 174.414 L 137.305 178.320 135.254 178.320 L 133.203 178.320 133.203 174.414 L 133.203 170.508 129.297 170.508 L 125.391 170.508 125.391 166.504 L 125.391 162.500 123.340 162.500 L 121.289 162.500 121.289 164.453 M168.750 164.453 L 168.750 166.406 166.797 166.406 L 164.844 166.406 164.844 168.408 L 164.844 170.410 162.889 170.374 L 160.933 170.339 160.984 192.152 L 161.035 213.965 166.943 214.017 L 172.852 214.068 172.852 198.147 L 172.852 182.227 174.805 182.227 L 176.758 182.227 176.758 191.180 C 176.758 196.104,176.815 201.466,176.886 203.094 L 177.014 206.055 182.843 206.055 L 188.672 206.055 188.672 194.141 L 188.672 182.227 190.625 182.227 L 192.578 182.227 192.579 195.068 C 192.579 202.131,192.637 209.294,192.707 210.986 L 192.835 214.063 198.663 214.063 L 204.492 214.063 204.492 188.281 L 204.492 162.500 200.501 162.500 L 196.511 162.500 196.546 164.453 L 196.582 166.406 194.569 166.406 L 192.556 166.406 192.593 168.408 L 192.630 170.410 188.698 170.463 L 184.766 170.516 184.766 174.418 L 184.766 178.320 182.813 178.320 L 180.859 178.320 180.859 174.414 L 180.859 170.508 176.855 170.508 L 172.852 170.508 172.852 166.504 L 172.852 162.500 170.801 162.500 L 168.750 162.500 168.750 164.453 M224.255 164.454 L 224.316 166.407 220.361 166.407 L 216.406 166.406 216.406 168.457 L 216.406 170.508 214.355 170.508 L 212.305 170.508 212.305 172.461 L 212.305 174.414 210.449 174.414 L 208.594 174.414 208.594 194.238 L 208.594 214.063 214.453 214.063 L 220.313 214.063 220.313 210.059 L 220.313 206.055 226.265 206.055 L 232.218 206.055 232.271 210.010 L 232.324 213.965 238.232 214.017 L 244.141 214.068 244.141 188.284 L 244.141 162.500 234.167 162.500 L 224.193 162.500 224.255 164.454 M279.723 164.454 L 279.785 166.407 277.783 166.407 L 275.781 166.406 275.781 168.359 L 275.781 170.313 273.835 170.313 L 271.889 170.313 271.833 172.314 L 271.777 174.316 269.775 174.372 L 267.773 174.428 267.773 176.374 L 267.773 178.320 265.918 178.320 L 264.063 178.320 264.063 192.188 L 264.063 206.055 267.965 206.055 L 271.867 206.055 271.920 210.010 L 271.973 213.965 285.793 214.015 L 299.613 214.065 299.562 204.152 L 299.512 194.238 293.604 194.186 L 287.695 194.135 287.695 198.142 L 287.695 202.148 281.738 202.148 L 275.781 202.148 275.781 188.281 L 275.781 174.414 281.738 174.414 L 287.695 174.414 287.695 178.320 L 287.695 182.227 293.652 182.227 L 299.609 182.227 299.609 172.363 L 299.609 162.500 289.635 162.500 L 279.662 162.500 279.723 164.454 M232.227 182.324 L 232.227 194.141 226.270 194.141 L 220.313 194.141 220.313 182.324 L 220.313 170.508 226.270 170.508 L 232.227 170.508 232.227 182.324 M97.656 208.108 L 97.656 214.068 103.564 214.017 L 109.473 213.965 109.524 208.057 L 109.576 202.148 103.616 202.148 L 97.656 202.148 97.656 208.108 M251.953 204.102 L 251.953 206.055 250.000 206.055 L 248.047 206.055 248.047 207.098 C 248.047 207.672,248.105 209.473,248.175 211.102 L 248.303 214.063 254.132 214.063 L 259.961 214.063 259.961 208.105 L 259.961 202.148 255.957 202.148 L 251.953 202.148 251.953 204.102 " stroke="none" fill="#edc63d" fill-rule="evenodd"></path><path id="path1" d="M0.000 200.000 L 0.000 400.000 200.000 400.000 L 400.000 400.000 400.000 200.000 L 400.000 0.000 200.000 0.000 L 0.000 0.000 0.000 200.000 M109.570 180.371 L 109.570 198.242 103.644 198.242 L 97.717 198.242 97.589 195.281 C 97.519 193.653,97.461 185.611,97.461 177.410 L 97.461 162.500 103.516 162.500 L 109.570 162.500 109.570 180.371 M125.391 166.406 L 125.391 170.313 129.395 170.313 L 133.398 170.313 133.398 174.316 L 133.398 178.320 135.254 178.320 L 137.109 178.320 137.109 174.316 L 137.109 170.313 141.113 170.313 L 145.117 170.313 145.117 166.406 L 145.117 162.500 151.074 162.500 L 157.031 162.500 157.031 188.281 L 157.031 214.063 151.074 214.063 L 145.117 214.063 145.117 198.242 L 145.117 182.422 143.164 182.422 L 141.211 182.422 141.211 194.331 L 141.211 206.241 135.303 206.130 L 129.395 206.019 129.344 194.220 L 129.294 182.422 127.342 182.422 L 125.391 182.422 125.391 198.242 L 125.391 214.063 119.464 214.063 L 113.538 214.063 113.410 210.986 C 113.340 209.294,113.282 197.693,113.282 185.205 L 113.281 162.500 119.336 162.500 L 125.391 162.500 125.391 166.406 M172.949 166.455 L 172.949 170.313 176.904 170.313 L 180.859 170.313 180.859 174.316 L 180.859 178.320 182.715 178.320 L 184.570 178.320 184.570 174.316 L 184.570 170.313 188.574 170.313 L 192.578 170.313 192.578 166.406 L 192.578 162.500 198.633 162.500 L 204.688 162.500 204.688 188.281 L 204.688 214.063 198.633 214.063 L 192.578 214.063 192.578 198.242 L 192.578 182.422 190.724 182.422 L 188.870 182.422 188.820 194.287 L 188.770 206.152 182.813 206.088 L 176.855 206.024 176.805 194.223 L 176.755 182.422 174.852 182.422 L 172.949 182.422 172.949 198.193 L 172.949 213.965 166.943 214.016 L 160.938 214.068 160.938 188.281 L 160.938 162.494 166.943 162.546 L 172.949 162.598 172.949 166.455 M244.336 188.281 L 244.336 214.063 238.285 214.063 L 232.235 214.063 232.182 210.107 L 232.129 206.152 226.318 206.101 L 220.508 206.049 220.508 210.056 L 220.508 214.063 214.453 214.063 L 208.398 214.063 208.398 192.188 L 208.398 170.313 212.413 170.313 L 216.429 170.313 216.405 168.408 C 216.392 167.361,216.387 165.603,216.394 164.502 L 216.406 162.500 230.371 162.500 L 244.336 162.500 244.336 188.281 M299.632 172.461 L 299.633 182.324 293.664 182.376 L 287.695 182.428 287.695 178.421 L 287.695 174.414 281.836 174.414 L 275.977 174.414 275.977 188.184 L 275.977 201.953 281.836 201.953 L 287.695 201.953 287.695 198.044 L 287.695 194.135 293.665 194.187 L 299.634 194.238 299.634 204.102 L 299.634 213.965 285.758 214.015 L 271.883 214.065 271.830 210.109 L 271.777 206.152 267.822 206.099 L 263.867 206.047 263.867 188.180 L 263.867 170.313 267.822 170.313 L 271.777 170.313 271.721 166.405 L 271.664 162.497 285.647 162.548 L 299.631 162.598 299.632 172.461 M220.508 182.324 L 220.508 194.141 226.367 194.141 L 232.227 194.141 232.227 182.324 L 232.227 170.508 226.367 170.508 L 220.508 170.508 220.508 182.324 M109.570 208.008 L 109.570 214.063 103.644 214.063 L 97.717 214.063 97.589 211.102 C 97.423 207.271,97.424 202.250,97.591 202.083 C 97.663 202.012,100.387 201.953,103.646 201.953 L 109.570 201.953 109.570 208.008 M260.110 208.057 L 260.162 214.063 254.104 214.063 L 248.047 214.063 248.047 208.005 L 248.047 201.947 254.053 201.999 L 260.059 202.051 260.110 208.057 M240.234 233.422 C 240.234 233.582,240.304 233.584,240.494 233.426 C 240.929 233.065,242.743 233.755,242.479 234.181 C 242.428 234.265,242.516 234.384,242.677 234.446 C 243.041 234.586,243.083 235.930,242.725 235.953 C 242.576 235.962,242.563 236.003,242.690 236.055 C 242.838 236.117,242.842 236.462,242.707 237.212 L 242.513 238.281 241.569 238.281 C 241.050 238.281,240.559 238.284,240.479 238.287 C 240.183 238.300,240.223 237.344,240.531 237.036 C 240.705 236.862,240.752 236.719,240.635 236.719 C 240.508 236.719,240.470 236.530,240.539 236.252 C 240.604 235.995,240.560 235.725,240.442 235.652 C 240.324 235.579,240.275 235.444,240.332 235.351 C 240.390 235.258,240.092 235.330,239.670 235.510 C 239.248 235.690,238.943 235.902,238.992 235.982 C 239.194 236.309,238.815 237.500,238.504 237.515 C 238.301 237.525,238.273 237.567,238.428 237.629 C 238.562 237.684,238.672 237.852,238.672 238.005 C 238.672 238.157,238.562 238.287,238.428 238.294 C 238.293 238.300,238.382 238.386,238.625 238.483 C 238.867 238.581,239.159 238.864,239.272 239.114 C 239.386 239.363,239.671 239.654,239.905 239.761 C 240.140 239.868,240.310 240.062,240.283 240.193 C 240.256 240.323,240.363 240.430,240.520 240.430 C 240.857 240.430,241.281 241.134,241.111 241.410 C 241.046 241.515,241.086 241.602,241.199 241.602 C 241.494 241.602,241.457 242.575,241.162 242.594 C 240.967 242.606,240.967 242.629,241.162 242.707 C 241.458 242.827,241.490 243.555,241.199 243.555 C 241.086 243.555,241.046 243.641,241.111 243.747 C 241.336 244.110,240.987 245.312,240.652 245.328 C 240.450 245.338,240.422 245.379,240.576 245.442 C 240.926 245.583,240.877 246.029,240.479 246.327 C 240.291 246.467,240.137 246.704,240.137 246.854 C 240.137 247.003,239.889 247.311,239.585 247.538 C 238.964 248.002,239.913 247.980,212.305 248.156 C 205.161 248.201,198.191 248.249,196.815 248.262 C 195.439 248.274,194.281 248.252,194.241 248.212 C 194.201 248.172,193.261 248.195,192.152 248.262 C 190.627 248.356,161.878 248.528,160.596 248.452 C 160.461 248.444,160.242 248.446,160.107 248.457 C 159.973 248.467,154.282 248.506,147.461 248.544 C 140.640 248.581,134.331 248.629,133.443 248.650 C 132.554 248.671,131.792 248.654,131.749 248.611 C 131.706 248.568,130.724 248.614,129.567 248.714 C 128.108 248.841,127.443 248.833,127.395 248.689 C 127.351 248.556,127.083 248.538,126.643 248.637 C 126.267 248.722,119.852 248.796,112.389 248.801 C 104.925 248.807,98.738 248.860,98.641 248.921 C 98.163 249.216,98.313 248.609,98.804 248.259 C 99.116 248.037,99.670 247.556,100.037 247.190 L 100.703 246.524 115.341 246.490 C 144.872 246.420,165.944 246.300,166.943 246.197 C 167.507 246.138,167.969 246.170,167.969 246.267 C 167.969 246.368,168.266 246.376,168.671 246.285 C 169.057 246.198,176.162 246.124,184.460 246.122 C 192.758 246.119,199.781 246.058,200.067 245.986 C 200.353 245.914,200.586 245.938,200.586 246.040 C 200.586 246.150,201.018 246.165,201.668 246.077 C 202.263 245.996,209.671 245.927,218.131 245.924 C 226.590 245.921,233.653 245.863,233.826 245.797 C 233.999 245.731,234.190 245.757,234.251 245.855 C 234.314 245.958,234.757 245.969,235.296 245.880 C 235.810 245.796,236.727 245.721,237.334 245.715 C 238.381 245.704,238.449 245.673,238.643 245.117 C 238.755 244.795,238.961 244.530,239.101 244.528 C 239.297 244.526,239.292 244.485,239.083 244.353 C 238.908 244.242,238.863 244.051,238.958 243.819 C 239.144 243.365,239.202 242.209,239.037 242.252 C 238.713 242.339,237.864 241.152,238.119 240.970 C 238.307 240.835,238.277 240.817,238.009 240.904 C 237.534 241.059,236.779 240.441,237.154 240.203 C 237.340 240.084,237.325 240.044,237.092 240.042 C 236.921 240.040,236.679 239.815,236.555 239.542 C 236.255 238.883,236.258 238.870,236.768 238.848 C 237.204 238.828,237.204 238.827,236.788 238.701 C 236.346 238.567,236.274 237.095,236.703 236.952 C 236.807 236.917,236.845 236.767,236.788 236.618 C 236.731 236.469,236.754 236.234,236.839 236.097 C 236.924 235.959,237.004 235.699,237.017 235.519 C 237.080 234.665,238.157 233.667,239.312 233.393 C 240.211 233.179,240.234 233.180,240.234 233.422 M296.289 233.359 C 296.289 233.445,296.575 233.483,296.924 233.444 C 298.324 233.287,298.449 233.872,297.158 234.538 C 296.519 234.868,296.065 235.142,296.149 235.147 C 296.233 235.152,296.742 234.933,297.279 234.661 C 297.817 234.389,298.335 234.214,298.430 234.273 C 298.688 234.432,298.880 235.501,298.701 235.786 C 298.615 235.923,298.570 236.186,298.600 236.369 C 298.630 236.553,298.566 236.870,298.457 237.073 C 298.349 237.276,298.206 237.912,298.140 238.487 C 298.074 239.062,297.978 239.601,297.927 239.684 C 297.848 239.813,297.570 241.076,297.162 243.164 C 297.109 243.433,297.011 243.872,296.942 244.141 C 296.874 244.409,296.802 244.761,296.782 244.922 C 296.707 245.517,296.452 246.094,296.264 246.094 C 296.158 246.094,296.129 246.188,296.200 246.304 C 296.377 246.590,295.549 247.452,294.782 247.779 C 294.013 248.107,292.494 248.145,292.688 247.832 C 292.784 247.676,292.711 247.676,292.419 247.832 C 291.884 248.119,291.904 248.124,291.244 247.510 C 290.521 246.836,290.282 245.879,290.726 245.434 C 290.901 245.260,290.952 245.117,290.839 245.117 C 290.600 245.117,290.793 243.883,291.048 243.782 C 291.139 243.746,291.169 243.645,291.115 243.557 C 291.061 243.470,291.192 242.545,291.407 241.502 C 291.621 240.459,291.797 239.571,291.797 239.529 C 291.797 239.487,291.951 239.447,292.139 239.439 C 292.430 239.428,292.422 239.402,292.090 239.265 C 291.720 239.113,291.718 239.097,292.057 238.959 C 292.259 238.876,292.329 238.760,292.218 238.691 C 291.926 238.510,292.513 235.895,292.913 235.596 C 293.104 235.452,293.141 235.352,293.001 235.352 C 292.634 235.352,293.243 234.301,293.834 233.913 C 294.555 233.441,296.289 233.050,296.289 233.359 M250.308 233.590 C 251.191 233.391,251.159 233.495,249.958 234.711 C 248.599 236.087,247.723 235.922,248.842 234.500 C 249.144 234.116,249.168 234.016,248.939 234.104 C 248.544 234.255,248.549 234.096,248.952 233.693 C 249.152 233.493,249.341 233.442,249.456 233.557 C 249.560 233.662,249.928 233.676,250.308 233.590 M254.785 234.544 C 254.612 235.701,254.559 235.774,253.936 235.734 C 252.640 235.651,252.571 235.692,252.431 236.623 C 252.358 237.108,252.219 237.554,252.123 237.614 C 252.026 237.673,251.997 237.803,252.058 237.903 C 252.119 238.002,252.036 238.589,251.872 239.207 C 251.709 239.826,251.478 240.836,251.360 241.452 C 251.242 242.067,251.072 242.617,250.982 242.673 C 250.892 242.728,250.864 242.948,250.919 243.161 C 250.975 243.374,250.953 243.704,250.871 243.894 C 250.789 244.083,250.710 244.326,250.696 244.434 C 250.608 245.120,250.327 246.417,250.232 246.577 C 250.169 246.682,250.113 246.989,250.108 247.261 C 250.098 247.727,250.037 247.755,248.966 247.778 L 247.835 247.802 247.966 246.899 C 248.038 246.402,248.145 245.913,248.205 245.811 C 248.265 245.709,248.332 245.445,248.355 245.225 C 248.486 243.965,248.812 242.708,249.046 242.560 C 249.196 242.465,249.220 242.387,249.099 242.386 C 248.874 242.383,248.967 241.407,249.193 241.406 C 249.261 241.405,249.320 241.060,249.325 240.639 C 249.331 240.136,249.467 239.751,249.720 239.517 C 249.932 239.321,250.021 239.226,249.916 239.307 C 249.253 239.819,249.448 238.819,250.173 237.991 C 250.648 237.449,250.651 237.436,250.213 237.796 L 249.743 238.184 249.869 237.695 C 249.938 237.427,249.996 237.100,249.997 236.970 C 249.999 236.839,250.282 236.400,250.628 235.993 C 251.150 235.377,251.167 235.333,250.725 235.727 C 250.434 235.988,250.195 236.098,250.195 235.972 C 250.195 235.845,250.020 235.742,249.805 235.742 C 249.235 235.742,249.311 235.567,250.334 234.528 C 251.019 233.833,251.402 233.594,251.830 233.594 L 252.404 233.594 252.034 234.033 L 251.663 234.473 252.150 234.053 C 252.717 233.564,253.118 233.467,254.162 233.566 L 254.920 233.638 254.785 234.544 M273.612 233.931 C 273.364 234.247,273.370 234.253,273.685 234.006 C 274.061 233.711,275.586 233.370,275.586 233.581 C 275.586 233.652,275.476 233.836,275.342 233.989 C 275.208 234.142,275.280 234.116,275.504 233.930 C 276.287 233.281,277.880 233.613,277.331 234.311 C 277.072 234.641,277.078 234.647,277.407 234.388 C 277.974 233.942,278.405 234.796,277.881 235.324 C 277.685 235.521,277.704 235.544,277.979 235.440 C 278.400 235.280,278.410 235.504,278.048 236.922 C 277.898 237.508,277.714 238.362,277.640 238.818 C 277.566 239.275,277.419 239.648,277.315 239.648 C 277.211 239.648,277.180 239.737,277.247 239.845 C 277.369 240.042,276.821 243.088,276.598 243.457 C 276.533 243.564,276.469 243.784,276.457 243.945 C 276.444 244.106,276.419 244.425,276.401 244.654 C 276.380 244.916,276.148 245.161,275.775 245.315 C 275.449 245.450,275.222 245.600,275.270 245.648 C 275.318 245.696,275.540 245.637,275.765 245.517 C 276.303 245.229,276.307 245.576,275.775 246.449 C 275.138 247.494,274.057 247.854,271.630 247.828 L 269.583 247.807 269.763 247.004 C 269.862 246.562,270.005 246.155,270.079 246.099 C 270.154 246.042,270.243 245.558,270.278 245.022 C 270.313 244.486,270.422 243.951,270.521 243.832 C 270.619 243.713,270.651 243.567,270.591 243.508 C 270.404 243.321,270.901 241.797,271.150 241.794 C 271.324 241.792,271.320 241.749,271.136 241.632 C 270.774 241.402,271.024 240.925,271.638 240.673 L 272.168 240.456 271.631 240.562 C 270.974 240.691,270.934 240.399,271.533 239.839 C 271.858 239.536,271.884 239.463,271.631 239.560 C 271.268 239.698,271.149 239.367,271.488 239.158 C 271.597 239.091,271.645 238.969,271.595 238.888 C 271.415 238.597,272.025 236.524,272.390 236.186 C 272.595 235.995,272.677 235.906,272.572 235.986 C 272.095 236.355,272.000 235.615,272.429 234.868 C 272.489 234.763,272.543 234.457,272.548 234.187 C 272.556 233.801,272.683 233.673,273.145 233.584 C 273.879 233.443,273.952 233.497,273.612 233.931 M285.298 234.126 C 284.735 234.689,284.460 234.640,284.659 234.011 C 284.728 233.795,284.978 233.587,285.214 233.550 C 285.857 233.447,285.872 233.553,285.298 234.126 M262.695 233.709 C 262.695 233.772,262.537 233.970,262.344 234.148 C 262.151 234.327,262.109 234.394,262.251 234.298 C 262.647 234.031,262.671 234.195,262.388 235.254 C 262.244 235.791,262.123 236.431,262.118 236.676 C 262.113 236.951,261.941 237.190,261.670 237.299 C 261.333 237.434,261.310 237.478,261.572 237.488 C 261.932 237.501,262.064 238.086,261.707 238.086 C 261.593 238.086,261.558 238.179,261.628 238.292 C 261.844 238.641,261.536 239.452,261.178 239.476 C 260.891 239.495,260.887 239.511,261.153 239.582 C 261.480 239.670,261.446 240.625,261.116 240.625 C 261.025 240.625,261.000 240.757,261.062 240.918 C 261.124 241.079,261.110 241.365,261.031 241.553 C 260.952 241.741,260.867 242.070,260.843 242.285 C 260.731 243.271,260.506 244.046,260.292 244.181 C 260.122 244.289,260.120 244.331,260.284 244.333 C 260.593 244.337,260.371 245.122,260.024 245.255 C 259.723 245.371,260.568 245.898,261.053 245.898 C 261.408 245.898,261.978 245.003,262.005 244.403 C 262.016 244.139,262.154 243.841,262.312 243.742 C 262.506 243.618,262.520 243.560,262.354 243.558 C 262.019 243.554,262.047 243.254,262.416 242.885 C 262.585 242.716,262.641 242.578,262.541 242.578 C 262.441 242.578,262.401 242.358,262.452 242.090 C 262.504 241.821,262.628 241.602,262.730 241.602 C 262.831 241.602,262.856 241.509,262.786 241.395 C 262.636 241.152,263.303 237.695,263.500 237.695 C 263.574 237.695,263.589 237.520,263.533 237.305 C 263.477 237.090,263.507 236.914,263.600 236.914 C 263.693 236.914,263.781 236.672,263.795 236.377 C 263.827 235.725,264.034 234.403,264.179 233.936 C 264.264 233.660,264.510 233.594,265.456 233.594 C 266.481 233.594,266.615 233.636,266.524 233.936 C 266.467 234.124,266.334 234.671,266.229 235.153 C 266.123 235.634,265.934 236.062,265.809 236.104 C 265.648 236.158,265.659 236.231,265.847 236.352 C 266.016 236.461,266.042 236.577,265.918 236.670 C 265.811 236.750,265.697 237.212,265.665 237.694 C 265.633 238.177,265.530 238.650,265.436 238.744 C 265.342 238.838,265.311 239.035,265.368 239.182 C 265.424 239.329,265.322 239.507,265.141 239.576 C 264.917 239.662,264.883 239.747,265.034 239.841 C 265.411 240.074,265.056 241.012,264.578 241.042 C 264.173 241.068,264.172 241.071,264.562 241.149 C 265.068 241.249,264.786 242.966,264.262 242.972 C 264.026 242.974,264.018 243.008,264.224 243.139 C 264.541 243.340,264.170 245.568,263.751 245.987 C 263.610 246.128,263.550 246.297,263.617 246.364 C 264.166 246.913,261.949 248.044,260.368 248.022 C 258.772 247.999,257.153 246.633,258.049 246.064 C 258.253 245.935,258.252 245.904,258.043 245.901 C 257.744 245.898,257.925 245.109,258.278 244.876 C 258.437 244.771,258.438 244.732,258.279 244.730 C 258.153 244.728,258.101 244.521,258.155 244.238 C 258.207 243.970,258.304 243.750,258.372 243.750 C 258.440 243.750,258.508 243.508,258.524 243.213 C 258.539 242.917,258.599 242.456,258.658 242.188 C 258.717 241.919,258.817 241.357,258.880 240.940 C 258.943 240.522,259.056 240.083,259.131 239.963 C 259.206 239.844,259.242 239.592,259.211 239.404 C 259.180 239.216,259.236 239.063,259.336 239.063 C 259.435 239.063,259.474 238.843,259.423 238.574 C 259.370 238.296,259.421 238.086,259.541 238.086 C 259.658 238.086,259.706 237.963,259.649 237.813 C 259.591 237.664,259.652 237.158,259.783 236.690 C 259.915 236.223,260.038 235.708,260.058 235.547 C 260.078 235.386,260.160 234.880,260.240 234.424 L 260.386 233.594 261.541 233.594 C 262.176 233.594,262.695 233.646,262.695 233.709 M286.987 234.131 C 286.915 234.426,286.782 234.871,286.690 235.120 C 286.598 235.369,286.523 235.785,286.523 236.045 C 286.523 236.495,284.323 237.904,284.049 237.629 C 283.691 237.272,284.486 235.080,285.233 234.365 C 286.247 233.395,287.196 233.268,286.987 234.131 M274.316 234.685 L 273.730 235.189 274.365 234.768 C 274.714 234.537,275.000 234.310,275.000 234.264 C 275.000 234.118,274.917 234.169,274.316 234.685 M295.123 235.544 C 294.762 235.731,294.562 235.918,294.679 235.959 C 295.043 236.090,294.481 238.125,294.032 238.301 C 293.702 238.430,293.697 238.451,293.994 238.463 C 294.182 238.470,294.336 238.564,294.336 238.672 C 294.336 238.779,294.182 238.869,293.994 238.870 C 293.715 238.873,293.703 238.905,293.931 239.050 C 294.167 239.199,294.172 239.402,293.966 240.365 C 293.603 242.061,293.565 242.155,293.204 242.250 C 292.915 242.326,292.919 242.340,293.234 242.360 C 293.497 242.377,293.560 242.476,293.461 242.725 C 293.387 242.913,293.291 243.330,293.248 243.652 C 293.205 243.975,293.020 244.348,292.837 244.482 C 292.654 244.617,292.608 244.727,292.736 244.727 C 292.864 244.727,292.969 244.949,292.969 245.221 C 292.969 245.493,293.100 245.766,293.261 245.827 C 293.421 245.889,293.508 246.011,293.455 246.098 C 293.401 246.185,293.625 246.155,293.952 246.031 C 294.280 245.908,294.468 245.780,294.370 245.747 C 294.271 245.714,294.307 245.364,294.451 244.963 C 294.593 244.564,294.713 244.038,294.718 243.793 C 294.723 243.548,294.866 243.294,295.036 243.228 C 295.249 243.147,295.276 243.067,295.122 242.972 C 294.809 242.779,295.079 241.838,295.477 241.733 C 295.767 241.656,295.765 241.644,295.464 241.624 C 295.198 241.606,295.162 241.509,295.291 241.162 C 295.381 240.920,295.517 240.300,295.593 239.784 C 295.696 239.076,295.835 238.802,296.156 238.673 C 296.473 238.545,296.497 238.498,296.253 238.489 C 295.830 238.473,295.982 237.139,296.448 236.768 C 296.633 236.620,296.662 236.523,296.522 236.523 C 296.394 236.523,296.289 236.341,296.289 236.119 C 296.289 235.371,295.863 235.161,295.123 235.544 M274.315 236.377 C 274.099 237.311,274.086 237.375,274.053 237.695 C 274.036 237.856,273.628 238.238,273.145 238.543 C 272.662 238.848,272.209 239.191,272.139 239.305 C 272.068 239.420,272.413 239.236,272.905 238.897 C 274.014 238.135,274.041 238.135,273.803 238.916 C 273.696 239.265,273.579 239.727,273.542 239.941 C 273.261 241.565,273.007 242.483,272.800 242.614 C 272.643 242.714,272.635 242.769,272.777 242.770 C 273.053 242.774,272.573 244.982,272.274 245.082 C 271.959 245.187,272.578 245.703,273.019 245.703 C 273.473 245.703,274.023 245.214,274.023 244.810 C 274.023 244.657,274.089 244.531,274.170 244.531 C 274.250 244.531,274.331 244.290,274.349 243.994 C 274.381 243.449,274.419 243.238,274.795 241.504 C 274.912 240.967,275.038 240.352,275.075 240.137 C 275.422 238.154,275.690 237.149,275.955 236.832 C 276.128 236.625,276.160 236.521,276.025 236.599 C 275.856 236.698,275.781 236.588,275.781 236.242 C 275.781 235.396,274.516 235.512,274.315 236.377 M286.328 237.178 C 286.328 237.323,286.251 237.697,286.157 238.008 C 285.992 238.554,285.703 239.836,285.444 241.162 C 285.367 241.560,285.199 241.805,284.994 241.820 C 284.709 241.839,284.711 241.853,285.012 241.932 C 285.201 241.981,285.304 242.106,285.241 242.209 C 285.177 242.312,285.087 242.722,285.040 243.122 C 284.984 243.602,284.775 244.002,284.421 244.304 C 283.952 244.706,283.942 244.733,284.345 244.531 C 285.114 244.146,284.691 245.363,283.715 246.343 C 282.922 247.140,282.920 247.145,283.659 246.484 L 284.425 245.801 284.295 246.661 C 284.116 247.846,284.093 247.865,282.878 247.825 L 281.801 247.790 281.935 246.893 C 282.009 246.400,282.121 245.912,282.184 245.810 C 282.247 245.707,282.327 245.365,282.362 245.049 C 282.397 244.733,282.578 244.349,282.765 244.195 C 282.952 244.042,282.982 243.980,282.831 244.059 C 282.611 244.173,282.580 244.069,282.676 243.536 C 282.951 242.014,283.039 241.696,283.204 241.638 C 283.299 241.604,283.328 241.451,283.270 241.298 C 283.211 241.145,283.310 240.358,283.490 239.549 L 283.818 238.078 284.926 237.505 C 286.201 236.847,286.328 236.817,286.328 237.178 M270.898 244.629 C 270.630 244.782,270.498 244.908,270.605 244.908 C 270.713 244.908,271.021 244.782,271.289 244.629 C 271.558 244.475,271.689 244.350,271.582 244.350 C 271.475 244.350,271.167 244.475,270.898 244.629 M239.355 245.703 C 239.109 245.809,239.073 245.871,239.258 245.871 C 239.419 245.871,239.727 245.795,239.941 245.703 C 240.188 245.597,240.224 245.535,240.039 245.535 C 239.878 245.535,239.570 245.611,239.355 245.703 " stroke="none" fill="#131b1c" fill-rule="evenodd"></path><path id="path2" d="M97.656 166.406 L 97.656 170.313 99.609 170.313 L 101.563 170.313 101.563 168.359 L 101.563 166.406 103.516 166.406 L 105.469 166.406 105.469 164.453 L 105.469 162.500 101.563 162.500 L 97.656 162.500 97.656 166.406 M113.477 166.374 C 113.477 170.935,113.215 170.424,115.510 170.348 L 117.383 170.286 117.383 168.346 L 117.383 166.406 119.336 166.406 L 121.289 166.406 121.289 164.453 L 121.289 162.500 117.383 162.500 L 113.477 162.500 113.477 166.374 M145.117 164.453 L 145.117 166.406 147.070 166.406 L 149.023 166.406 149.023 164.453 L 149.023 162.500 147.070 162.500 L 145.117 162.500 145.117 164.453 M160.982 166.422 L 161.035 170.343 162.940 170.377 L 164.844 170.410 164.844 168.408 L 164.844 166.406 166.797 166.406 L 168.750 166.406 168.750 164.453 L 168.750 162.500 164.840 162.500 L 160.929 162.500 160.982 166.422 M192.715 162.624 C 192.640 162.699,192.578 163.581,192.578 164.583 L 192.578 166.406 194.580 166.406 L 196.582 166.406 196.549 164.502 L 196.516 162.598 194.684 162.542 C 193.676 162.512,192.790 162.548,192.715 162.624 M216.406 164.453 L 216.406 166.406 220.361 166.407 L 224.316 166.407 224.255 164.454 L 224.193 162.500 220.300 162.500 L 216.406 162.500 216.406 164.453 M271.875 166.406 L 271.875 170.313 273.828 170.313 L 275.781 170.313 275.781 168.359 L 275.781 166.406 277.783 166.407 L 279.785 166.407 279.723 164.454 L 279.662 162.500 275.768 162.500 L 271.875 162.500 271.875 166.406 M208.594 172.461 L 208.594 174.414 210.449 174.414 L 212.305 174.414 212.305 172.461 L 212.305 170.508 210.449 170.508 L 208.594 170.508 208.594 172.461 M264.063 174.414 L 264.063 178.320 265.918 178.320 L 267.773 178.320 267.773 176.374 L 267.773 174.428 269.775 174.372 L 271.777 174.316 271.833 172.412 L 271.889 170.508 267.976 170.508 L 264.063 170.508 264.063 174.414 M248.047 204.102 L 248.047 206.055 250.000 206.055 L 251.953 206.055 251.953 204.102 L 251.953 202.148 250.000 202.148 L 248.047 202.148 248.047 204.102 M238.936 233.612 C 238.598 233.710,238.048 234.100,237.715 234.480 C 237.103 235.177,236.904 235.695,237.354 235.422 C 237.621 235.259,239.891 233.606,240.023 233.478 C 240.153 233.351,239.602 233.419,238.936 233.612 M238.789 234.781 C 235.955 236.871,236.136 236.984,239.735 235.375 C 242.484 234.146,242.718 233.944,241.777 233.616 C 240.832 233.287,240.800 233.299,238.789 234.781 M294.400 233.777 C 293.693 234.098,292.772 235.049,292.991 235.231 C 293.033 235.266,293.770 234.868,294.629 234.347 C 296.270 233.352,296.126 232.994,294.400 233.777 M294.846 234.550 C 293.784 235.187,292.841 235.826,292.750 235.969 C 292.260 236.742,292.798 236.611,295.338 235.339 C 296.892 234.560,298.022 233.883,297.926 233.789 C 297.376 233.252,296.753 233.407,294.846 234.550 M249.257 234.238 C 248.623 234.892,248.433 235.547,248.877 235.547 C 249.011 235.547,249.500 235.107,249.962 234.570 C 250.992 233.374,250.376 233.083,249.257 234.238 M250.410 234.570 C 249.693 235.420,249.638 235.547,249.988 235.547 C 250.210 235.547,250.391 235.638,250.391 235.750 C 250.391 235.861,250.786 235.467,251.270 234.874 C 252.288 233.623,252.298 233.594,251.691 233.594 C 251.381 233.594,250.966 233.911,250.410 234.570 M251.446 235.124 C 249.380 237.767,249.488 238.495,251.574 235.986 C 252.356 235.046,253.126 234.124,253.286 233.936 C 253.550 233.624,253.534 233.594,253.106 233.597 C 252.754 233.600,252.339 233.981,251.446 235.124 M251.931 236.043 C 249.224 239.316,248.978 239.917,250.976 238.380 C 251.823 237.728,252.150 237.337,252.245 236.866 C 252.478 235.710,252.562 235.547,252.926 235.547 C 253.215 235.547,254.297 234.063,254.297 233.667 C 254.297 233.313,253.660 233.953,251.931 236.043 M254.209 234.551 C 253.744 235.468,253.733 235.547,254.065 235.547 C 254.336 235.547,254.479 235.315,254.639 234.619 C 254.923 233.376,254.813 233.359,254.209 234.551 M260.366 234.496 C 260.066 235.686,260.087 235.689,261.489 234.647 C 262.949 233.562,262.944 233.594,261.644 233.594 L 260.593 233.594 260.366 234.496 M264.393 233.740 C 264.284 233.931,264.027 235.352,264.102 235.349 C 265.153 235.311,266.398 234.546,266.403 233.936 C 266.406 233.580,264.585 233.403,264.393 233.740 M272.608 234.082 C 272.557 234.351,272.530 234.570,272.548 234.570 C 272.566 234.570,272.878 234.351,273.242 234.082 L 273.904 233.594 273.303 233.594 C 272.817 233.594,272.684 233.687,272.608 234.082 M273.398 234.303 C 272.557 234.927,272.082 235.624,272.330 235.871 C 272.423 235.964,275.391 233.828,275.391 233.668 C 275.391 233.352,274.145 233.749,273.398 234.303 M274.130 235.046 C 272.132 236.540,272.029 236.669,271.791 237.969 L 271.651 238.732 272.880 237.749 C 273.716 237.080,274.160 236.571,274.267 236.157 C 274.402 235.635,274.516 235.546,275.054 235.541 C 275.678 235.535,277.587 234.163,277.329 233.905 C 276.781 233.357,276.031 233.624,274.130 235.046 M284.833 233.895 C 284.651 234.369,284.864 234.415,285.253 233.986 C 285.576 233.628,285.579 233.594,285.278 233.594 C 285.097 233.594,284.897 233.729,284.833 233.895 M285.412 234.271 C 284.749 234.838,283.918 236.523,284.301 236.523 C 284.450 236.523,286.523 235.315,286.595 235.186 C 287.384 233.787,286.645 233.215,285.412 234.271 M297.193 234.801 C 296.345 235.231,296.103 235.439,296.265 235.601 C 296.386 235.722,296.484 235.967,296.484 236.146 C 296.484 236.449,296.559 236.450,297.558 236.156 C 298.552 235.863,298.632 235.796,298.629 235.254 C 298.625 234.229,298.439 234.170,297.193 234.801 M241.588 234.879 C 240.595 235.332,240.030 236.523,240.808 236.523 C 241.832 236.523,242.773 235.860,242.773 235.138 C 242.773 234.718,242.751 234.377,242.725 234.379 C 242.698 234.381,242.186 234.606,241.588 234.879 M261.167 235.275 C 259.532 236.490,259.515 236.693,261.090 236.225 C 261.990 235.958,262.114 235.853,262.292 235.211 C 262.557 234.249,262.547 234.249,261.167 235.275 M276.709 235.017 C 275.431 236.112,275.697 236.713,277.059 235.809 C 277.761 235.343,278.104 234.993,278.036 234.814 C 277.977 234.662,277.930 234.502,277.930 234.457 C 277.930 234.203,277.347 234.470,276.709 235.017 M264.795 235.481 C 264.088 235.697,263.867 235.859,263.867 236.160 C 263.867 236.815,265.884 236.267,266.068 235.562 C 266.191 235.093,266.084 235.086,264.795 235.481 M277.051 236.153 C 276.621 236.480,276.164 236.808,276.035 236.882 C 275.906 236.956,275.741 237.390,275.668 237.847 L 275.535 238.677 276.586 238.195 C 277.661 237.702,278.086 237.087,278.114 235.986 C 278.128 235.415,277.991 235.437,277.051 236.153 M285.449 236.268 C 284.514 236.736,283.984 237.196,283.984 237.540 C 283.984 237.816,286.272 236.561,286.406 236.212 C 286.592 235.728,286.522 235.732,285.449 236.268 M237.661 236.627 C 236.195 237.390,236.083 238.330,237.524 237.770 C 238.632 237.340,238.805 237.196,238.916 236.615 C 239.031 236.016,238.830 236.018,237.661 236.627 M293.408 236.673 C 292.516 237.123,291.891 237.926,292.664 237.629 C 292.818 237.570,293.301 237.425,293.738 237.308 C 294.174 237.190,294.531 237.017,294.531 236.923 C 294.531 236.828,294.585 236.612,294.650 236.442 C 294.809 236.028,294.618 236.064,293.408 236.673 M241.441 236.658 C 240.655 236.935,240.233 237.368,240.493 237.628 C 240.649 237.784,242.578 237.301,242.578 237.106 C 242.578 237.018,242.631 236.807,242.697 236.637 C 242.843 236.256,242.562 236.261,241.441 236.658 M260.693 236.674 C 259.890 236.941,259.304 237.705,259.912 237.692 C 260.583 237.679,261.807 237.110,261.940 236.751 C 262.126 236.249,261.995 236.241,260.693 236.674 M264.697 236.672 C 264.133 236.836,263.672 237.055,263.672 237.159 C 263.672 237.262,263.795 237.299,263.945 237.242 C 264.094 237.184,264.578 237.029,265.019 236.897 C 265.460 236.765,265.820 236.583,265.820 236.493 C 265.820 236.402,265.798 236.338,265.771 236.351 C 265.745 236.363,265.261 236.508,264.697 236.672 M297.190 236.587 C 296.093 236.918,295.752 237.803,296.796 237.607 C 297.996 237.382,298.438 237.144,298.438 236.724 C 298.438 236.279,298.272 236.261,297.190 236.587 M264.320 237.430 C 263.551 237.702,262.977 238.628,263.348 238.999 C 263.556 239.207,265.430 238.831,265.430 238.580 C 265.430 238.443,265.485 238.055,265.552 237.720 C 265.693 237.016,265.570 236.987,264.320 237.430 M284.903 237.615 C 283.377 238.409,283.351 239.039,284.862 238.584 C 285.839 238.290,286.125 238.035,286.130 237.451 C 286.134 237.013,286.034 237.027,284.903 237.615 M272.689 238.301 C 272.012 238.849,271.501 239.340,271.554 239.392 C 271.724 239.563,274.023 237.885,274.023 237.590 C 274.023 237.206,274.079 237.176,272.689 238.301 M260.596 237.834 C 259.957 238.022,259.570 238.245,259.570 238.425 C 259.570 238.592,259.685 238.670,259.843 238.609 C 259.993 238.552,260.476 238.396,260.917 238.264 C 261.358 238.132,261.719 237.906,261.719 237.762 C 261.719 237.618,261.697 237.507,261.670 237.516 C 261.643 237.524,261.160 237.668,260.596 237.834 M293.115 237.825 C 292.200 238.105,291.864 238.478,292.529 238.475 C 293.251 238.473,294.336 238.058,294.336 237.784 C 294.336 237.453,294.329 237.453,293.115 237.825 M237.988 237.901 C 237.773 237.999,237.344 238.171,237.033 238.284 C 236.160 238.599,236.524 238.681,237.591 238.409 C 238.117 238.275,238.583 238.059,238.626 237.930 C 238.717 237.658,238.536 237.650,237.988 237.901 M241.125 237.915 C 239.992 238.180,240.034 238.281,241.276 238.281 C 242.130 238.281,242.383 238.214,242.383 237.988 C 242.383 237.662,242.239 237.654,241.125 237.915 M296.826 237.930 C 295.821 238.197,295.899 238.462,296.924 238.264 C 297.380 238.175,297.864 238.099,297.998 238.094 C 298.132 238.090,298.242 237.998,298.242 237.891 C 298.242 237.656,297.813 237.668,296.826 237.930 M250.781 238.892 C 249.845 239.561,249.057 240.702,249.330 240.993 C 249.635 241.316,251.659 239.667,251.802 238.979 C 252.006 237.997,252.031 237.999,250.781 238.892 M276.436 238.594 C 275.712 238.937,275.395 239.212,275.304 239.578 C 275.131 240.264,275.181 240.281,276.285 239.913 C 277.460 239.520,277.347 239.623,277.536 238.785 C 277.719 237.972,277.743 237.976,276.436 238.594 M237.562 238.740 C 236.065 239.152,236.228 240.143,237.740 239.822 C 239.643 239.418,239.507 239.503,239.117 238.966 C 238.727 238.431,238.699 238.427,237.562 238.740 M260.205 238.801 C 259.009 239.225,259.074 239.716,260.303 239.538 C 261.445 239.372,261.523 239.329,261.523 238.856 C 261.523 238.412,261.327 238.404,260.205 238.801 M272.461 239.277 C 270.957 240.374,270.943 240.745,272.430 240.104 C 273.412 239.680,273.608 239.512,273.678 239.039 C 273.782 238.328,273.755 238.334,272.461 239.277 M292.920 238.716 C 292.410 238.822,291.992 238.976,291.992 239.057 C 291.992 239.139,292.366 239.133,292.822 239.045 C 293.279 238.956,293.762 238.880,293.896 238.876 C 294.031 238.871,294.141 238.779,294.141 238.672 C 294.141 238.564,294.075 238.487,293.994 238.500 C 293.914 238.512,293.430 238.610,292.920 238.716 M296.631 238.616 C 296.335 238.661,296.018 238.846,295.926 239.027 C 295.727 239.416,295.481 240.625,295.601 240.625 C 296.558 240.625,297.670 240.141,297.772 239.681 C 297.836 239.395,297.930 239.006,297.981 238.818 C 298.077 238.463,297.858 238.431,296.631 238.616 M284.547 238.989 C 283.737 239.238,282.696 241.215,283.378 241.210 C 283.958 241.206,285.647 239.850,285.760 239.298 C 285.905 238.590,285.874 238.582,284.547 238.989 M263.623 239.398 C 263.305 239.446,263.086 239.602,263.086 239.780 C 263.086 239.961,263.198 240.038,263.365 239.974 C 263.519 239.915,263.959 239.808,264.344 239.735 C 265.846 239.454,265.213 239.157,263.623 239.398 M292.486 239.428 C 291.950 239.543,291.317 240.992,291.656 241.330 C 292.116 241.791,293.702 240.936,293.888 240.127 C 294.108 239.166,293.989 239.106,292.486 239.428 M238.398 240.012 C 237.213 240.293,237.088 240.364,237.370 240.598 C 237.828 240.978,240.356 240.323,240.015 239.912 C 239.895 239.767,239.785 239.658,239.771 239.670 C 239.757 239.682,239.139 239.836,238.398 240.012 M260.284 239.867 C 259.203 240.033,259.274 239.989,259.085 240.603 C 258.952 241.033,258.982 241.059,259.474 240.935 C 259.767 240.862,260.257 240.751,260.564 240.690 C 261.808 240.441,261.546 239.672,260.284 239.867 M264.746 239.946 C 264.639 239.986,264.187 240.111,263.743 240.225 C 262.483 240.549,262.372 241.304,263.612 241.118 C 264.878 240.928,265.039 240.837,265.039 240.311 C 265.039 240.054,265.017 239.851,264.990 239.859 C 264.963 239.868,264.854 239.907,264.746 239.946 M272.119 240.580 C 270.962 241.163,270.778 241.503,271.729 241.304 C 272.704 241.099,273.328 240.754,273.401 240.379 C 273.486 239.938,273.350 239.959,272.119 240.580 M275.851 240.357 C 275.208 240.585,274.436 241.602,274.906 241.602 C 275.213 241.602,277.139 240.541,277.221 240.326 C 277.360 239.964,276.931 239.974,275.851 240.357 M250.253 240.890 C 249.310 241.460,248.886 241.920,249.105 242.139 C 249.259 242.293,251.321 241.028,251.445 240.704 C 251.687 240.074,251.577 240.091,250.253 240.890 M239.209 240.780 C 237.945 241.132,237.912 241.179,238.525 241.741 L 238.965 242.145 239.990 241.749 C 240.554 241.532,241.016 241.251,241.016 241.126 C 241.016 240.884,240.619 240.417,240.439 240.449 C 240.380 240.459,239.827 240.608,239.209 240.780 M284.326 241.073 C 283.335 241.622,282.854 242.099,283.073 242.317 C 283.346 242.591,285.323 241.516,285.413 241.045 C 285.543 240.367,285.604 240.365,284.326 241.073 M296.108 240.880 C 295.741 241.008,295.399 241.237,295.349 241.389 C 295.289 241.574,295.359 241.625,295.565 241.546 C 295.733 241.482,296.181 241.371,296.561 241.300 C 297.418 241.139,297.950 240.619,297.241 240.636 C 296.986 240.642,296.476 240.752,296.108 240.880 M259.573 241.271 C 258.855 241.516,258.417 242.324,259.113 242.119 C 259.311 242.061,259.794 241.956,260.187 241.887 C 260.659 241.803,260.935 241.634,260.999 241.388 C 261.114 240.946,260.636 240.907,259.573 241.271 M275.857 241.504 C 274.986 241.903,274.435 242.468,274.679 242.713 C 274.884 242.917,276.953 241.691,276.953 241.366 C 276.953 241.173,276.931 241.023,276.904 241.032 C 276.877 241.040,276.406 241.253,275.857 241.504 M263.672 241.448 C 262.811 241.639,262.509 241.863,262.503 242.316 C 262.501 242.483,262.767 242.472,263.508 242.277 C 264.425 242.035,264.833 241.754,264.841 241.357 C 264.844 241.189,264.838 241.189,263.672 241.448 M271.981 241.582 C 271.092 241.895,270.372 242.898,270.760 243.286 C 271.066 243.592,273.006 242.361,273.087 241.810 C 273.135 241.481,273.124 241.218,273.062 241.226 C 273.000 241.234,272.514 241.394,271.981 241.582 M250.000 242.103 C 249.065 242.683,248.214 243.986,248.804 243.935 C 249.280 243.893,251.070 242.400,251.191 241.943 C 251.368 241.277,251.322 241.283,250.000 242.103 M292.236 241.634 C 291.605 241.775,291.406 241.912,291.406 242.203 C 291.406 242.602,291.408 242.602,292.969 242.191 C 293.237 242.120,293.485 241.914,293.520 241.734 C 293.590 241.372,293.453 241.362,292.236 241.634 M296.973 241.509 C 296.865 241.548,296.404 241.677,295.947 241.794 C 294.572 242.147,294.720 242.973,296.118 242.752 C 297.272 242.570,297.174 242.635,297.340 241.943 C 297.463 241.428,297.399 241.352,296.973 241.509 M240.088 242.039 C 239.025 242.450,238.964 242.512,239.224 242.921 C 239.423 243.233,241.186 242.676,241.350 242.249 C 241.554 241.716,241.113 241.643,240.088 242.039 M284.176 242.349 C 282.996 242.785,282.875 242.880,282.765 243.454 C 282.645 244.082,282.625 244.087,283.995 243.157 C 284.885 242.552,285.543 241.872,285.107 242.007 C 285.081 242.016,284.661 242.169,284.176 242.349 M259.863 242.283 C 259.756 242.319,259.437 242.399,259.154 242.461 C 258.595 242.584,258.221 243.359,258.721 243.359 C 259.595 243.359,260.742 242.903,260.742 242.555 C 260.742 242.213,260.395 242.106,259.863 242.283 M275.584 242.739 C 274.651 243.194,273.933 244.141,274.521 244.141 C 275.280 244.141,276.564 243.407,276.673 242.911 C 276.840 242.151,276.804 242.145,275.584 242.739 M263.282 242.655 C 262.768 242.792,262.379 243.018,262.344 243.199 C 262.270 243.588,264.384 243.037,264.542 242.627 C 264.653 242.338,264.455 242.343,263.282 242.655 M293.066 242.499 C 292.959 242.531,292.498 242.653,292.041 242.770 C 290.883 243.068,290.950 243.448,292.131 243.286 C 292.637 243.217,293.130 243.081,293.227 242.984 C 293.446 242.765,293.331 242.421,293.066 242.499 M240.088 243.231 C 239.417 243.505,239.063 243.764,239.063 243.982 C 239.063 244.548,241.392 243.491,241.403 242.920 C 241.407 242.717,241.262 242.752,240.088 243.231 M249.651 243.754 C 248.794 244.296,248.438 244.641,248.438 244.930 C 248.438 245.567,250.709 244.281,250.846 243.567 C 250.975 242.894,251.023 242.886,249.651 243.754 M271.453 243.408 C 270.814 243.689,270.516 243.945,270.454 244.267 C 270.348 244.824,270.255 244.826,271.494 244.252 C 273.433 243.353,273.394 242.555,271.453 243.408 M283.649 243.711 C 282.724 244.367,282.239 245.000,282.478 245.238 C 282.546 245.307,284.557 244.245,284.689 244.071 C 284.822 243.897,284.931 242.971,284.818 242.978 C 284.736 242.984,284.210 243.313,283.649 243.711 M295.719 243.141 C 295.351 243.207,295.010 243.386,294.960 243.537 C 294.898 243.723,294.969 243.774,295.176 243.694 C 295.345 243.629,295.840 243.480,296.277 243.363 C 297.588 243.010,297.230 242.868,295.719 243.141 M263.283 243.534 C 262.357 243.816,261.620 244.531,262.256 244.531 C 262.759 244.531,264.242 243.878,264.344 243.611 C 264.512 243.174,264.475 243.171,263.283 243.534 M259.277 243.601 C 258.355 243.838,258.476 243.754,258.318 244.269 L 258.188 244.691 259.318 244.355 C 260.048 244.139,260.471 243.903,260.512 243.690 C 260.583 243.321,260.411 243.309,259.277 243.601 M291.670 243.694 C 291.085 243.768,290.832 244.117,290.823 244.861 C 290.819 245.174,292.584 244.598,292.920 244.177 C 293.413 243.558,293.251 243.496,291.670 243.694 M295.678 243.873 C 294.869 244.121,294.211 245.058,294.584 245.431 C 294.834 245.680,296.875 244.418,296.875 244.015 C 296.875 243.494,296.901 243.497,295.678 243.873 M239.900 244.268 C 239.219 244.509,238.477 245.313,238.477 245.809 C 238.477 246.327,240.954 245.004,241.065 244.428 C 241.170 243.875,241.054 243.859,239.900 244.268 M275.049 244.305 C 274.592 244.476,274.219 244.716,274.219 244.837 C 274.219 245.243,273.510 245.703,272.885 245.703 C 272.544 245.703,272.266 245.624,272.266 245.527 C 272.266 245.352,270.326 246.002,270.094 246.255 C 269.669 246.718,269.749 247.656,270.213 247.656 C 270.759 247.656,275.981 245.228,276.210 244.867 C 276.747 244.022,276.333 243.822,275.049 244.305 M271.387 244.664 C 269.755 245.508,269.759 245.991,271.394 245.349 C 271.963 245.125,272.395 244.814,272.488 244.560 C 272.683 244.033,272.588 244.042,271.387 244.664 M259.181 244.718 C 258.296 244.981,257.505 245.703,258.102 245.703 C 258.718 245.703,260.013 245.190,260.178 244.880 C 260.457 244.361,260.409 244.353,259.181 244.718 M262.878 244.671 C 262.345 244.848,261.913 245.135,261.804 245.384 C 261.601 245.847,260.675 246.053,260.279 245.724 C 260.005 245.496,258.008 246.038,258.008 246.339 C 258.008 247.166,258.378 247.270,259.624 246.794 C 263.751 245.215,264.024 245.089,264.122 244.717 C 264.238 244.271,264.092 244.266,262.878 244.671 M249.377 245.168 C 248.508 245.649,247.434 247.012,248.219 246.637 C 249.528 246.013,250.388 245.434,250.492 245.106 C 250.686 244.495,250.581 244.501,249.377 245.168 M283.409 245.181 C 282.468 245.743,282.319 245.921,282.111 246.736 C 281.814 247.899,281.871 247.889,283.350 246.507 C 284.321 245.599,284.996 244.465,284.521 244.539 C 284.495 244.543,283.994 244.832,283.409 245.181 M291.699 245.100 C 290.684 245.457,290.495 245.744,290.709 246.597 C 290.857 247.186,290.942 247.185,292.312 246.578 C 293.325 246.131,293.392 246.063,293.068 245.826 C 292.835 245.656,292.750 245.422,292.822 245.146 C 292.951 244.655,292.963 244.656,291.699 245.100 M293.750 246.229 C 291.393 247.369,291.160 247.526,291.550 247.707 C 292.284 248.047,296.333 246.156,296.573 245.361 C 296.750 244.775,296.770 244.769,293.750 246.229 M261.269 246.478 C 259.015 247.389,258.579 247.692,259.352 247.814 C 259.821 247.888,263.867 246.008,263.867 245.717 C 263.867 245.429,263.864 245.431,261.269 246.478 M273.682 246.583 C 271.082 247.822,271.101 247.796,272.900 247.647 C 274.524 247.513,275.001 247.306,275.588 246.482 C 276.301 245.480,275.957 245.498,273.682 246.583 M236.361 246.774 C 234.284 247.348,232.553 247.850,232.514 247.890 C 231.943 248.461,239.618 246.853,240.381 246.242 C 241.329 245.481,240.764 245.556,236.361 246.774 M223.145 246.025 C 222.930 246.070,221.260 246.521,219.434 247.028 L 216.113 247.949 217.324 248.007 C 218.370 248.057,227.774 246.284,228.109 245.974 C 228.217 245.874,223.645 245.921,223.145 246.025 M225.119 246.945 L 220.452 247.949 222.342 248.005 C 223.988 248.054,232.127 246.620,233.691 246.006 C 235.196 245.415,229.147 246.078,225.119 246.945 M231.148 246.864 C 225.805 248.013,225.806 248.013,228.418 248.031 C 230.432 248.045,230.811 247.979,234.473 246.986 L 238.379 245.925 236.914 245.932 C 235.925 245.937,234.053 246.239,231.148 246.864 M249.038 246.546 C 247.946 247.198,247.576 247.656,248.142 247.656 C 248.559 247.656,250.114 246.588,250.263 246.198 C 250.426 245.775,250.242 245.828,249.038 246.546 M188.965 246.225 C 188.535 246.261,186.171 246.708,183.711 247.218 L 179.238 248.145 181.129 248.201 C 182.830 248.251,191.925 246.616,192.360 246.182 C 192.454 246.088,190.265 246.116,188.965 246.225 M189.551 247.140 L 184.863 248.145 186.550 248.201 C 188.054 248.251,195.812 246.636,196.270 246.178 C 196.598 245.850,193.506 246.293,189.551 247.140 M193.750 247.168 L 189.746 248.206 191.442 248.224 C 192.937 248.240,198.018 247.055,200.098 246.204 C 201.474 245.642,197.043 246.314,193.750 247.168 M198.168 247.077 C 196.355 247.602,194.817 248.090,194.750 248.161 C 194.306 248.635,199.829 247.989,203.906 247.091 L 208.301 246.123 204.883 246.122 L 201.465 246.122 198.168 247.077 M205.211 247.076 C 202.868 247.589,200.899 248.060,200.836 248.122 C 200.433 248.525,205.636 247.890,209.570 247.056 L 213.965 246.125 211.719 246.134 C 209.785 246.142,208.880 246.273,205.211 247.076 M210.938 247.077 L 206.738 248.014 208.398 248.023 C 209.761 248.031,210.742 247.860,213.867 247.073 C 219.252 245.716,217.025 245.719,210.938 247.077 M215.039 247.083 L 211.426 248.010 213.086 248.028 C 214.527 248.044,215.185 247.919,218.066 247.084 L 221.387 246.122 220.020 246.139 C 219.071 246.150,217.547 246.439,215.039 247.083 M283.444 246.832 C 282.441 247.707,282.424 247.796,283.282 247.696 C 283.869 247.627,283.969 247.529,284.140 246.856 C 284.246 246.437,284.321 246.096,284.305 246.100 C 284.290 246.103,283.902 246.432,283.444 246.832 M151.956 247.329 L 147.760 248.340 149.222 248.398 C 150.574 248.452,156.241 247.203,157.910 246.484 C 159.171 245.940,155.640 246.442,151.956 247.329 M155.859 247.366 C 152.126 248.389,152.075 248.410,153.284 248.424 C 154.347 248.436,161.132 246.741,161.507 246.370 C 161.883 245.998,158.981 246.510,155.859 247.366 M159.277 247.367 L 155.762 248.413 157.520 248.416 C 158.998 248.418,159.945 248.252,163.477 247.372 L 167.676 246.325 165.234 246.323 C 162.848 246.321,162.713 246.345,159.277 247.367 M164.746 247.367 C 158.734 248.881,161.072 248.885,167.969 247.371 L 172.754 246.321 170.801 246.327 C 169.102 246.332,168.314 246.468,164.746 247.367 M169.911 247.255 C 164.628 248.421,164.575 248.448,167.773 248.328 C 170.155 248.239,170.751 248.137,173.926 247.271 L 177.441 246.312 175.781 246.318 C 174.537 246.323,173.065 246.558,169.911 247.255 M175.122 247.235 C 171.946 248.111,171.864 248.146,172.876 248.197 C 173.669 248.237,174.738 248.014,177.246 247.284 C 180.321 246.389,180.487 246.317,179.492 246.321 C 178.826 246.323,177.167 246.670,175.122 247.235 M178.418 247.238 C 172.636 248.915,176.936 248.454,186.035 246.422 C 186.250 246.374,185.327 246.334,183.984 246.333 C 181.657 246.332,181.397 246.374,178.418 247.238 M119.824 246.712 C 118.965 246.791,116.768 247.247,114.941 247.726 L 111.621 248.597 113.277 248.615 C 114.689 248.630,115.407 248.499,118.160 247.721 C 122.269 246.561,122.407 246.477,119.824 246.712 M119.727 247.564 C 117.063 248.336,116.319 248.614,116.895 248.620 C 117.590 248.628,123.894 246.874,124.173 246.595 C 124.475 246.293,123.002 246.614,119.727 247.564 M122.266 247.559 L 118.848 248.608 120.086 248.620 C 121.145 248.631,128.736 246.895,129.085 246.562 C 129.691 245.984,125.306 246.625,122.266 247.559 M126.660 247.562 L 122.754 248.604 124.512 248.611 C 125.996 248.616,126.922 248.454,130.469 247.572 L 134.668 246.526 132.617 246.523 C 130.752 246.520,130.213 246.614,126.660 247.562 M131.836 247.531 L 127.832 248.535 129.144 248.593 C 130.260 248.642,136.337 247.295,138.184 246.590 C 139.606 246.046,135.076 246.718,131.836 247.531 M135.774 247.527 L 131.998 248.535 133.333 248.586 C 134.467 248.629,135.211 248.477,138.281 247.573 C 143.443 246.052,141.438 246.016,135.774 247.527 M139.746 247.447 C 138.027 247.953,136.489 248.415,136.328 248.474 C 134.555 249.117,141.720 248.261,144.895 247.450 L 148.535 246.520 145.703 246.524 C 142.905 246.527,142.834 246.538,139.746 247.447 M146.094 247.461 L 142.480 248.401 144.434 248.411 C 146.141 248.419,146.867 248.300,150.195 247.466 L 154.004 246.511 151.855 246.516 C 149.928 246.520,149.336 246.617,146.094 247.461 M261.816 247.271 C 260.419 247.965,260.336 248.034,261.035 247.933 C 262.055 247.785,263.050 247.308,263.295 246.850 C 263.540 246.392,263.656 246.359,261.816 247.271 M294.388 247.144 C 292.631 247.935,292.429 248.131,293.555 247.951 C 294.684 247.771,295.664 247.313,295.912 246.850 C 296.168 246.371,296.057 246.392,294.388 247.144 M100.277 247.088 L 99.908 247.496 100.659 247.355 C 101.072 247.278,101.862 247.104,102.414 246.969 L 103.418 246.723 102.032 246.701 C 100.858 246.683,100.590 246.742,100.277 247.088 M102.105 247.344 C 99.630 247.888,98.190 248.451,98.495 248.755 C 98.528 248.788,100.747 248.342,103.428 247.764 L 108.301 246.713 106.641 246.712 C 105.492 246.712,104.095 246.907,102.105 247.344 M105.346 247.653 C 100.059 248.792,100.051 248.795,102.344 248.805 C 103.872 248.812,105.060 248.628,109.082 247.762 L 113.965 246.712 111.816 246.717 C 109.999 246.721,109.002 246.866,105.346 247.653 M111.031 247.645 C 105.704 248.791,105.679 248.800,108.275 248.676 C 110.943 248.548,118.654 246.713,116.504 246.718 C 115.852 246.719,113.425 247.131,111.031 247.645 M237.988 247.339 L 236.426 247.754 237.481 247.814 C 238.567 247.876,239.465 247.624,239.861 247.147 C 240.155 246.792,239.973 246.811,237.988 247.339 M249.388 247.443 L 248.927 247.816 249.464 247.713 C 249.759 247.657,250.000 247.489,250.000 247.341 C 250.000 246.988,249.937 246.998,249.388 247.443 " stroke="none" fill="#3adfd0" fill-rule="evenodd"></path><path id="path3" d="M126.423 170.457 C 127.045 170.496,128.012 170.496,128.572 170.456 C 129.132 170.417,128.623 170.385,127.441 170.386 C 126.260 170.386,125.802 170.418,126.423 170.457 M137.197 170.562 C 137.144 170.700,137.127 172.524,137.158 174.615 L 137.216 178.418 137.260 174.469 L 137.305 170.521 139.404 170.458 L 141.504 170.395 139.398 170.354 C 137.837 170.323,137.268 170.377,137.197 170.562 M173.884 170.457 C 174.506 170.496,175.472 170.496,176.033 170.456 C 176.593 170.417,176.084 170.385,174.902 170.386 C 173.721 170.386,173.262 170.418,173.884 170.457 M185.798 170.457 C 186.420 170.496,187.387 170.496,187.947 170.456 C 188.507 170.417,187.998 170.385,186.816 170.386 C 185.635 170.386,185.177 170.418,185.798 170.457 M208.488 170.557 C 208.437 170.691,208.418 179.678,208.447 190.527 L 208.498 210.254 208.546 190.387 L 208.594 170.521 210.693 170.458 L 212.793 170.395 210.687 170.354 C 209.151 170.324,208.556 170.379,208.488 170.557 M263.957 170.557 C 263.906 170.691,263.887 177.876,263.916 186.523 L 263.967 202.246 264.015 186.381 L 264.063 170.516 268.018 170.459 L 271.973 170.402 268.011 170.357 C 264.989 170.323,264.028 170.370,263.957 170.557 M296.631 182.371 C 297.195 182.410,298.118 182.410,298.682 182.371 C 299.246 182.331,298.784 182.299,297.656 182.299 C 296.528 182.299,296.067 182.331,296.631 182.371 M98.584 202.097 C 99.148 202.137,100.071 202.137,100.635 202.097 C 101.199 202.058,100.737 202.025,99.609 202.025 C 98.481 202.025,98.020 202.058,98.584 202.097 M249.176 202.097 C 249.744 202.137,250.623 202.137,251.130 202.096 C 251.636 202.056,251.172 202.024,250.098 202.024 C 249.023 202.025,248.609 202.058,249.176 202.097 M278.967 202.099 C 280.558 202.132,283.107 202.132,284.631 202.099 C 286.155 202.066,284.854 202.039,281.738 202.039 C 278.623 202.039,277.376 202.066,278.967 202.099 M250.195 234.277 C 249.831 234.653,249.612 234.961,249.708 234.961 C 249.804 234.961,249.777 235.066,249.648 235.195 C 249.273 235.570,249.374 235.744,249.951 235.716 C 250.442 235.691,250.449 235.681,250.028 235.602 L 249.568 235.514 250.113 234.945 C 250.413 234.631,250.585 234.375,250.495 234.375 C 250.404 234.375,250.489 234.199,250.684 233.984 C 251.283 233.322,250.897 233.554,250.195 234.277 M285.229 234.012 C 285.053 234.207,284.833 234.319,284.740 234.261 C 284.646 234.204,284.570 234.250,284.570 234.363 C 284.570 234.686,284.866 234.608,285.250 234.184 C 285.442 233.972,285.669 233.842,285.755 233.895 C 285.840 233.947,285.957 233.916,286.013 233.825 C 286.212 233.504,285.545 233.663,285.229 234.012 M242.819 235.352 C 242.819 235.728,242.859 235.881,242.908 235.693 C 242.957 235.505,242.957 235.198,242.908 235.010 C 242.859 234.822,242.819 234.976,242.819 235.352 M274.658 235.682 C 274.846 235.731,275.154 235.731,275.342 235.682 C 275.530 235.632,275.376 235.592,275.000 235.592 C 274.624 235.592,274.470 235.632,274.658 235.682 M236.849 236.068 C 236.615 236.302,236.712 236.674,237.039 236.800 C 237.304 236.901,237.318 236.872,237.120 236.634 C 236.988 236.475,236.937 236.253,237.006 236.141 C 237.147 235.913,237.049 235.867,236.849 236.068 M250.000 237.695 C 249.770 237.844,249.765 237.885,249.975 237.888 C 250.199 237.890,250.200 237.947,249.985 238.232 C 249.765 238.522,249.767 238.537,249.998 238.332 C 250.147 238.199,250.289 237.957,250.313 237.795 C 250.364 237.449,250.375 237.453,250.000 237.695 M291.083 243.075 C 290.937 243.455,290.984 243.497,291.700 243.638 L 292.285 243.752 291.748 243.540 C 291.174 243.312,291.059 243.063,291.455 242.903 C 291.646 242.826,291.645 242.801,291.449 242.789 C 291.311 242.780,291.147 242.909,291.083 243.075 M208.126 246.175 C 208.192 246.345,208.331 246.484,208.436 246.484 C 208.692 246.484,208.532 246.040,208.240 245.943 C 208.097 245.896,208.053 245.985,208.126 246.175 M212.256 246.044 C 213.142 246.080,213.867 246.194,213.867 246.297 C 213.867 246.400,213.955 246.484,214.063 246.484 C 214.170 246.484,214.258 246.353,214.258 246.191 C 214.258 245.949,213.945 245.905,212.451 245.938 L 210.645 245.978 212.256 246.044 M216.553 246.042 C 217.117 246.082,217.578 246.197,217.578 246.299 C 217.578 246.401,217.671 246.484,217.785 246.484 C 217.899 246.484,217.942 246.404,217.881 246.306 C 217.821 246.207,217.881 246.083,218.016 246.028 C 218.151 245.974,217.646 245.939,216.895 245.950 C 215.720 245.968,215.671 245.981,216.553 246.042 M220.166 246.043 C 220.784 246.082,221.289 246.197,221.289 246.299 C 221.289 246.401,221.382 246.484,221.496 246.484 C 221.610 246.484,221.643 246.387,221.569 246.268 C 221.478 246.121,221.584 246.094,221.899 246.183 C 222.257 246.285,222.296 246.268,222.070 246.110 C 221.909 245.997,221.162 245.920,220.410 245.938 C 219.049 245.972,219.048 245.973,220.166 246.043 M177.065 246.240 C 177.162 246.321,177.296 246.460,177.363 246.550 C 177.430 246.639,177.538 246.573,177.603 246.403 C 177.689 246.180,177.605 246.094,177.305 246.094 C 177.076 246.094,176.968 246.160,177.065 246.240 M179.541 246.237 C 180.051 246.278,180.469 246.394,180.469 246.495 C 180.469 246.597,180.557 246.680,180.664 246.680 C 180.771 246.680,180.859 246.548,180.859 246.387 C 180.859 246.156,180.620 246.101,179.736 246.129 C 178.626 246.164,178.624 246.165,179.541 246.237 M183.977 246.240 C 185.458 246.281,186.268 246.383,186.370 246.540 C 186.489 246.724,186.560 246.721,186.686 246.527 C 186.778 246.383,187.008 246.328,187.223 246.399 C 187.530 246.499,187.545 246.483,187.305 246.310 C 187.123 246.180,186.013 246.114,184.375 246.138 L 181.738 246.177 183.977 246.240 M188.428 246.232 C 188.669 246.278,189.065 246.278,189.307 246.232 C 189.548 246.185,189.351 246.147,188.867 246.147 C 188.384 246.147,188.186 246.185,188.428 246.232 M283.885 246.292 C 283.817 246.401,283.692 246.447,283.606 246.395 C 283.521 246.342,283.285 246.492,283.083 246.730 C 282.777 247.089,282.772 247.117,283.057 246.897 C 283.245 246.751,283.398 246.700,283.398 246.784 C 283.398 246.867,283.559 246.790,283.756 246.612 C 283.953 246.434,284.187 246.354,284.276 246.435 C 284.365 246.516,284.374 246.472,284.297 246.338 C 284.127 246.042,284.045 246.033,283.885 246.292 M141.671 246.582 C 141.832 246.743,142.015 246.875,142.076 246.875 C 142.137 246.875,142.188 246.743,142.188 246.582 C 142.188 246.416,142.012 246.289,141.783 246.289 C 141.423 246.289,141.411 246.322,141.671 246.582 M145.752 246.435 C 147.319 246.470,148.438 246.574,148.438 246.685 C 148.438 246.983,148.774 246.907,148.899 246.582 C 148.996 246.328,148.612 246.295,146.039 246.332 L 143.066 246.375 145.752 246.435 M151.849 246.435 C 153.093 246.476,153.850 246.585,153.948 246.736 C 154.067 246.919,154.138 246.916,154.264 246.722 C 154.357 246.578,154.586 246.524,154.801 246.594 C 155.108 246.694,155.123 246.678,154.883 246.506 C 154.704 246.377,153.673 246.310,152.246 246.333 L 149.902 246.371 151.849 246.435 M107.666 246.624 C 107.961 246.669,108.203 246.788,108.203 246.888 C 108.203 246.988,108.291 247.070,108.398 247.070 C 108.506 247.070,108.594 246.938,108.594 246.777 C 108.594 246.564,108.395 246.492,107.861 246.514 C 107.272 246.537,107.234 246.559,107.666 246.624 M111.810 246.630 C 113.043 246.671,113.817 246.781,113.924 246.931 C 114.055 247.116,114.114 247.114,114.191 246.924 C 114.251 246.776,114.495 246.720,114.811 246.781 C 115.250 246.865,115.271 246.852,114.941 246.696 C 114.727 246.595,113.496 246.524,112.207 246.539 L 109.863 246.566 111.810 246.630 M116.499 246.630 C 117.033 246.671,117.583 246.798,117.720 246.911 C 117.898 247.059,117.969 247.052,117.969 246.886 C 117.969 246.738,118.129 246.699,118.408 246.777 C 118.752 246.874,118.784 246.856,118.555 246.695 C 118.394 246.583,117.646 246.505,116.895 246.523 C 115.741 246.550,115.679 246.566,116.499 246.630 M119.681 246.626 C 120.032 246.669,120.560 246.668,120.853 246.624 C 121.147 246.579,120.859 246.544,120.215 246.545 C 119.570 246.546,119.330 246.582,119.681 246.626 M121.484 246.777 C 121.484 246.938,121.577 247.070,121.691 247.070 C 121.805 247.070,121.838 246.973,121.764 246.854 C 121.674 246.707,121.779 246.680,122.095 246.769 C 122.452 246.871,122.492 246.854,122.266 246.695 C 121.844 246.400,121.484 246.438,121.484 246.777 M124.051 246.658 C 123.867 246.775,123.852 246.867,124.003 246.960 C 124.121 247.033,124.219 246.991,124.219 246.866 C 124.219 246.740,124.355 246.690,124.522 246.754 C 124.696 246.821,124.774 246.788,124.706 246.677 C 124.560 246.443,124.399 246.438,124.051 246.658 M239.790 246.703 C 239.979 246.893,239.979 247.008,239.790 247.251 C 239.579 247.522,239.591 247.527,239.893 247.291 C 240.081 247.143,240.234 246.955,240.234 246.872 C 240.234 246.789,240.081 246.663,239.893 246.591 C 239.622 246.488,239.601 246.512,239.790 246.703 M99.935 247.201 C 99.741 247.395,99.778 247.852,99.988 247.852 C 100.089 247.852,100.158 247.676,100.142 247.461 C 100.108 247.019,100.112 247.024,99.935 247.201 M248.893 247.523 C 248.893 247.668,249.146 247.782,249.495 247.793 C 249.860 247.805,249.944 247.774,249.707 247.714 C 249.492 247.659,249.221 247.537,249.105 247.443 C 248.974 247.337,248.893 247.367,248.893 247.523 M271.354 247.531 C 271.354 247.717,271.686 247.790,272.542 247.791 C 273.642 247.793,273.659 247.787,272.759 247.712 C 272.224 247.668,271.690 247.550,271.571 247.452 C 271.431 247.335,271.354 247.363,271.354 247.531 M232.422 247.669 C 232.422 247.792,232.241 247.827,231.982 247.754 C 231.705 247.676,231.633 247.694,231.788 247.802 C 231.922 247.896,232.713 247.974,233.545 247.975 C 234.713 247.976,234.802 247.960,233.936 247.905 C 233.318 247.865,232.813 247.749,232.813 247.647 C 232.813 247.545,232.725 247.461,232.617 247.461 C 232.510 247.461,232.422 247.555,232.422 247.669 M236.062 247.754 C 235.968 247.998,236.167 248.041,237.262 248.011 C 238.498 247.977,238.514 247.970,237.549 247.903 C 236.985 247.863,236.523 247.748,236.523 247.646 C 236.523 247.352,236.186 247.431,236.062 247.754 M200.781 247.855 C 200.781 247.970,200.553 248.006,200.244 247.941 C 199.792 247.845,199.762 247.862,200.053 248.046 C 200.422 248.281,201.172 248.141,201.172 247.838 C 201.172 247.738,201.084 247.656,200.977 247.656 C 200.869 247.656,200.781 247.746,200.781 247.855 M206.250 247.833 C 206.250 247.931,206.052 247.973,205.811 247.927 C 205.401 247.849,205.398 247.856,205.762 248.029 C 205.977 248.131,207.031 248.203,208.105 248.189 L 210.059 248.163 208.447 248.097 C 207.561 248.061,206.836 247.947,206.836 247.844 C 206.836 247.741,206.704 247.656,206.543 247.656 C 206.382 247.656,206.250 247.736,206.250 247.833 M211.133 247.949 C 211.133 248.184,211.393 248.235,212.451 248.205 L 213.770 248.168 212.646 248.098 C 212.029 248.059,211.523 247.944,211.523 247.842 C 211.523 247.740,211.436 247.656,211.328 247.656 C 211.221 247.656,211.133 247.788,211.133 247.949 M215.820 247.949 C 215.820 248.110,215.963 248.242,216.137 248.242 C 216.397 248.242,216.410 248.189,216.211 247.949 C 216.077 247.788,215.935 247.656,215.894 247.656 C 215.853 247.656,215.820 247.788,215.820 247.949 M283.057 247.791 C 283.245 247.840,283.552 247.840,283.740 247.791 C 283.928 247.742,283.774 247.702,283.398 247.702 C 283.022 247.702,282.869 247.742,283.057 247.791 M165.234 248.060 C 165.234 248.182,165.051 248.218,164.795 248.148 C 164.451 248.054,164.423 248.071,164.663 248.223 C 165.002 248.439,165.820 248.298,165.820 248.024 C 165.820 247.929,165.688 247.852,165.527 247.852 C 165.366 247.852,165.234 247.945,165.234 248.060 M171.484 248.036 C 171.484 248.184,171.324 248.223,171.045 248.145 C 170.744 248.060,170.688 248.079,170.866 248.202 C 171.010 248.302,171.757 248.382,172.526 248.379 C 173.580 248.376,173.686 248.356,172.954 248.296 C 172.420 248.253,171.870 248.124,171.733 248.010 C 171.555 247.863,171.484 247.870,171.484 248.036 M175.000 248.036 C 175.000 248.184,174.839 248.223,174.561 248.145 C 174.217 248.048,174.185 248.066,174.414 248.226 C 174.575 248.339,175.322 248.417,176.074 248.399 C 177.228 248.372,177.290 248.355,176.470 248.292 C 175.935 248.251,175.386 248.124,175.249 248.010 C 175.071 247.863,175.000 247.870,175.000 248.036 M178.640 248.145 C 178.544 248.396,178.852 248.432,180.817 248.397 L 183.105 248.356 181.201 248.292 C 180.154 248.257,179.297 248.143,179.297 248.040 C 179.297 247.738,178.764 247.823,178.640 248.145 M184.500 248.145 C 184.562 248.306,184.732 248.438,184.878 248.438 C 185.034 248.438,185.098 248.317,185.032 248.145 C 184.970 247.983,184.799 247.852,184.653 247.852 C 184.497 247.852,184.434 247.973,184.500 248.145 M142.188 248.255 C 142.188 248.378,142.007 248.413,141.748 248.340 C 141.404 248.243,141.372 248.261,141.602 248.422 C 141.773 248.542,142.823 248.611,144.141 248.589 L 146.387 248.551 144.482 248.487 C 143.435 248.452,142.578 248.339,142.578 248.235 C 142.578 248.132,142.490 248.047,142.383 248.047 C 142.275 248.047,142.188 248.141,142.188 248.255 M147.390 248.340 C 147.295 248.588,147.537 248.627,148.981 248.594 L 150.684 248.555 149.268 248.488 C 148.489 248.451,147.852 248.336,147.852 248.234 C 147.852 247.939,147.514 248.016,147.390 248.340 M151.823 248.340 C 151.823 248.501,151.990 248.633,152.195 248.633 C 152.526 248.633,152.534 248.600,152.274 248.340 C 152.113 248.179,151.945 248.047,151.902 248.047 C 151.858 248.047,151.823 248.179,151.823 248.340 M202.783 248.189 C 203.186 248.231,203.845 248.231,204.248 248.189 C 204.651 248.147,204.321 248.113,203.516 248.113 C 202.710 248.113,202.380 248.147,202.783 248.189 M111.328 248.427 C 111.328 248.574,111.167 248.614,110.889 248.536 C 110.545 248.439,110.513 248.456,110.742 248.617 C 110.909 248.734,111.877 248.806,112.988 248.786 C 114.911 248.750,114.917 248.748,113.388 248.682 C 112.534 248.645,111.721 248.520,111.582 248.405 C 111.398 248.252,111.328 248.258,111.328 248.427 M115.951 248.519 C 115.852 248.776,115.986 248.823,116.754 248.797 C 117.547 248.770,117.580 248.754,116.994 248.683 C 116.619 248.638,116.258 248.513,116.191 248.405 C 116.121 248.293,116.020 248.341,115.951 248.519 M118.620 248.535 C 118.620 248.770,118.876 248.821,119.906 248.791 L 121.191 248.754 120.068 248.684 C 119.451 248.645,118.945 248.530,118.945 248.428 C 118.945 248.326,118.872 248.242,118.783 248.242 C 118.693 248.242,118.620 248.374,118.620 248.535 M168.411 248.382 C 168.708 248.427,169.147 248.426,169.387 248.380 C 169.628 248.333,169.385 248.297,168.848 248.298 C 168.311 248.300,168.114 248.337,168.411 248.382 M99.902 248.633 C 99.969 248.740,100.155 248.828,100.316 248.828 C 100.477 248.828,100.555 248.740,100.488 248.633 C 100.422 248.525,100.236 248.438,100.075 248.438 C 99.913 248.438,99.836 248.525,99.902 248.633 M138.239 248.582 C 138.807 248.621,139.685 248.621,140.192 248.581 C 140.699 248.541,140.234 248.508,139.160 248.509 C 138.086 248.509,137.671 248.542,138.239 248.582 M107.964 248.776 C 108.424 248.817,109.127 248.817,109.527 248.775 C 109.927 248.733,109.551 248.699,108.691 248.700 C 107.832 248.700,107.505 248.735,107.964 248.776 " stroke="none" fill="#376f5d" fill-rule="evenodd"></path><path id="path4" d="M97.554 178.418 C 97.554 187.227,97.578 190.802,97.607 186.362 C 97.637 181.923,97.637 174.716,97.607 170.347 C 97.578 165.977,97.554 169.609,97.554 178.418 M113.376 186.230 C 113.376 199.336,113.399 204.668,113.428 198.081 C 113.456 191.493,113.456 180.770,113.428 174.252 C 113.399 167.735,113.376 173.125,113.376 186.230 M204.587 188.281 C 204.587 202.515,204.610 208.337,204.639 201.221 C 204.667 194.104,204.667 182.458,204.639 175.342 C 204.610 168.225,204.587 174.048,204.587 188.281 M244.235 188.281 C 244.235 202.515,244.259 208.337,244.287 201.221 C 244.315 194.104,244.315 182.458,244.287 175.342 C 244.259 168.225,244.235 174.048,244.235 188.281 M271.762 166.309 C 271.762 168.457,271.790 169.363,271.825 168.321 C 271.860 167.279,271.860 165.521,271.825 164.415 C 271.791 163.308,271.762 164.160,271.762 166.309 M172.933 166.309 C 172.933 168.350,172.962 169.158,172.997 168.105 C 173.032 167.052,173.032 165.382,172.997 164.394 C 172.962 163.406,172.933 164.268,172.933 166.309 M131.295 170.458 L 133.195 170.522 133.252 174.470 L 133.309 178.418 133.354 174.365 L 133.398 170.313 131.396 170.353 L 129.395 170.394 131.295 170.458 M142.341 170.457 C 142.908 170.496,143.787 170.496,144.294 170.456 C 144.800 170.416,144.336 170.383,143.262 170.384 C 142.188 170.384,141.773 170.417,142.341 170.457 M177.881 170.456 C 178.445 170.496,179.368 170.496,179.932 170.456 C 180.496 170.417,180.034 170.385,178.906 170.385 C 177.778 170.385,177.317 170.417,177.881 170.456 M184.653 174.316 C 184.653 176.572,184.682 177.468,184.716 176.308 C 184.751 175.147,184.751 173.301,184.716 172.206 C 184.681 171.111,184.653 172.061,184.653 174.316 M189.801 170.457 C 190.369 170.496,191.248 170.496,191.755 170.456 C 192.261 170.416,191.797 170.383,190.723 170.384 C 189.648 170.384,189.234 170.417,189.801 170.457 M213.525 170.456 C 214.036 170.496,214.871 170.496,215.381 170.456 C 215.891 170.416,215.474 170.383,214.453 170.383 C 213.433 170.383,213.015 170.416,213.525 170.456 M220.404 182.324 C 220.404 188.877,220.429 191.529,220.459 188.218 C 220.489 184.907,220.489 179.546,220.459 176.304 C 220.429 173.063,220.404 175.771,220.404 182.324 M275.827 188.123 C 275.802 195.717,275.847 201.971,275.928 202.021 C 276.061 202.103,276.059 192.254,275.924 179.297 C 275.895 176.558,275.852 180.529,275.827 188.123 M126.318 182.371 C 126.882 182.410,127.805 182.410,128.369 182.371 C 128.933 182.331,128.472 182.299,127.344 182.299 C 126.216 182.299,125.754 182.331,126.318 182.371 M142.139 182.371 C 142.703 182.410,143.625 182.410,144.189 182.371 C 144.753 182.331,144.292 182.299,143.164 182.299 C 142.036 182.299,141.575 182.331,142.139 182.371 M173.779 182.371 C 174.343 182.410,175.266 182.410,175.830 182.371 C 176.394 182.331,175.933 182.299,174.805 182.299 C 173.677 182.299,173.215 182.331,173.779 182.371 M188.672 194.134 L 188.672 206.041 186.621 206.107 L 184.570 206.173 186.670 206.163 L 188.770 206.152 188.820 194.294 L 188.870 182.436 190.773 182.372 L 192.676 182.308 190.674 182.267 L 188.672 182.227 188.672 194.134 M289.708 182.372 C 290.869 182.407,292.714 182.407,293.809 182.372 C 294.905 182.337,293.955 182.309,291.699 182.309 C 289.443 182.309,288.547 182.338,289.708 182.372 M172.945 198.340 C 172.945 206.934,172.969 210.421,172.998 206.089 C 173.027 201.757,173.027 194.726,172.998 190.464 C 172.969 186.202,172.945 189.746,172.945 198.340 M99.561 198.193 C 100.662 198.227,102.463 198.227,103.564 198.193 C 104.666 198.158,103.765 198.129,101.563 198.129 C 99.360 198.129,98.459 198.158,99.561 198.193 M103.575 202.099 C 104.736 202.134,106.581 202.133,107.677 202.099 C 108.772 202.064,107.822 202.036,105.566 202.036 C 103.311 202.036,102.414 202.064,103.575 202.099 M255.905 202.097 L 259.955 202.156 260.011 208.061 L 260.067 213.965 260.063 208.008 L 260.059 202.051 255.957 202.045 L 251.855 202.038 255.905 202.097 M97.544 206.152 C 97.544 208.408,97.572 209.304,97.607 208.144 C 97.641 206.983,97.641 205.137,97.607 204.042 C 97.572 202.947,97.543 203.896,97.544 206.152 M176.791 204.041 C 176.773 205.136,176.824 206.073,176.904 206.123 C 176.985 206.173,177.027 205.585,176.997 204.816 C 176.901 202.304,176.824 202.014,176.791 204.041 M263.939 204.102 C 263.939 205.229,263.972 205.691,264.011 205.127 C 264.051 204.563,264.051 203.640,264.011 203.076 C 263.972 202.512,263.939 202.974,263.939 204.102 M138.142 206.199 C 138.763 206.238,139.730 206.238,140.290 206.198 C 140.850 206.159,140.342 206.127,139.160 206.128 C 137.979 206.128,137.520 206.160,138.142 206.199 M220.395 210.059 C 220.395 212.314,220.424 213.211,220.458 212.050 C 220.493 210.889,220.493 209.044,220.458 207.948 C 220.423 206.853,220.395 207.803,220.395 210.059 M192.650 212.109 C 192.650 213.237,192.683 213.699,192.722 213.135 C 192.762 212.571,192.762 211.648,192.722 211.084 C 192.683 210.520,192.650 210.981,192.650 212.109 M208.471 212.109 C 208.471 213.237,208.503 213.699,208.542 213.135 C 208.582 212.571,208.582 211.648,208.542 211.084 C 208.503 210.520,208.471 210.981,208.471 212.109 M248.119 212.109 C 248.119 213.237,248.151 213.699,248.191 213.135 C 248.230 212.571,248.230 211.648,248.191 211.084 C 248.151 210.520,248.119 210.981,248.119 212.109 M264.732 239.085 C 264.631 239.249,264.683 239.286,264.897 239.204 C 265.069 239.138,265.252 239.170,265.305 239.274 C 265.357 239.378,265.380 239.356,265.354 239.226 C 265.288 238.889,264.907 238.803,264.732 239.085 M296.875 242.773 C 296.645 242.922,296.640 242.963,296.850 242.966 C 297.074 242.968,297.075 243.025,296.860 243.311 C 296.640 243.600,296.642 243.616,296.873 243.410 C 297.022 243.277,297.164 243.035,297.188 242.873 C 297.239 242.527,297.250 242.531,296.875 242.773 M237.109 245.852 C 238.063 245.916,238.282 245.981,237.988 246.111 C 237.664 246.256,237.657 246.278,237.950 246.239 C 238.850 246.118,238.261 245.799,237.109 245.784 L 235.840 245.768 237.109 245.852 M200.169 246.073 C 200.356 246.192,200.369 246.274,200.213 246.348 C 200.061 246.421,200.066 246.440,200.227 246.409 C 200.618 246.332,200.647 245.898,200.260 245.901 C 199.984 245.904,199.963 245.943,200.169 246.073 M203.769 246.044 C 204.606 246.080,205.924 246.080,206.698 246.043 C 207.472 246.006,206.787 245.976,205.176 245.977 C 203.564 245.977,202.931 246.007,203.769 246.044 M169.434 246.209 C 170.374 246.358,173.597 246.389,173.510 246.249 C 173.458 246.163,172.431 246.106,171.229 246.120 C 170.027 246.135,169.219 246.175,169.434 246.209 M174.854 246.236 C 175.256 246.278,175.916 246.278,176.318 246.236 C 176.721 246.194,176.392 246.159,175.586 246.159 C 174.780 246.159,174.451 246.194,174.854 246.236 M134.570 246.484 C 135.323 246.725,135.725 246.725,135.352 246.484 C 135.190 246.380,134.839 246.302,134.570 246.312 L 134.082 246.328 134.570 246.484 M136.328 246.398 C 137.040 246.553,139.030 246.590,138.942 246.447 C 138.888 246.360,138.212 246.299,137.440 246.312 C 136.667 246.324,136.167 246.363,136.328 246.398 M140.091 246.429 C 140.387 246.474,140.827 246.473,141.067 246.427 C 141.307 246.380,141.064 246.343,140.527 246.345 C 139.990 246.346,139.794 246.384,140.091 246.429 M101.074 246.600 C 102.008 246.748,104.258 246.775,104.172 246.636 C 104.121 246.553,103.315 246.496,102.381 246.511 C 101.447 246.526,100.859 246.566,101.074 246.600 M106.006 246.622 C 106.248 246.669,106.643 246.669,106.885 246.622 C 107.126 246.576,106.929 246.538,106.445 246.538 C 105.962 246.538,105.764 246.576,106.006 246.622 M198.145 246.875 C 197.898 246.981,197.862 247.043,198.047 247.043 C 198.208 247.043,198.516 246.967,198.730 246.875 C 198.977 246.769,199.013 246.707,198.828 246.707 C 198.667 246.707,198.359 246.783,198.145 246.875 M196.777 247.266 C 196.531 247.371,196.495 247.433,196.680 247.433 C 196.841 247.433,197.148 247.358,197.363 247.266 C 197.609 247.160,197.646 247.098,197.461 247.098 C 197.300 247.098,196.992 247.173,196.777 247.266 M282.306 247.489 C 281.936 247.906,281.936 247.907,282.373 247.678 C 282.615 247.551,282.813 247.362,282.813 247.259 C 282.813 246.981,282.719 247.024,282.306 247.489 M121.777 247.461 C 121.531 247.567,121.495 247.629,121.680 247.629 C 121.841 247.629,122.148 247.553,122.363 247.461 C 122.609 247.355,122.646 247.293,122.461 247.293 C 122.300 247.293,121.992 247.369,121.777 247.461 M119.824 248.047 C 119.578 248.153,119.542 248.215,119.727 248.215 C 119.888 248.215,120.195 248.139,120.410 248.047 C 120.656 247.941,120.692 247.879,120.508 247.879 C 120.347 247.879,120.039 247.955,119.824 248.047 M219.727 248.041 C 219.888 248.148,220.320 248.238,220.687 248.239 C 221.562 248.243,221.407 248.132,220.313 247.974 C 219.698 247.884,219.522 247.905,219.727 248.041 M189.172 248.261 C 189.232 248.358,189.642 248.438,190.083 248.438 C 191.075 248.438,190.992 248.330,189.893 248.190 C 189.419 248.130,189.109 248.160,189.172 248.261 M213.916 248.182 C 214.104 248.231,214.412 248.231,214.600 248.182 C 214.788 248.132,214.634 248.092,214.258 248.092 C 213.882 248.092,213.728 248.132,213.916 248.182 M216.943 248.188 C 217.292 248.231,217.864 248.231,218.213 248.188 C 218.562 248.145,218.276 248.109,217.578 248.109 C 216.880 248.109,216.594 248.145,216.943 248.188 M185.889 248.385 C 186.345 248.426,187.092 248.426,187.549 248.385 C 188.005 248.344,187.632 248.310,186.719 248.310 C 185.806 248.310,185.432 248.344,185.889 248.385 M122.198 248.681 C 122.248 248.762,123.184 248.815,124.279 248.799 C 126.448 248.767,126.207 248.680,123.700 248.591 C 122.824 248.559,122.148 248.600,122.198 248.681 M127.344 248.676 C 127.344 248.760,127.849 248.818,128.467 248.805 C 129.659 248.781,129.542 248.695,128.174 248.589 C 127.717 248.554,127.344 248.593,127.344 248.676 M152.979 248.577 C 153.274 248.622,153.757 248.622,154.053 248.577 C 154.348 248.533,154.106 248.496,153.516 248.496 C 152.925 248.496,152.683 248.533,152.979 248.577 M156.792 248.581 C 157.252 248.622,157.955 248.621,158.355 248.579 C 158.755 248.538,158.379 248.504,157.520 248.504 C 156.660 248.505,156.333 248.540,156.792 248.581 " stroke="none" fill="#294338" fill-rule="evenodd"></path></g></svg>