<svg id="svg" version="1.1" xmlns="http://www.w3.org/2000/svg" xmlns:xlink="http://www.w3.org/1999/xlink" width="400" height="400" viewBox="0, 0, 400,400"><g id="svgg"><path id="path0" d="M288.600 101.851 C 285.813 104.087,280.875 107.958,269.416 116.890 L 263.400 121.580 206.131 121.590 L 148.861 121.600 147.678 122.596 C 146.259 123.790,145.884 125.348,146.603 127.068 C 147.634 129.536,144.330 129.382,200.968 129.600 L 252.935 129.800 250.215 131.900 L 247.495 134.000 236.006 134.000 L 224.517 134.000 223.458 134.981 L 222.400 135.962 222.400 144.019 C 222.400 150.971,222.496 152.240,223.100 153.271 L 223.800 154.466 221.200 156.820 L 218.600 159.175 161.200 159.088 L 103.800 159.000 103.695 145.037 C 103.601 132.625,103.662 130.995,104.238 130.358 C 104.821 129.714,105.847 129.628,114.212 129.520 C 124.670 129.385,125.261 129.215,125.833 126.164 C 126.584 122.161,124.714 121.519,112.754 121.674 C 100.952 121.826,98.717 122.659,96.620 127.687 C 95.549 130.257,95.690 292.625,96.766 294.734 C 97.785 296.732,100.778 299.444,102.343 299.787 C 103.034 299.939,103.600 300.229,103.600 300.432 C 103.600 300.655,141.469 300.800,199.800 300.800 C 252.710 300.800,296.000 300.656,296.000 300.480 C 296.000 300.305,296.642 299.929,297.426 299.645 C 299.639 298.845,301.529 296.921,303.028 293.944 L 304.400 291.220 304.400 211.051 L 304.400 130.882 303.210 128.484 C 301.557 125.152,300.314 123.806,297.781 122.609 L 295.600 121.576 300.000 115.982 C 305.385 109.136,305.388 109.815,299.946 104.197 L 295.492 99.600 293.446 99.602 C 291.561 99.604,291.179 99.782,288.600 101.851 M293.985 109.382 C 294.637 110.168,295.471 109.048,271.033 140.200 C 246.527 171.439,233.895 184.720,223.087 190.610 L 220.373 192.088 216.120 188.128 C 210.121 182.541,210.217 183.185,214.423 176.818 C 221.549 166.032,234.169 154.492,266.800 128.923 C 293.496 108.006,293.087 108.300,293.985 109.382 M131.260 122.611 C 129.024 124.492,129.384 127.647,131.987 128.993 C 135.900 131.017,139.556 125.895,136.431 122.769 C 134.909 121.247,132.952 121.187,131.260 122.611 M295.205 130.405 C 295.985 131.185,296.007 131.641,295.905 145.105 L 295.800 159.000 281.602 159.105 C 264.940 159.229,265.839 159.381,268.001 156.799 L 269.674 154.800 278.778 154.800 C 292.180 154.800,291.600 155.286,291.600 144.051 C 291.600 135.330,291.149 134.000,288.188 134.000 C 286.315 134.000,286.272 133.657,287.873 131.495 L 289.277 129.600 291.838 129.600 C 293.872 129.600,294.566 129.766,295.205 130.405 M109.055 135.055 L 108.000 136.109 108.000 144.166 C 108.000 155.688,106.757 154.876,124.156 154.716 L 136.867 154.600 138.056 153.268 L 139.246 151.936 139.123 143.933 L 139.000 135.929 137.878 134.965 L 136.755 134.000 123.432 134.000 L 110.109 134.000 109.055 135.055 M147.036 135.231 C 146.001 136.460,146.000 136.470,146.000 144.051 C 146.000 155.495,144.991 154.800,161.600 154.800 C 178.267 154.800,177.200 155.526,177.200 144.183 L 177.200 136.338 176.031 135.169 L 174.862 134.000 161.466 134.000 L 148.071 134.000 147.036 135.231 M185.744 134.584 C 184.163 135.691,183.942 137.063,184.075 144.936 L 184.200 152.384 185.309 153.492 L 186.417 154.600 199.086 154.716 C 216.437 154.876,215.200 155.686,215.200 144.166 L 215.200 136.109 214.145 135.055 L 213.091 134.000 199.834 134.000 C 188.859 134.000,186.435 134.101,185.744 134.584 M131.200 144.209 L 131.200 146.817 123.500 146.709 L 115.800 146.600 115.676 144.651 C 115.472 141.441,115.060 141.600,123.587 141.600 L 131.200 141.600 131.200 144.209 M169.200 144.200 L 169.200 146.800 161.600 146.800 L 154.000 146.800 154.000 144.200 L 154.000 141.600 161.600 141.600 L 169.200 141.600 169.200 144.200 M207.400 144.200 L 207.400 146.600 199.700 146.709 L 192.000 146.817 192.000 144.200 L 192.000 141.583 199.700 141.691 L 207.400 141.800 207.400 144.200 M237.533 141.987 C 237.178 143.018,232.131 146.789,231.100 146.794 C 230.017 146.800,229.340 142.794,230.267 141.867 C 230.697 141.436,237.683 141.552,237.533 141.987 M283.600 144.200 L 283.600 146.800 280.000 146.800 C 275.813 146.800,275.864 146.883,278.206 143.900 C 279.925 141.710,280.098 141.600,281.806 141.600 L 283.600 141.600 283.600 144.200 M211.295 167.028 C 211.420 167.154,210.461 168.729,209.163 170.528 C 207.866 172.328,205.995 175.355,205.007 177.255 C 203.395 180.352,203.033 180.780,201.505 181.391 C 193.570 184.564,189.224 190.228,185.233 202.600 C 184.097 206.120,182.352 210.669,181.354 212.709 C 178.024 219.519,179.911 221.170,191.048 221.192 C 204.737 221.219,214.463 215.479,220.403 203.867 C 222.393 199.975,222.443 199.918,225.107 198.536 C 233.772 194.038,243.088 185.948,254.014 173.434 L 259.800 166.808 277.800 166.904 L 295.800 167.000 295.902 211.100 L 296.004 255.200 291.032 255.200 C 285.482 255.200,283.964 255.833,283.404 258.382 C 282.676 261.698,285.226 263.200,291.587 263.200 L 296.000 263.200 296.000 277.018 L 296.000 290.836 295.018 291.818 L 294.036 292.800 199.872 292.800 L 105.708 292.800 104.654 291.971 L 103.600 291.142 103.600 277.175 L 103.600 263.208 182.168 263.104 L 260.736 263.000 261.747 262.050 C 263.705 260.210,263.276 256.710,260.962 255.655 C 260.225 255.320,239.393 255.200,181.781 255.200 L 103.600 255.200 103.600 211.267 C 103.600 187.103,103.720 167.213,103.867 167.067 C 104.190 166.743,210.971 166.705,211.295 167.028 M210.100 193.160 C 214.972 197.948,214.874 197.685,213.023 200.962 C 208.489 208.991,201.589 213.177,192.857 213.194 C 190.212 213.199,189.943 213.129,190.197 212.500 C 190.352 212.115,191.424 208.906,192.579 205.369 C 195.804 195.497,197.856 192.334,202.782 189.645 C 205.380 188.226,204.789 187.942,210.100 193.160 M273.644 255.758 C 271.438 256.981,271.003 259.719,272.711 261.631 C 275.677 264.950,281.131 261.305,279.032 257.407 C 277.918 255.339,275.652 254.645,273.644 255.758 M108.982 268.582 C 107.458 270.106,107.444 285.309,108.965 287.078 L 109.931 288.200 123.398 288.200 L 136.866 288.200 138.056 286.868 L 139.246 285.536 139.123 277.533 L 139.000 269.529 137.878 268.565 L 136.755 267.600 123.360 267.600 L 109.964 267.600 108.982 268.582 M147.036 268.831 C 146.001 270.060,146.000 270.070,146.000 277.651 C 146.000 289.151,144.910 288.400,161.600 288.400 C 178.290 288.400,177.200 289.151,177.200 277.651 C 177.200 270.070,177.199 270.060,176.164 268.831 L 175.129 267.600 161.600 267.600 L 148.071 267.600 147.036 268.831 M185.744 268.184 C 184.162 269.292,183.942 270.661,184.075 278.578 L 184.200 286.067 185.506 287.234 L 186.813 288.400 199.426 288.400 C 216.436 288.400,215.200 289.239,215.200 277.685 C 215.200 269.781,215.192 269.708,214.219 268.658 L 213.238 267.600 199.908 267.600 C 188.868 267.600,186.435 267.700,185.744 268.184 M223.382 268.582 C 222.404 269.560,222.400 269.595,222.400 277.693 C 222.400 289.298,221.154 288.476,238.514 288.316 L 251.183 288.200 252.291 287.092 L 253.400 285.984 253.525 278.536 C 253.724 266.759,254.942 267.600,237.693 267.600 L 224.364 267.600 223.382 268.582 M261.475 268.722 L 260.400 269.844 260.409 277.822 C 260.422 289.184,259.269 288.400,275.955 288.400 C 292.697 288.400,291.600 289.154,291.600 277.651 C 291.600 270.070,291.599 270.060,290.564 268.831 L 289.529 267.600 276.039 267.600 L 262.550 267.600 261.475 268.722 M131.200 277.809 L 131.200 280.417 123.500 280.309 L 115.800 280.200 115.676 278.251 C 115.472 275.041,115.060 275.200,123.587 275.200 L 131.200 275.200 131.200 277.809 M169.200 277.800 L 169.200 280.400 161.600 280.400 L 154.000 280.400 154.000 277.800 L 154.000 275.200 161.600 275.200 L 169.200 275.200 169.200 277.800 M207.519 277.900 L 207.638 280.400 199.819 280.400 L 192.000 280.400 192.000 277.791 L 192.000 275.183 199.700 275.291 L 207.400 275.400 207.519 277.900 M245.600 277.800 L 245.600 280.400 237.800 280.400 L 230.000 280.400 230.000 278.067 C 230.000 275.009,229.462 275.200,238.067 275.200 L 245.600 275.200 245.600 277.800 M283.600 277.800 L 283.600 280.400 276.000 280.400 L 268.400 280.400 268.400 277.800 L 268.400 275.200 276.000 275.200 L 283.600 275.200 283.600 277.800 " stroke="none" fill="#efda14" fill-rule="evenodd"></path><path id="path1" d="M0.000 200.000 L 0.000 400.000 200.000 400.000 L 400.000 400.000 400.000 200.000 L 400.000 0.000 200.000 0.000 L 0.000 0.000 0.000 200.000 M300.311 103.915 C 305.775 109.166,305.899 109.614,302.860 113.146 C 301.794 114.386,299.891 116.740,298.632 118.378 L 296.343 121.357 298.089 122.244 C 299.911 123.170,302.363 125.677,303.900 128.186 L 304.800 129.655 304.800 211.204 C 304.800 265.904,304.666 292.835,304.394 293.004 C 304.171 293.141,303.645 293.928,303.224 294.752 C 302.294 296.576,299.872 298.990,298.333 299.628 C 297.710 299.886,297.200 300.255,297.200 300.449 C 297.200 300.650,255.551 300.796,199.900 300.790 L 102.600 300.780 100.400 299.263 C 99.190 298.429,97.615 296.883,96.900 295.828 L 95.600 293.910 95.600 211.281 L 95.600 128.653 96.431 126.936 C 98.743 122.159,100.934 121.425,113.315 121.275 L 123.631 121.151 125.015 122.535 C 126.582 124.102,126.810 125.646,125.773 127.651 C 124.691 129.744,123.390 130.000,113.841 130.000 C 106.571 130.000,105.161 130.096,104.629 130.629 C 104.082 131.175,104.000 133.024,104.000 144.829 L 104.000 158.400 161.487 158.400 L 218.975 158.400 221.053 156.347 L 223.132 154.294 222.342 152.778 C 221.620 151.393,221.562 150.595,221.675 143.637 L 221.800 136.013 223.107 134.707 L 224.414 133.400 236.307 133.200 L 248.200 133.000 250.152 131.504 L 252.103 130.009 200.221 129.904 L 148.338 129.800 146.969 128.306 C 144.944 126.095,145.241 123.495,147.690 122.002 C 148.983 121.213,149.737 121.203,206.097 121.201 L 263.193 121.200 270.497 115.522 C 274.513 112.400,279.870 108.199,282.400 106.188 C 290.945 99.395,290.603 99.600,293.369 99.600 L 295.822 99.600 300.311 103.915 M287.965 112.918 C 285.415 114.943,280.213 119.030,276.404 122.000 C 232.502 156.233,221.113 166.561,213.660 178.901 C 211.092 183.152,210.853 182.269,215.954 187.355 L 220.309 191.695 222.654 190.436 C 231.879 185.482,247.456 169.733,263.242 149.400 C 265.799 146.107,271.070 139.400,276.419 132.632 C 280.278 127.750,288.022 117.812,291.919 112.742 C 293.897 110.169,294.223 109.174,293.076 109.218 C 292.814 109.228,290.514 110.893,287.965 112.918 M136.640 122.560 C 139.037 124.957,138.219 128.538,135.034 129.589 C 130.370 131.128,127.207 124.159,131.510 121.824 C 133.412 120.791,135.116 121.036,136.640 122.560 M288.309 131.560 L 287.217 133.103 288.365 133.333 C 288.995 133.459,290.026 134.005,290.656 134.546 L 291.800 135.529 291.923 143.982 L 292.045 152.435 290.663 153.817 L 289.280 155.200 279.507 155.200 L 269.734 155.200 268.467 156.777 C 267.770 157.644,267.200 158.409,267.200 158.477 C 267.200 158.544,273.590 158.551,281.400 158.490 L 295.600 158.380 295.600 145.079 C 295.600 129.368,295.755 129.995,291.877 130.009 C 289.461 130.017,289.373 130.055,288.309 131.560 M136.944 133.751 C 139.248 134.714,139.600 136.106,139.599 144.260 C 139.598 155.792,140.493 155.186,123.462 155.194 C 106.271 155.202,107.073 155.766,107.275 143.816 C 107.464 132.668,106.639 133.214,123.313 133.206 C 132.874 133.201,135.920 133.323,136.944 133.751 M175.196 133.798 C 177.503 134.991,177.600 135.417,177.600 144.329 L 177.600 152.480 176.240 153.840 L 174.880 155.200 161.600 155.200 L 148.320 155.200 146.960 153.840 L 145.600 152.480 145.600 144.414 C 145.600 132.453,144.535 133.204,161.520 133.201 C 171.847 133.200,174.242 133.305,175.196 133.798 M214.493 134.707 L 215.800 136.013 215.924 143.595 C 216.124 155.807,216.965 155.200,199.846 155.200 C 182.654 155.200,183.604 155.839,183.601 144.280 C 183.599 132.527,182.606 133.180,200.293 133.307 L 213.186 133.400 214.493 134.707 M116.367 142.166 C 116.275 142.258,116.262 143.248,116.339 144.366 L 116.477 146.400 123.639 146.400 L 130.800 146.400 130.800 144.200 L 130.800 142.000 123.667 142.000 C 119.743 142.000,116.458 142.075,116.367 142.166 M154.400 144.191 L 154.400 146.400 161.821 146.400 L 169.242 146.400 169.121 144.300 L 169.000 142.200 161.700 142.091 L 154.400 141.982 154.400 144.191 M192.676 142.258 C 192.524 142.409,192.400 143.407,192.400 144.476 L 192.400 146.418 199.700 146.309 L 207.000 146.200 207.000 144.200 L 207.000 142.200 199.976 142.091 C 196.112 142.031,192.827 142.106,192.676 142.258 M230.667 142.267 C 229.979 142.954,230.391 146.400,231.161 146.400 C 231.782 146.400,236.800 142.607,236.800 142.137 C 236.800 141.877,230.933 142.001,230.667 142.267 M279.823 142.635 C 278.907 143.551,277.200 145.830,277.200 146.138 C 277.200 146.282,278.550 146.400,280.200 146.400 L 283.200 146.400 283.200 144.200 L 283.200 142.000 281.829 142.000 C 281.074 142.000,280.172 142.286,279.823 142.635 M104.000 211.006 L 104.000 254.800 182.440 254.800 L 260.880 254.800 262.240 256.160 C 263.772 257.692,264.005 259.256,262.993 261.213 C 261.666 263.780,267.772 263.600,182.020 263.600 L 104.000 263.600 104.000 277.026 C 104.000 285.516,104.152 290.737,104.414 291.226 C 104.822 291.988,106.311 292.000,199.591 292.000 L 294.355 292.000 294.977 291.111 C 295.511 290.350,295.600 288.311,295.600 276.911 L 295.600 263.600 290.900 263.599 C 284.485 263.596,282.243 262.092,282.960 258.271 C 283.467 255.568,284.619 255.025,290.330 254.800 L 295.400 254.600 295.400 211.000 L 295.400 167.400 277.625 167.400 L 259.849 167.400 256.978 170.800 C 245.695 184.162,233.875 194.658,225.428 198.816 C 222.910 200.055,222.695 200.275,221.347 202.962 C 216.636 212.360,210.337 217.886,201.377 220.480 C 196.899 221.777,183.774 221.868,181.706 220.618 C 178.972 218.964,178.717 217.172,180.649 213.189 C 181.447 211.545,183.255 206.780,184.667 202.600 C 188.800 190.371,192.249 185.531,199.322 182.035 C 202.777 180.327,202.868 180.245,204.177 177.647 C 204.911 176.191,206.701 173.344,208.156 171.319 C 209.610 169.295,210.800 167.539,210.800 167.417 C 210.800 167.294,186.770 167.198,157.400 167.203 L 104.000 167.211 104.000 211.006 M203.400 189.680 C 198.724 192.102,196.402 195.351,193.967 202.880 C 193.020 205.806,191.844 209.235,191.353 210.500 L 190.459 212.800 192.804 212.800 C 201.241 212.800,208.695 208.292,212.563 200.850 L 214.096 197.900 209.548 193.375 L 205.000 188.851 203.400 189.680 M278.136 255.621 C 280.547 257.518,280.229 261.640,277.566 263.018 C 273.175 265.288,269.064 259.656,272.560 256.160 C 274.210 254.510,276.449 254.294,278.136 255.621 M138.093 268.307 L 139.400 269.613 139.524 277.163 C 139.726 289.494,140.619 288.878,122.782 288.716 L 110.014 288.600 108.707 287.293 L 107.400 285.987 107.276 278.638 C 107.067 266.266,106.386 266.747,123.893 266.893 L 136.786 267.000 138.093 268.307 M174.961 267.358 C 177.484 268.412,177.600 268.875,177.600 277.883 L 177.600 285.987 176.433 287.294 L 175.267 288.600 162.733 288.727 C 144.593 288.912,145.600 289.552,145.600 277.835 C 145.600 268.933,145.722 268.432,148.151 267.375 C 149.987 266.576,173.054 266.561,174.961 267.358 M213.188 267.312 C 215.654 268.560,216.000 269.837,216.000 277.699 C 216.000 289.314,216.748 288.800,199.827 288.800 C 182.731 288.800,183.600 289.389,183.600 277.800 C 183.600 266.224,182.723 266.819,199.800 266.815 C 208.931 266.813,212.460 266.944,213.188 267.312 M252.631 268.494 L 254.000 269.988 254.000 277.614 C 254.000 289.420,254.899 288.800,237.773 288.800 C 220.852 288.800,221.600 289.314,221.600 277.699 C 221.600 266.302,220.892 266.759,238.331 266.897 L 251.262 267.000 252.631 268.494 M289.386 267.368 C 291.752 268.357,292.000 269.379,292.000 278.126 C 292.000 289.503,292.957 288.911,274.867 288.727 L 262.333 288.600 261.167 287.294 L 260.000 285.987 260.000 278.174 C 260.000 269.443,260.250 268.375,262.526 267.385 C 264.405 266.568,287.436 266.554,289.386 267.368 M116.376 275.700 C 116.363 275.755,116.318 276.745,116.276 277.900 L 116.200 280.001 123.500 280.000 L 130.800 280.000 130.800 277.800 L 130.800 275.600 123.600 275.600 C 119.640 275.600,116.389 275.645,116.376 275.700 M154.400 277.825 L 154.400 280.000 161.821 280.000 L 169.242 280.000 169.121 277.900 L 169.000 275.800 161.700 275.725 L 154.400 275.649 154.400 277.825 M192.676 275.858 C 192.524 276.009,192.400 277.003,192.400 278.067 L 192.400 280.000 199.821 280.000 L 207.242 280.000 207.121 277.900 L 207.000 275.800 199.976 275.691 C 196.112 275.631,192.827 275.706,192.676 275.858 M230.676 275.858 C 230.524 276.009,230.400 277.003,230.400 278.067 L 230.400 280.000 237.821 280.000 L 245.242 280.000 245.121 277.900 L 245.000 275.800 237.976 275.691 C 234.112 275.631,230.827 275.706,230.676 275.858 M268.667 275.867 C 268.520 276.013,268.400 277.003,268.400 278.067 L 268.400 280.000 275.800 280.000 L 283.200 280.000 283.200 277.800 L 283.200 275.600 276.067 275.600 C 272.143 275.600,268.813 275.720,268.667 275.867 " stroke="none" fill="#131b1c" fill-rule="evenodd"></path><path id="path2" d="M103.780 145.200 C 103.780 152.790,103.834 155.895,103.899 152.100 C 103.965 148.305,103.965 142.095,103.899 138.300 C 103.834 134.505,103.780 137.610,103.780 145.200 M291.767 144.200 C 291.767 148.380,291.826 150.036,291.898 147.879 C 291.971 145.723,291.970 142.303,291.898 140.279 C 291.825 138.256,291.766 140.020,291.767 144.200 M139.365 144.200 C 139.366 148.160,139.426 149.726,139.498 147.680 C 139.571 145.634,139.571 142.394,139.498 140.480 C 139.424 138.566,139.365 140.240,139.365 144.200 M183.765 144.200 C 183.766 148.160,183.826 149.726,183.898 147.680 C 183.971 145.634,183.971 142.394,183.898 140.480 C 183.824 138.566,183.765 140.240,183.765 144.200 M130.872 144.091 L 130.800 146.382 123.500 146.501 L 116.200 146.619 123.513 146.710 C 131.723 146.811,131.346 146.958,131.096 143.749 L 130.944 141.800 130.872 144.091 M192.167 144.298 L 192.200 146.600 199.600 146.614 L 207.000 146.629 199.720 146.505 L 192.439 146.382 192.287 144.189 L 192.134 141.996 192.167 144.298 M158.121 146.698 C 160.277 146.771,163.697 146.770,165.721 146.698 C 167.744 146.625,165.980 146.566,161.800 146.567 C 157.620 146.567,155.964 146.626,158.121 146.698 M278.300 146.693 C 279.235 146.777,280.765 146.777,281.700 146.693 C 282.635 146.609,281.870 146.540,280.000 146.540 C 278.130 146.540,277.365 146.609,278.300 146.693 M117.325 155.099 C 120.804 155.166,126.384 155.166,129.725 155.099 C 133.066 155.032,130.220 154.978,123.400 154.978 C 116.580 154.978,113.846 155.033,117.325 155.099 M155.300 155.099 C 158.765 155.166,164.435 155.166,167.900 155.099 C 171.365 155.033,168.530 154.978,161.600 154.978 C 154.670 154.978,151.835 155.033,155.300 155.099 M193.300 155.099 C 196.765 155.166,202.435 155.166,205.900 155.099 C 209.365 155.033,206.530 154.978,199.600 154.978 C 192.670 154.978,189.835 155.033,193.300 155.099 M269.461 155.100 C 269.359 155.265,272.093 155.354,275.537 155.297 C 287.392 155.101,288.578 154.964,279.124 154.882 C 273.912 154.837,269.563 154.935,269.461 155.100 M222.575 166.900 L 221.400 168.200 222.700 167.025 C 223.415 166.379,224.000 165.794,224.000 165.725 C 224.000 165.416,223.670 165.688,222.575 166.900 M103.793 211.400 C 103.793 235.380,103.841 245.249,103.900 233.331 C 103.959 221.413,103.959 201.793,103.900 189.731 C 103.841 177.669,103.793 187.420,103.793 211.400 M248.175 180.100 L 247.000 181.400 248.300 180.225 C 249.015 179.579,249.600 178.994,249.600 178.925 C 249.600 178.616,249.270 178.888,248.175 180.100 M214.000 185.800 C 215.195 187.010,216.263 188.000,216.373 188.000 C 216.483 188.000,215.595 187.010,214.400 185.800 C 213.205 184.590,212.137 183.600,212.027 183.600 C 211.917 183.600,212.805 184.590,214.000 185.800 M242.175 186.100 L 241.000 187.400 242.300 186.225 C 243.015 185.579,243.600 184.994,243.600 184.925 C 243.600 184.616,243.270 184.888,242.175 186.100 M212.017 195.815 C 213.217 197.143,214.282 198.171,214.381 198.100 C 214.481 198.029,213.498 196.943,212.198 195.686 L 209.833 193.400 212.017 195.815 M214.378 212.700 L 213.000 214.200 214.500 212.822 C 215.896 211.538,216.184 211.200,215.878 211.200 C 215.812 211.200,215.137 211.875,214.378 212.700 M103.780 277.200 C 103.780 284.790,103.834 287.895,103.899 284.100 C 103.965 280.305,103.965 274.095,103.899 270.300 C 103.834 266.505,103.780 269.610,103.780 277.200 M291.767 277.800 C 291.767 281.980,291.826 283.636,291.898 281.479 C 291.971 279.323,291.970 275.903,291.898 273.879 C 291.825 271.856,291.766 273.620,291.767 277.800 M183.765 277.800 C 183.766 281.760,183.826 283.326,183.898 281.280 C 183.971 279.234,183.971 275.994,183.898 274.080 C 183.824 272.166,183.765 273.840,183.765 277.800 M253.765 277.800 C 253.766 281.760,253.826 283.326,253.898 281.280 C 253.971 279.234,253.971 275.994,253.898 274.080 C 253.824 272.166,253.765 273.840,253.765 277.800 M139.365 278.000 C 139.365 281.850,139.425 283.425,139.498 281.500 C 139.571 279.575,139.571 276.425,139.498 274.500 C 139.425 272.575,139.365 274.150,139.365 278.000 M130.872 277.691 L 130.800 279.982 123.300 280.101 L 115.800 280.219 123.313 280.309 C 131.745 280.411,131.346 280.563,131.096 277.349 L 130.944 275.400 130.872 277.691 M192.167 277.898 L 192.200 280.200 199.600 280.213 L 207.000 280.226 199.720 280.104 L 192.439 279.982 192.287 277.789 L 192.134 275.596 192.167 277.898 M245.270 277.891 L 245.200 279.982 237.700 280.101 L 230.200 280.219 237.713 280.309 C 246.095 280.410,245.761 280.529,245.495 277.546 C 245.341 275.813,245.339 275.815,245.270 277.891 M158.121 280.298 C 160.277 280.371,163.697 280.370,165.721 280.298 C 167.744 280.225,165.980 280.166,161.800 280.167 C 157.620 280.167,155.964 280.226,158.121 280.298 M272.121 280.298 C 274.277 280.371,277.697 280.370,279.721 280.298 C 281.744 280.225,279.980 280.166,275.800 280.167 C 271.620 280.167,269.964 280.226,272.121 280.298 " stroke="none" fill="#605d1c" fill-rule="evenodd"></path><path id="path3" d="M302.000 105.800 C 302.746 106.570,303.447 107.200,303.557 107.200 C 303.667 107.200,303.146 106.570,302.400 105.800 C 301.654 105.030,300.953 104.400,300.843 104.400 C 300.733 104.400,301.254 105.030,302.000 105.800 M304.390 109.519 L 304.583 111.400 304.719 109.847 C 304.793 108.993,304.707 108.147,304.526 107.966 C 304.345 107.785,304.284 108.484,304.390 109.519 M145.693 125.600 C 145.693 126.370,145.775 126.685,145.876 126.300 C 145.976 125.915,145.976 125.285,145.876 124.900 C 145.775 124.515,145.693 124.830,145.693 125.600 M95.796 211.200 C 95.796 256.850,95.843 275.525,95.900 252.700 C 95.957 229.875,95.957 192.525,95.900 169.700 C 95.843 146.875,95.796 165.550,95.796 211.200 M303.900 128.799 C 304.297 129.244,304.400 146.254,304.400 211.000 C 304.400 275.746,304.297 292.756,303.900 293.201 C 303.475 293.678,303.504 293.682,304.100 293.232 C 304.763 292.730,304.800 288.343,304.800 211.000 C 304.800 133.657,304.763 129.270,304.100 128.768 C 303.504 128.318,303.475 128.322,303.900 128.799 M109.678 129.898 C 112.031 129.969,115.991 129.969,118.478 129.899 C 120.965 129.829,119.040 129.771,114.200 129.770 C 109.360 129.770,107.325 129.828,109.678 129.898 M174.900 129.900 C 189.145 129.958,212.455 129.958,226.700 129.900 C 240.945 129.842,229.290 129.794,200.800 129.794 C 172.310 129.794,160.655 129.842,174.900 129.900 M290.707 129.890 C 291.426 129.979,292.506 129.977,293.107 129.886 C 293.708 129.795,293.120 129.722,291.800 129.724 C 290.480 129.726,289.988 129.801,290.707 129.890 M236.600 133.200 L 225.000 133.418 236.476 133.509 C 243.795 133.567,248.042 133.455,248.200 133.200 C 248.336 132.980,248.392 132.841,248.324 132.891 C 248.256 132.941,242.980 133.080,236.600 133.200 M117.125 133.499 C 120.714 133.566,126.474 133.566,129.925 133.499 C 133.376 133.433,130.440 133.378,123.400 133.378 C 116.360 133.379,113.536 133.433,117.125 133.499 M155.100 133.499 C 158.675 133.566,164.525 133.566,168.100 133.499 C 171.675 133.433,168.750 133.379,161.600 133.379 C 154.450 133.379,151.525 133.433,155.100 133.499 M193.525 133.499 C 197.114 133.566,202.874 133.566,206.325 133.499 C 209.776 133.433,206.840 133.378,199.800 133.378 C 192.760 133.379,189.936 133.433,193.525 133.499 M215.767 144.200 C 215.767 148.380,215.826 150.036,215.898 147.879 C 215.971 145.723,215.970 142.303,215.898 140.279 C 215.825 138.256,215.766 140.020,215.767 144.200 M221.767 144.200 C 221.767 148.380,221.826 150.036,221.898 147.879 C 221.971 145.723,221.970 142.303,221.898 140.279 C 221.825 138.256,221.766 140.020,221.767 144.200 M107.366 144.400 C 107.366 148.470,107.425 150.135,107.498 148.100 C 107.571 146.065,107.571 142.735,107.498 140.700 C 107.425 138.665,107.366 140.330,107.366 144.400 M154.124 144.200 C 154.126 145.520,154.201 146.012,154.290 145.293 C 154.379 144.574,154.377 143.494,154.286 142.893 C 154.195 142.292,154.122 142.880,154.124 144.200 M283.320 144.400 C 283.320 145.610,283.395 146.105,283.487 145.500 C 283.578 144.895,283.578 143.905,283.487 143.300 C 283.395 142.695,283.320 143.190,283.320 144.400 M116.114 144.600 C 116.117 145.700,116.195 146.103,116.287 145.495 C 116.379 144.886,116.377 143.986,116.282 143.495 C 116.187 143.003,116.111 143.500,116.114 144.600 M219.361 157.999 C 219.101 158.259,198.966 158.433,161.381 158.500 L 103.800 158.603 161.451 158.701 C 212.289 158.788,219.161 158.729,219.600 158.200 C 220.157 157.529,219.980 157.380,219.361 157.999 M274.500 158.699 C 278.405 158.765,284.795 158.765,288.700 158.699 C 292.605 158.634,289.410 158.580,281.600 158.580 C 273.790 158.580,270.595 158.634,274.500 158.699 M226.388 163.100 L 223.800 165.800 226.500 163.212 C 227.985 161.788,229.200 160.573,229.200 160.512 C 229.200 160.217,228.793 160.592,226.388 163.100 M241.785 174.500 L 239.800 176.600 241.900 174.615 C 243.851 172.771,244.183 172.400,243.885 172.400 C 243.822 172.400,242.877 173.345,241.785 174.500 M250.981 177.300 L 249.400 179.000 251.100 177.419 C 252.681 175.948,252.984 175.600,252.681 175.600 C 252.616 175.600,251.851 176.365,250.981 177.300 M244.581 184.100 L 243.000 185.800 244.700 184.219 C 246.281 182.748,246.584 182.400,246.281 182.400 C 246.216 182.400,245.451 183.165,244.581 184.100 M193.178 186.300 L 191.800 187.800 193.300 186.422 C 194.125 185.663,194.800 184.988,194.800 184.922 C 194.800 184.616,194.462 184.904,193.178 186.300 M217.983 189.700 C 218.964 190.745,219.819 191.600,219.883 191.600 C 220.184 191.600,219.866 191.241,218.100 189.583 L 216.200 187.800 217.983 189.700 M207.600 191.400 C 208.795 192.610,209.863 193.600,209.973 193.600 C 210.083 193.600,209.195 192.610,208.000 191.400 C 206.805 190.190,205.737 189.200,205.627 189.200 C 205.517 189.200,206.405 190.190,207.600 191.400 M191.105 213.083 C 191.602 213.179,192.322 213.175,192.705 213.075 C 193.087 212.975,192.680 212.896,191.800 212.901 C 190.920 212.905,190.607 212.987,191.105 213.083 M185.700 221.476 C 186.085 221.576,186.715 221.576,187.100 221.476 C 187.485 221.375,187.170 221.293,186.400 221.293 C 185.630 221.293,185.315 221.375,185.700 221.476 M142.868 263.500 C 164.356 263.557,199.636 263.557,221.268 263.500 C 242.901 263.443,225.320 263.396,182.200 263.396 C 139.080 263.396,121.381 263.443,142.868 263.500 M274.900 263.476 C 275.285 263.576,275.915 263.576,276.300 263.476 C 276.685 263.375,276.370 263.293,275.600 263.293 C 274.830 263.293,274.515 263.375,274.900 263.476 M288.300 263.496 C 289.675 263.574,291.925 263.574,293.300 263.496 C 294.675 263.418,293.550 263.354,290.800 263.354 C 288.050 263.354,286.925 263.418,288.300 263.496 M117.125 267.099 C 120.714 267.166,126.474 267.166,129.925 267.099 C 133.376 267.033,130.440 266.978,123.400 266.978 C 116.360 266.979,113.536 267.033,117.125 267.099 M155.300 267.099 C 158.765 267.166,164.435 267.166,167.900 267.099 C 171.365 267.033,168.530 266.978,161.600 266.978 C 154.670 266.978,151.835 267.033,155.300 267.099 M193.525 267.099 C 197.114 267.166,202.874 267.166,206.325 267.099 C 209.776 267.033,206.840 266.978,199.800 266.978 C 192.760 266.979,189.936 267.033,193.525 267.099 M231.525 267.099 C 235.114 267.166,240.874 267.166,244.325 267.099 C 247.776 267.033,244.840 266.978,237.800 266.978 C 230.760 266.979,227.936 267.033,231.525 267.099 M269.700 267.099 C 273.165 267.166,278.835 267.166,282.300 267.099 C 285.765 267.033,282.930 266.978,276.000 266.978 C 269.070 266.978,266.235 267.033,269.700 267.099 M215.767 277.800 C 215.767 281.980,215.826 283.636,215.898 281.479 C 215.971 279.323,215.970 275.903,215.898 273.879 C 215.825 271.856,215.766 273.620,215.767 277.800 M221.767 277.800 C 221.767 281.980,221.826 283.636,221.898 281.479 C 221.971 279.323,221.970 275.903,221.898 273.879 C 221.825 271.856,221.766 273.620,221.767 277.800 M107.366 278.000 C 107.366 282.070,107.425 283.735,107.498 281.700 C 107.571 279.665,107.571 276.335,107.498 274.300 C 107.425 272.265,107.366 273.930,107.366 278.000 M154.120 278.000 C 154.120 279.210,154.195 279.705,154.287 279.100 C 154.378 278.495,154.378 277.505,154.287 276.900 C 154.195 276.295,154.120 276.790,154.120 278.000 M283.320 278.000 C 283.320 279.210,283.395 279.705,283.487 279.100 C 283.578 278.495,283.578 277.505,283.487 276.900 C 283.395 276.295,283.320 276.790,283.320 278.000 M116.109 278.000 C 116.109 278.990,116.187 279.395,116.282 278.900 C 116.378 278.405,116.378 277.595,116.282 277.100 C 116.187 276.605,116.109 277.010,116.109 278.000 M117.125 288.699 C 120.714 288.766,126.474 288.766,129.925 288.699 C 133.376 288.633,130.440 288.578,123.400 288.578 C 116.360 288.579,113.536 288.633,117.125 288.699 M155.300 288.699 C 158.765 288.766,164.435 288.766,167.900 288.699 C 171.365 288.633,168.530 288.578,161.600 288.578 C 154.670 288.578,151.835 288.633,155.300 288.699 M193.525 288.699 C 197.114 288.766,202.874 288.766,206.325 288.699 C 209.776 288.633,206.840 288.578,199.800 288.578 C 192.760 288.579,189.936 288.633,193.525 288.699 M231.525 288.699 C 235.114 288.766,240.874 288.766,244.325 288.699 C 247.776 288.633,244.840 288.578,237.800 288.578 C 230.760 288.579,227.936 288.633,231.525 288.699 M269.700 288.699 C 273.165 288.766,278.835 288.766,282.300 288.699 C 285.765 288.633,282.930 288.578,276.000 288.578 C 269.070 288.578,266.235 288.633,269.700 288.699 M152.732 292.300 C 178.765 292.357,221.245 292.357,247.132 292.300 C 273.019 292.243,251.720 292.197,199.800 292.197 C 147.880 292.197,126.699 292.243,152.732 292.300 " stroke="none" fill="#383b1c" fill-rule="evenodd"></path><path id="path4" d="M299.400 103.600 C 301.371 105.580,303.073 107.200,303.183 107.200 C 303.293 107.200,301.771 105.580,299.800 103.600 C 297.829 101.620,296.127 100.000,296.017 100.000 C 295.907 100.000,297.429 101.620,299.400 103.600 M109.278 121.498 C 111.631 121.569,115.591 121.569,118.078 121.499 C 120.565 121.429,118.640 121.371,113.800 121.370 C 108.960 121.370,106.925 121.428,109.278 121.498 M178.131 121.500 C 193.934 121.558,219.674 121.558,235.331 121.500 C 250.989 121.442,238.060 121.395,206.600 121.395 C 175.140 121.395,162.329 121.442,178.131 121.500 M295.694 144.900 L 295.600 158.800 281.151 158.800 C 267.448 158.800,266.730 158.764,267.251 158.100 C 267.748 157.467,267.734 157.452,267.104 157.945 C 266.722 158.245,266.507 158.650,266.628 158.845 C 266.997 159.442,295.588 159.297,295.818 158.697 C 295.924 158.421,295.961 152.076,295.900 144.597 L 295.789 131.000 295.694 144.900 M286.741 133.701 C 286.943 133.903,287.533 134.001,288.054 133.919 C 288.855 133.793,288.798 133.737,287.687 133.552 C 286.893 133.421,286.519 133.479,286.741 133.701 M116.925 133.899 C 120.624 133.966,126.564 133.965,130.125 133.899 C 133.686 133.833,130.660 133.779,123.400 133.779 C 116.140 133.779,113.226 133.833,116.925 133.899 M155.100 133.899 C 158.675 133.966,164.525 133.966,168.100 133.899 C 171.675 133.833,168.750 133.779,161.600 133.779 C 154.450 133.779,151.525 133.833,155.100 133.899 M193.325 133.899 C 197.024 133.966,202.964 133.965,206.525 133.899 C 210.086 133.833,207.060 133.779,199.800 133.779 C 192.540 133.779,189.626 133.833,193.325 133.899 M230.524 133.899 C 233.783 133.967,239.003 133.966,242.124 133.899 C 245.246 133.831,242.580 133.776,236.200 133.777 C 229.820 133.777,227.266 133.832,230.524 133.899 M215.368 144.200 C 215.368 148.600,215.426 150.455,215.498 148.321 C 215.570 146.188,215.570 142.588,215.499 140.321 C 215.427 138.055,215.368 139.800,215.368 144.200 M222.168 144.200 C 222.168 148.600,222.226 150.455,222.298 148.321 C 222.370 146.188,222.370 142.588,222.299 140.321 C 222.227 138.055,222.168 139.800,222.168 144.200 M107.767 144.400 C 107.767 148.690,107.826 150.445,107.898 148.300 C 107.970 146.155,107.970 142.645,107.898 140.500 C 107.826 138.355,107.767 140.110,107.767 144.400 M145.765 144.200 C 145.766 148.160,145.826 149.726,145.898 147.680 C 145.971 145.634,145.971 142.394,145.898 140.480 C 145.824 138.566,145.765 140.240,145.765 144.200 M177.365 144.200 C 177.366 148.160,177.426 149.726,177.498 147.680 C 177.571 145.634,177.571 142.394,177.498 140.480 C 177.424 138.566,177.365 140.240,177.365 144.200 M115.867 141.867 C 115.500 142.234,115.529 146.309,115.900 146.539 C 116.065 146.642,116.139 145.667,116.065 144.372 L 115.930 142.018 123.665 141.900 L 131.400 141.782 123.767 141.691 C 119.568 141.641,116.013 141.720,115.867 141.867 M157.700 141.898 C 159.845 141.970,163.355 141.970,165.500 141.898 C 167.645 141.826,165.890 141.767,161.600 141.767 C 157.310 141.767,155.555 141.826,157.700 141.898 M199.535 141.895 L 207.270 142.018 207.135 144.390 C 207.061 145.695,207.145 146.617,207.323 146.439 C 207.500 146.260,207.590 145.144,207.523 143.957 L 207.400 141.800 199.600 141.786 L 191.800 141.773 199.535 141.895 M230.165 142.148 C 230.049 142.449,230.021 143.664,230.103 144.848 L 230.252 147.000 230.326 144.500 L 230.400 142.000 233.849 142.000 C 237.076 142.000,237.263 142.045,236.749 142.700 C 236.251 143.334,236.266 143.349,236.900 142.851 C 238.187 141.842,237.625 141.600,233.987 141.600 C 231.299 141.600,230.321 141.740,230.165 142.148 M280.905 141.887 C 281.514 141.979,282.414 141.977,282.905 141.882 C 283.397 141.787,282.900 141.711,281.800 141.714 C 280.700 141.717,280.297 141.795,280.905 141.887 M235.375 154.500 L 234.200 155.800 235.500 154.625 C 236.215 153.979,236.800 153.394,236.800 153.325 C 236.800 153.016,236.470 153.288,235.375 154.500 M222.175 155.700 L 221.000 157.000 222.300 155.825 C 223.015 155.179,223.600 154.594,223.600 154.525 C 223.600 154.216,223.270 154.488,222.175 155.700 M231.978 157.500 L 230.600 159.000 232.100 157.622 C 233.496 156.338,233.784 156.000,233.478 156.000 C 233.412 156.000,232.737 156.675,231.978 157.500 M132.731 159.100 C 148.644 159.158,174.564 159.158,190.331 159.100 C 206.099 159.042,193.080 158.995,161.400 158.995 C 129.720 158.995,116.819 159.042,132.731 159.100 M225.188 163.900 L 222.600 166.600 225.300 164.012 C 226.785 162.588,228.000 161.373,228.000 161.312 C 228.000 161.017,227.593 161.392,225.188 163.900 M157.523 167.100 C 197.909 167.177,211.175 167.317,210.961 167.663 C 210.784 167.950,210.853 168.015,211.145 167.834 C 212.673 166.889,207.885 166.806,157.476 166.899 L 103.800 166.997 157.523 167.100 M259.172 167.496 C 258.718 168.095,258.722 168.126,259.199 167.700 C 259.630 167.316,263.910 167.200,277.680 167.200 L 295.600 167.200 295.600 210.987 L 295.600 254.774 291.100 254.901 L 286.600 255.029 291.302 255.114 L 296.004 255.200 295.902 211.100 L 295.800 167.000 277.752 166.896 C 260.922 166.799,259.669 166.839,259.172 167.496 M246.575 169.700 L 245.400 171.000 246.700 169.825 C 247.415 169.179,248.000 168.594,248.000 168.525 C 248.000 168.216,247.670 168.488,246.575 169.700 M254.175 173.300 L 253.000 174.600 254.300 173.425 C 255.015 172.779,255.600 172.194,255.600 172.125 C 255.600 171.816,255.270 172.088,254.175 173.300 M239.593 177.100 L 235.000 181.800 239.700 177.207 C 244.066 172.940,244.582 172.400,244.293 172.400 C 244.235 172.400,242.120 174.515,239.593 177.100 M250.975 176.900 L 249.800 178.200 251.100 177.025 C 251.815 176.379,252.400 175.794,252.400 175.725 C 252.400 175.416,252.070 175.688,250.975 176.900 M245.200 183.000 C 244.228 183.990,243.523 184.800,243.633 184.800 C 243.743 184.800,244.628 183.990,245.600 183.000 C 246.572 182.010,247.277 181.200,247.167 181.200 C 247.057 181.200,246.172 182.010,245.200 183.000 M213.600 185.800 C 215.017 187.230,216.267 188.400,216.377 188.400 C 216.487 188.400,215.417 187.230,214.000 185.800 C 212.583 184.370,211.333 183.200,211.223 183.200 C 211.113 183.200,212.183 184.370,213.600 185.800 M192.981 186.900 L 191.400 188.600 193.100 187.019 C 194.681 185.548,194.984 185.200,194.681 185.200 C 194.616 185.200,193.851 185.965,192.981 186.900 M208.200 191.600 C 209.283 192.700,210.260 193.600,210.370 193.600 C 210.480 193.600,209.683 192.700,208.600 191.600 C 207.517 190.500,206.540 189.600,206.430 189.600 C 206.320 189.600,207.117 190.500,208.200 191.600 M212.383 195.700 C 213.364 196.745,214.219 197.600,214.283 197.600 C 214.584 197.600,214.266 197.241,212.500 195.583 L 210.600 193.800 212.383 195.700 M190.100 221.487 C 190.705 221.578,191.695 221.578,192.300 221.487 C 192.905 221.395,192.410 221.320,191.200 221.320 C 189.990 221.320,189.495 221.395,190.100 221.487 M142.468 255.100 C 163.956 255.157,199.236 255.157,220.868 255.100 C 242.501 255.043,224.920 254.996,181.800 254.996 C 138.680 254.996,120.981 255.043,142.468 255.100 M295.780 277.000 C 295.780 284.700,295.834 287.793,295.899 283.874 C 295.965 279.955,295.965 273.655,295.899 269.874 C 295.834 266.093,295.780 269.300,295.780 277.000 M116.925 267.499 C 120.624 267.566,126.564 267.565,130.125 267.499 C 133.686 267.433,130.660 267.379,123.400 267.379 C 116.140 267.379,113.226 267.433,116.925 267.499 M154.900 267.499 C 158.585 267.565,164.615 267.565,168.300 267.499 C 171.985 267.433,168.970 267.379,161.600 267.379 C 154.230 267.379,151.215 267.433,154.900 267.499 M193.325 267.499 C 197.024 267.566,202.964 267.565,206.525 267.499 C 210.086 267.433,207.060 267.379,199.800 267.379 C 192.540 267.379,189.626 267.433,193.325 267.499 M231.325 267.499 C 235.024 267.566,240.964 267.565,244.525 267.499 C 248.086 267.433,245.060 267.379,237.800 267.379 C 230.540 267.379,227.626 267.433,231.325 267.499 M269.300 267.499 C 272.985 267.565,279.015 267.565,282.700 267.499 C 286.385 267.433,283.370 267.379,276.000 267.379 C 268.630 267.379,265.615 267.433,269.300 267.499 M215.368 277.800 C 215.368 282.200,215.426 284.055,215.498 281.921 C 215.570 279.788,215.570 276.188,215.499 273.921 C 215.427 271.655,215.368 273.400,215.368 277.800 M222.168 277.800 C 222.168 282.200,222.226 284.055,222.298 281.921 C 222.370 279.788,222.370 276.188,222.299 273.921 C 222.227 271.655,222.168 273.400,222.168 277.800 M107.767 278.000 C 107.767 282.290,107.826 284.045,107.898 281.900 C 107.970 279.755,107.970 276.245,107.898 274.100 C 107.826 271.955,107.767 273.710,107.767 278.000 M145.765 277.800 C 145.766 281.760,145.826 283.326,145.898 281.280 C 145.971 279.234,145.971 275.994,145.898 274.080 C 145.824 272.166,145.765 273.840,145.765 277.800 M177.365 277.800 C 177.366 281.760,177.426 283.326,177.498 281.280 C 177.571 279.234,177.571 275.994,177.498 274.080 C 177.424 272.166,177.365 273.840,177.365 277.800 M260.165 277.800 C 260.166 281.760,260.226 283.326,260.298 281.280 C 260.371 279.234,260.371 275.994,260.298 274.080 C 260.224 272.166,260.165 273.840,260.165 277.800 M115.764 275.751 C 115.647 276.054,115.620 277.179,115.704 278.251 L 115.856 280.200 115.928 277.909 L 116.000 275.617 123.700 275.499 L 131.400 275.382 123.687 275.291 C 117.445 275.217,115.935 275.305,115.764 275.751 M157.700 275.498 C 159.845 275.570,163.355 275.570,165.500 275.498 C 167.645 275.426,165.890 275.367,161.600 275.367 C 157.310 275.367,155.555 275.426,157.700 275.498 M199.481 275.495 L 207.162 275.617 207.310 277.909 L 207.457 280.200 207.429 277.800 L 207.400 275.400 199.600 275.386 L 191.800 275.373 199.481 275.495 M230.165 275.748 C 230.049 276.049,230.021 277.264,230.103 278.448 L 230.252 280.600 230.326 278.083 L 230.400 275.567 238.000 275.683 C 242.181 275.747,245.601 275.665,245.600 275.500 C 245.600 274.903,230.395 275.147,230.165 275.748 M272.100 275.498 C 274.245 275.570,277.755 275.570,279.900 275.498 C 282.045 275.426,280.290 275.367,276.000 275.367 C 271.710 275.367,269.955 275.426,272.100 275.498 M152.732 292.700 C 178.765 292.757,221.245 292.757,247.132 292.700 C 273.019 292.643,251.720 292.597,199.800 292.597 C 147.880 292.597,126.699 292.643,152.732 292.700 M98.400 297.400 C 99.146 298.170,99.847 298.800,99.957 298.800 C 100.067 298.800,99.546 298.170,98.800 297.400 C 98.054 296.630,97.353 296.000,97.243 296.000 C 97.133 296.000,97.654 296.630,98.400 297.400 " stroke="none" fill="#837c1c" fill-rule="evenodd"></path></g></svg>