<svg id="svg" version="1.1" xmlns="http://www.w3.org/2000/svg" xmlns:xlink="http://www.w3.org/1999/xlink" width="400" height="141.13345521023766" viewBox="0, 0, 400,141.13345521023766"><g id="svgg"><path id="path0" d="M113.278 30.649 C 114.760 30.705,116.035 30.812,116.112 30.889 C 116.325 31.102,116.387 35.845,116.184 36.375 L 116.008 36.833 113.384 36.833 L 110.761 36.833 110.380 37.276 C 110.019 37.696,110.000 37.851,110.000 40.339 C 110.000 43.630,110.229 43.400,106.881 43.470 C 103.584 43.539,103.842 43.807,103.796 40.271 L 103.759 37.417 103.709 40.124 L 103.658 42.831 103.212 43.124 C 102.838 43.369,102.241 43.430,99.531 43.500 C 96.336 43.582,96.301 43.587,96.648 43.901 C 97.230 44.426,97.184 49.165,96.591 49.758 C 96.044 50.304,91.299 50.402,90.899 49.875 C 90.621 49.509,90.573 44.338,90.843 43.781 C 91.001 43.454,90.995 43.446,90.786 43.704 C 90.555 43.989,90.333 49.005,90.333 53.955 C 90.333 56.679,90.567 56.500,87.013 56.500 C 82.906 56.500,83.347 57.284,83.294 49.889 C 83.270 46.573,83.212 43.826,83.167 43.783 C 83.121 43.741,81.602 43.673,79.791 43.633 L 76.499 43.561 76.833 43.916 C 77.348 44.464,77.338 49.070,76.821 49.728 L 76.476 50.167 70.592 50.167 C 65.327 50.167,64.683 50.138,64.479 49.892 C 64.189 49.543,64.056 44.645,64.318 43.956 L 64.492 43.500 67.852 43.500 L 71.212 43.500 70.772 43.155 L 70.333 42.809 70.333 36.899 C 70.333 32.321,70.286 30.973,70.125 30.917 C 70.010 30.877,68.642 30.823,67.083 30.797 L 64.250 30.750 64.299 33.583 C 64.363 37.339,64.612 37.061,61.105 37.167 C 59.162 37.225,58.286 37.314,58.133 37.467 C 57.957 37.643,57.907 44.259,57.865 72.717 C 57.820 103.104,57.781 107.800,57.569 108.125 C 57.269 108.587,52.057 108.720,51.687 108.275 C 51.552 108.111,51.488 99.319,51.452 75.900 L 51.404 43.750 51.410 79.028 C 51.414 98.431,51.479 114.368,51.555 114.444 C 51.709 114.598,69.359 114.734,69.958 114.586 L 70.333 114.494 70.333 89.158 C 70.333 61.135,70.269 62.788,71.373 62.580 C 72.835 62.306,76.848 62.564,77.162 62.953 C 77.445 63.302,77.465 64.363,77.538 82.203 C 77.581 92.587,77.672 101.215,77.742 101.375 C 77.928 101.802,96.235 101.830,96.399 101.403 C 96.454 101.258,96.500 92.567,96.500 82.090 C 96.500 64.574,96.522 63.022,96.776 62.812 C 97.313 62.366,102.734 62.493,103.204 62.963 L 103.583 63.343 103.700 86.130 C 103.764 98.662,103.877 110.192,103.950 111.750 L 104.083 114.583 113.333 114.583 L 122.583 114.583 122.583 72.750 L 122.583 30.917 119.667 30.804 C 118.063 30.742,115.362 30.659,113.667 30.620 C 110.770 30.553,110.747 30.554,113.278 30.649 M191.500 30.653 C 194.968 30.775,194.667 30.495,194.667 33.604 C 194.667 37.082,194.896 36.833,191.690 36.833 C 188.163 36.833,188.333 36.657,188.333 40.293 C 188.333 43.705,188.542 43.500,185.067 43.500 C 181.862 43.500,182.108 43.787,181.993 39.933 L 181.902 36.917 181.868 39.954 L 181.833 42.991 181.342 43.246 C 180.951 43.448,180.193 43.500,177.652 43.500 L 174.455 43.500 174.894 43.845 L 175.333 44.191 175.333 46.833 L 175.333 49.476 174.894 49.821 C 174.217 50.354,169.351 50.352,169.211 49.819 C 168.980 48.933,168.838 50.134,168.836 53.008 C 168.833 56.841,169.170 56.500,165.389 56.500 C 161.533 56.500,161.935 57.265,161.963 49.973 L 161.985 44.195 161.614 43.952 C 161.087 43.607,154.689 43.451,155.180 43.795 C 155.474 44.001,155.500 44.248,155.500 46.839 L 155.500 49.658 154.989 49.922 C 154.286 50.286,143.221 50.224,142.775 49.855 C 142.449 49.584,142.361 44.404,142.673 43.822 C 142.834 43.521,143.056 43.500,146.131 43.495 L 149.417 43.489 148.958 43.147 L 148.500 42.806 148.500 36.898 C 148.500 32.320,148.453 30.974,148.292 30.918 C 147.760 30.737,142.366 30.756,142.518 30.939 C 142.606 31.045,142.655 32.312,142.629 33.838 L 142.583 36.548 142.133 36.884 C 141.731 37.184,141.462 37.215,139.585 37.182 C 138.411 37.162,137.244 37.225,136.936 37.327 L 136.387 37.508 136.277 41.879 C 136.217 44.283,136.167 60.132,136.167 77.099 C 136.167 106.773,136.155 107.959,135.862 108.224 C 135.389 108.652,129.900 108.637,129.767 108.208 C 129.718 108.048,129.712 108.329,129.754 108.833 C 129.796 109.337,129.831 110.857,129.832 112.210 L 129.833 114.669 139.125 114.626 L 148.417 114.583 148.500 88.963 L 148.583 63.343 148.948 62.978 C 149.672 62.254,155.279 62.316,155.634 63.051 C 155.766 63.323,155.814 62.608,155.825 60.250 C 155.832 58.508,155.901 56.985,155.978 56.864 C 156.229 56.467,161.794 56.658,162.097 57.074 C 162.298 57.348,162.333 60.224,162.333 76.111 L 162.333 94.826 161.957 95.072 C 161.229 95.549,156.118 95.466,155.962 94.974 C 155.894 94.759,155.874 95.063,155.919 95.649 C 155.964 96.236,156.000 97.830,156.000 99.193 L 156.000 101.669 165.292 101.626 L 174.583 101.583 174.667 82.381 C 174.743 64.682,174.772 63.157,175.030 62.898 C 175.509 62.420,180.766 62.336,181.333 62.798 L 181.750 63.137 181.868 85.944 C 181.932 98.487,182.045 110.063,182.118 111.667 L 182.250 114.583 191.500 114.583 L 200.750 114.583 200.792 72.724 L 200.834 30.865 197.709 30.762 C 195.990 30.706,193.271 30.636,191.667 30.608 L 188.750 30.556 191.500 30.653 M247.000 30.661 C 253.921 30.710,259.677 30.811,259.792 30.885 C 260.225 31.165,260.073 36.406,259.625 36.638 C 259.353 36.779,255.803 36.856,246.750 36.918 C 239.875 36.964,231.312 37.041,227.721 37.088 C 221.571 37.169,221.188 37.157,221.116 36.879 C 221.073 36.716,221.030 38.018,221.019 39.771 C 220.995 43.759,221.355 43.401,217.306 43.471 C 215.037 43.511,214.195 43.578,214.279 43.713 C 214.478 44.035,214.336 108.046,214.136 108.287 C 213.842 108.642,208.778 108.585,208.479 108.224 C 208.288 107.994,208.236 103.215,208.165 79.099 L 208.081 50.250 208.116 79.500 C 208.157 113.122,208.180 114.457,208.716 114.587 C 208.918 114.635,213.133 114.655,218.083 114.629 L 227.083 114.583 227.127 108.427 C 227.166 102.992,227.203 102.236,227.445 101.969 C 227.880 101.488,246.093 101.502,246.690 101.985 L 247.083 102.303 247.250 108.443 L 247.417 114.583 256.750 114.583 L 266.083 114.583 266.083 72.750 L 266.083 30.917 263.167 30.789 C 261.563 30.718,254.438 30.641,247.333 30.616 L 234.417 30.572 247.000 30.661 M338.667 30.665 C 345.679 30.717,351.435 30.776,351.458 30.796 C 351.629 30.948,351.470 36.500,351.292 36.615 C 351.177 36.689,345.421 36.801,338.500 36.863 C 325.739 36.977,319.753 37.141,319.375 37.385 C 319.223 37.483,319.167 38.232,319.167 40.165 C 319.167 43.605,319.482 43.333,315.488 43.333 L 312.333 43.333 312.333 46.308 C 312.333 48.039,312.257 49.503,312.150 49.808 L 311.967 50.333 309.408 50.333 C 307.919 50.333,306.683 50.409,306.451 50.515 L 306.053 50.696 305.943 55.458 C 305.883 58.078,305.831 67.990,305.828 77.485 C 305.824 91.577,305.782 94.804,305.601 95.042 C 305.277 95.469,300.331 95.483,299.979 95.058 C 299.789 94.829,299.735 91.557,299.664 75.849 L 299.578 56.917 299.616 76.333 C 299.656 96.620,299.730 101.091,300.029 101.451 C 300.169 101.620,301.483 101.667,306.086 101.667 C 311.521 101.667,311.975 101.689,312.102 101.958 C 312.177 102.119,312.317 105.025,312.411 108.417 L 312.583 114.583 334.899 114.626 C 351.397 114.657,357.274 114.618,357.443 114.478 C 357.741 114.231,357.701 83.301,357.403 83.003 C 357.098 82.698,338.928 82.547,338.735 82.848 C 338.651 82.978,338.569 85.704,338.552 88.908 C 338.517 95.199,338.499 95.425,338.000 95.583 C 337.540 95.729,337.581 96.000,338.063 96.000 C 338.666 96.000,338.963 99.843,338.491 101.543 L 338.317 102.169 325.450 102.126 L 312.583 102.083 312.538 98.958 L 312.493 95.833 315.913 95.833 L 319.333 95.833 319.000 95.500 C 318.536 95.036,318.466 50.224,318.929 49.762 C 319.238 49.453,337.104 49.358,337.901 49.661 C 338.464 49.875,338.553 50.308,338.587 53.000 C 338.634 56.739,338.863 62.243,338.977 62.362 C 339.035 62.424,343.191 62.519,348.211 62.575 L 357.338 62.675 357.503 62.243 C 357.642 61.876,357.763 31.069,357.625 30.970 C 357.389 30.801,349.392 30.649,338.833 30.614 L 325.917 30.571 338.667 30.665 M38.136 33.554 C 38.208 37.391,38.452 37.123,34.832 37.194 C 32.727 37.236,31.953 37.306,31.854 37.467 C 31.618 37.848,31.501 46.950,31.500 64.758 C 31.500 78.024,31.453 82.147,31.300 82.300 C 31.052 82.548,26.231 82.580,25.594 82.337 L 25.167 82.175 25.167 85.165 C 25.167 87.844,25.197 88.171,25.458 88.305 C 26.025 88.597,43.399 88.686,43.808 88.399 L 44.167 88.148 44.167 59.577 L 44.167 31.006 43.792 30.922 C 43.585 30.876,42.217 30.818,40.750 30.794 L 38.083 30.750 38.136 33.554 M246.867 43.467 C 247.229 43.829,247.268 82.041,246.907 82.403 C 246.561 82.749,227.711 82.811,227.367 82.467 C 227.022 82.122,227.083 44.027,227.429 43.533 L 227.691 43.159 237.171 43.204 C 244.678 43.241,246.695 43.295,246.867 43.467 M109.741 56.704 C 110.151 57.290,110.135 107.741,109.724 108.195 C 109.252 108.717,104.073 108.654,103.947 108.125 C 103.806 107.534,103.770 56.951,103.910 56.625 C 104.128 56.119,109.381 56.190,109.741 56.704 M188.074 56.704 C 188.484 57.290,188.468 107.741,188.058 108.195 C 187.575 108.728,182.456 108.651,182.208 108.107 C 181.934 107.505,181.869 57.213,182.142 56.708 C 182.456 56.127,187.667 56.123,188.074 56.704 M83.469 57.006 L 83.833 57.346 83.833 76.080 L 83.833 94.814 83.463 95.074 C 82.878 95.484,77.891 95.455,77.772 95.042 C 77.629 94.543,77.577 57.095,77.719 56.875 C 77.976 56.476,83.023 56.591,83.469 57.006 M247.039 83.065 C 247.222 83.341,247.192 88.245,247.004 88.739 L 246.842 89.167 233.939 89.167 C 222.327 89.167,221.026 89.140,220.934 88.903 C 220.726 88.359,220.822 82.865,221.042 82.786 C 221.527 82.610,246.918 82.884,247.039 83.065 M253.467 95.700 C 253.678 95.912,253.771 107.700,253.566 108.236 C 253.404 108.657,247.561 108.630,247.436 108.208 C 247.290 107.714,247.241 95.930,247.385 95.708 C 247.572 95.418,253.177 95.411,253.467 95.700 M31.417 95.827 C 31.233 95.909,31.177 95.982,31.292 95.988 C 31.512 96.001,31.614 107.676,31.399 108.236 C 31.278 108.552,26.059 108.633,25.489 108.327 C 25.176 108.160,25.167 108.242,25.167 111.238 C 25.167 114.116,25.188 114.333,25.489 114.494 C 25.837 114.680,43.426 114.749,43.903 114.566 C 44.171 114.463,44.323 97.350,44.064 96.386 C 43.970 96.033,43.870 96.018,41.108 95.930 C 34.329 95.714,31.729 95.687,31.417 95.827 M279.833 95.806 C 279.458 95.920,279.448 95.944,279.731 96.053 C 280.157 96.216,279.986 107.446,279.547 108.116 C 279.248 108.572,274.002 108.730,273.718 108.292 C 273.644 108.177,273.540 106.808,273.487 105.250 C 273.391 102.434,273.391 102.437,273.449 105.667 C 273.480 107.454,273.561 110.192,273.628 111.750 L 273.750 114.583 283.000 114.583 L 292.250 114.583 292.250 105.333 L 292.250 96.083 289.500 95.973 C 283.897 95.747,280.238 95.684,279.833 95.806 " stroke="none" fill="#e6b41a" fill-rule="evenodd"></path><path id="path1" d="M25.542 30.615 L 25.167 30.690 25.167 56.432 L 25.167 82.175 25.594 82.337 C 26.231 82.580,31.052 82.548,31.300 82.300 C 31.453 82.147,31.500 78.024,31.500 64.758 C 31.501 46.950,31.618 37.848,31.854 37.467 C 31.953 37.306,32.726 37.236,34.827 37.194 C 38.414 37.124,38.168 37.378,38.164 33.755 C 38.163 32.285,38.091 30.971,38.004 30.833 C 37.850 30.590,26.646 30.393,25.542 30.615 M51.875 30.618 C 51.669 30.657,51.489 30.778,51.476 30.887 C 51.346 31.959,51.572 108.127,51.705 108.292 C 52.054 108.722,57.278 108.573,57.569 108.125 C 57.781 107.800,57.820 103.104,57.865 72.717 C 57.907 44.259,57.957 37.643,58.133 37.467 C 58.286 37.314,59.162 37.225,61.105 37.167 C 64.605 37.061,64.356 37.340,64.295 33.595 L 64.250 30.765 63.833 30.649 C 63.388 30.525,52.503 30.497,51.875 30.618 M103.935 30.737 C 103.568 31.029,103.671 42.847,104.046 43.303 C 104.304 43.618,109.331 43.516,109.725 43.188 C 109.959 42.993,110.000 42.571,110.000 40.339 C 110.000 37.851,110.019 37.696,110.380 37.276 L 110.761 36.833 113.384 36.833 L 116.008 36.833 116.171 36.406 C 116.674 35.081,116.316 30.887,115.689 30.768 C 114.387 30.520,104.243 30.493,103.935 30.737 M130.042 30.668 L 129.667 30.823 129.669 69.286 C 129.670 90.441,129.716 107.919,129.772 108.125 C 129.914 108.654,135.418 108.717,135.891 108.195 C 136.145 107.914,136.167 105.515,136.167 77.070 C 136.167 60.119,136.217 44.283,136.277 41.879 L 136.387 37.508 136.936 37.327 C 137.244 37.225,138.411 37.162,139.585 37.182 C 141.462 37.215,141.731 37.184,142.133 36.884 L 142.583 36.548 142.629 33.798 C 142.669 31.393,142.639 31.018,142.395 30.815 C 142.061 30.538,130.685 30.402,130.042 30.668 M182.188 30.762 L 181.792 31.048 181.911 36.899 C 182.059 44.203,181.725 43.500,185.050 43.500 C 188.547 43.500,188.333 43.710,188.333 40.270 C 188.333 36.658,188.161 36.833,191.713 36.833 C 194.121 36.833,194.335 36.809,194.494 36.511 C 194.819 35.905,194.716 31.038,194.375 30.859 C 193.753 30.534,182.627 30.445,182.188 30.762 M221.199 30.701 C 220.988 30.912,220.909 36.061,221.106 36.795 L 221.208 37.174 227.729 37.088 C 231.315 37.041,239.875 36.964,246.750 36.918 C 255.803 36.856,259.353 36.779,259.625 36.638 C 259.991 36.449,260.000 36.376,260.000 33.718 C 260.000 31.043,259.993 30.989,259.625 30.853 C 258.982 30.616,221.433 30.467,221.199 30.701 M312.667 30.663 C 312.453 30.798,312.412 31.704,312.386 36.929 C 312.368 40.289,312.315 43.142,312.266 43.269 C 312.192 43.460,311.134 43.500,306.143 43.500 C 300.887 43.500,300.072 43.534,299.820 43.762 C 299.419 44.125,299.537 94.316,299.939 94.958 C 300.263 95.475,305.217 95.548,305.601 95.042 C 305.782 94.804,305.824 91.577,305.828 77.485 C 305.831 67.990,305.883 58.078,305.943 55.458 L 306.053 50.696 306.451 50.515 C 306.683 50.409,307.919 50.333,309.408 50.333 L 311.967 50.333 312.150 49.808 C 312.257 49.503,312.333 48.039,312.333 46.308 L 312.333 43.333 315.488 43.333 C 319.482 43.333,319.167 43.605,319.167 40.165 C 319.167 38.232,319.223 37.483,319.375 37.385 C 319.753 37.141,325.739 36.977,338.500 36.863 C 345.421 36.801,351.177 36.689,351.292 36.615 C 351.445 36.516,351.500 35.735,351.500 33.667 L 351.500 30.854 350.792 30.768 C 349.417 30.601,312.923 30.501,312.667 30.663 M64.318 43.956 C 64.056 44.645,64.189 49.543,64.479 49.892 C 64.683 50.138,65.327 50.167,70.592 50.167 L 76.476 50.167 76.821 49.728 C 77.136 49.327,77.167 49.066,77.167 46.757 C 77.167 43.166,77.856 43.500,70.443 43.500 L 64.492 43.500 64.318 43.956 M90.839 43.822 C 90.572 44.321,90.623 49.512,90.899 49.875 C 91.299 50.402,96.044 50.304,96.591 49.758 C 97.209 49.139,97.228 44.439,96.614 43.862 C 96.051 43.334,91.119 43.299,90.839 43.822 M142.673 43.822 C 142.361 44.404,142.449 49.584,142.775 49.855 C 143.221 50.224,154.286 50.286,154.989 49.922 L 155.500 49.658 155.500 46.839 C 155.500 44.114,155.488 44.010,155.130 43.759 C 154.496 43.316,142.912 43.374,142.673 43.822 M169.173 43.822 C 168.953 44.233,168.944 49.166,169.163 49.739 L 169.325 50.167 171.890 50.167 C 174.233 50.167,174.493 50.137,174.894 49.821 L 175.333 49.476 175.333 46.833 L 175.333 44.191 174.894 43.845 C 174.244 43.334,169.444 43.314,169.173 43.822 M208.323 43.762 C 207.980 44.176,208.087 107.591,208.432 108.125 C 208.724 108.577,213.776 108.720,214.136 108.287 C 214.341 108.039,214.475 44.031,214.271 43.700 C 214.064 43.366,208.605 43.423,208.323 43.762 M103.910 56.625 C 103.770 56.951,103.806 107.534,103.947 108.125 C 104.073 108.654,109.252 108.717,109.724 108.195 C 110.135 107.741,110.151 57.290,109.741 56.704 C 109.381 56.190,104.128 56.119,103.910 56.625 M182.142 56.708 C 181.869 57.213,181.934 107.505,182.208 108.107 C 182.456 108.651,187.575 108.728,188.058 108.195 C 188.468 107.741,188.484 57.290,188.074 56.704 C 187.667 56.123,182.456 56.127,182.142 56.708 M77.719 56.875 C 77.577 57.095,77.629 94.543,77.772 95.042 C 77.891 95.455,82.878 95.484,83.463 95.074 L 83.833 94.814 83.833 76.080 L 83.833 57.346 83.469 57.006 C 83.023 56.591,77.976 56.476,77.719 56.875 M155.939 56.920 C 155.798 57.285,155.835 94.473,155.976 94.974 L 156.086 95.365 158.834 95.342 C 160.947 95.324,161.668 95.261,161.957 95.072 L 162.333 94.826 162.333 76.111 C 162.333 60.224,162.298 57.348,162.097 57.074 C 161.760 56.612,156.111 56.471,155.939 56.920 M221.042 82.786 C 220.822 82.865,220.726 88.359,220.934 88.903 C 221.026 89.140,222.327 89.167,233.939 89.167 L 246.842 89.167 247.004 88.739 C 247.192 88.245,247.222 83.341,247.039 83.065 C 246.918 82.884,221.527 82.610,221.042 82.786 M247.385 95.708 C 247.241 95.930,247.290 107.714,247.436 108.208 C 247.561 108.630,253.404 108.657,253.566 108.236 C 253.771 107.700,253.678 95.912,253.467 95.700 C 253.177 95.411,247.572 95.418,247.385 95.708 M25.625 95.953 L 25.167 96.022 25.167 102.089 C 25.167 107.916,25.179 108.162,25.489 108.327 C 26.059 108.633,31.278 108.552,31.399 108.236 C 31.659 107.560,31.506 96.038,31.236 95.934 C 30.950 95.825,26.372 95.840,25.625 95.953 M273.485 96.194 C 273.253 96.629,273.443 107.739,273.691 108.208 C 273.964 108.725,279.202 108.642,279.547 108.116 C 280.012 107.406,280.153 96.260,279.700 96.018 C 278.974 95.629,273.708 95.778,273.485 96.194 M312.538 98.953 L 312.583 102.083 325.452 102.126 L 338.320 102.169 338.509 101.468 C 338.720 100.683,338.668 96.279,338.445 96.055 C 338.368 95.979,332.498 95.896,325.399 95.870 L 312.493 95.823 312.538 98.953 " stroke="none" fill="#f9f3a7" fill-rule="evenodd"></path><path id="path2" d="M0.000 70.500 L 0.000 141.000 200.000 141.000 L 400.000 141.000 400.000 70.500 L 400.000 0.000 200.000 0.000 L 0.000 0.000 0.000 70.500 M44.375 30.091 C 44.534 30.151,44.743 30.475,44.840 30.809 C 45.132 31.818,44.984 88.701,44.688 89.058 C 44.423 89.377,25.498 89.485,25.000 89.170 C 24.581 88.906,24.538 30.587,24.956 30.117 C 25.253 29.783,43.510 29.758,44.375 30.091 M70.766 30.180 C 70.953 30.335,71.004 31.560,71.040 36.644 L 71.083 42.917 77.389 43.000 C 83.386 43.079,83.705 43.099,83.930 43.407 C 84.123 43.671,84.167 44.783,84.169 49.490 C 84.172 56.858,83.796 56.018,87.062 55.962 L 89.750 55.917 89.833 49.639 C 89.879 46.186,89.979 43.298,90.055 43.222 C 90.132 43.146,93.057 43.046,96.555 43.000 L 102.917 42.917 102.960 36.628 L 103.004 30.338 103.430 30.059 C 104.054 29.650,122.402 29.830,122.821 30.249 C 123.107 30.536,123.321 111.412,123.043 114.167 L 122.917 115.417 113.325 115.460 C 105.231 115.496,103.683 115.466,103.409 115.265 C 103.089 115.031,103.082 114.575,103.000 89.355 C 102.933 68.616,102.875 63.642,102.700 63.467 C 102.251 63.017,97.757 63.064,97.437 63.522 C 97.192 63.872,97.167 65.655,97.167 82.845 L 97.167 101.782 96.816 102.099 C 96.377 102.496,78.076 102.603,77.395 102.213 C 76.818 101.882,76.816 101.834,76.733 82.500 C 76.689 72.279,76.617 63.748,76.573 63.542 C 76.495 63.173,76.454 63.167,73.940 63.167 L 71.387 63.167 71.193 63.591 C 71.049 63.907,71.000 70.529,71.000 89.558 C 71.000 109.202,70.954 115.146,70.800 115.300 C 70.428 115.672,51.456 115.579,51.117 115.204 C 50.695 114.738,50.663 112.090,50.571 70.250 C 50.482 29.663,50.470 30.703,51.049 30.145 L 51.417 29.792 60.977 29.891 C 67.771 29.961,70.603 30.045,70.766 30.180 M144.700 29.943 C 146.964 30.004,148.914 30.113,149.033 30.187 C 149.203 30.292,149.268 31.697,149.333 36.619 L 149.417 42.917 155.778 43.000 C 159.277 43.046,162.202 43.146,162.278 43.222 C 162.354 43.298,162.454 46.186,162.500 49.639 L 162.583 55.917 165.237 55.963 C 167.249 55.998,167.924 55.957,168.027 55.796 C 168.101 55.679,168.163 52.916,168.164 49.657 C 168.166 44.806,168.210 43.672,168.403 43.407 C 168.628 43.099,168.947 43.079,174.927 43.000 L 181.215 42.917 181.180 37.142 C 181.142 30.939,181.222 30.113,181.876 29.938 C 183.307 29.555,200.937 29.937,201.361 30.361 C 201.813 30.813,201.843 114.696,201.391 115.195 C 200.927 115.707,182.033 115.663,181.567 115.149 C 181.259 114.808,181.249 114.108,181.205 89.358 C 181.180 75.365,181.121 63.741,181.073 63.527 L 180.986 63.136 178.479 63.193 C 176.228 63.244,175.949 63.283,175.736 63.574 C 175.536 63.848,175.500 66.751,175.497 82.824 C 175.496 93.233,175.438 101.839,175.369 101.948 C 175.052 102.447,174.187 102.494,165.337 102.497 C 155.596 102.500,155.609 102.501,155.424 101.606 C 155.365 101.318,155.276 92.721,155.227 82.500 C 155.149 66.472,155.103 63.863,154.890 63.530 C 154.542 62.984,149.972 63.022,149.570 63.574 C 149.368 63.849,149.333 67.669,149.333 89.499 C 149.333 109.189,149.287 115.146,149.133 115.300 C 148.845 115.589,129.822 115.589,129.533 115.300 C 129.242 115.009,129.242 30.325,129.533 30.033 C 129.762 29.805,137.712 29.758,144.700 29.943 M262.084 29.944 C 265.949 30.044,266.419 30.086,266.694 30.361 C 267.146 30.813,267.176 114.696,266.724 115.195 C 266.463 115.484,265.936 115.500,256.811 115.500 L 247.174 115.500 246.934 115.125 C 246.742 114.826,246.669 113.534,246.574 108.710 C 246.492 104.589,246.395 102.629,246.269 102.543 C 246.167 102.474,241.940 102.438,236.875 102.464 L 227.667 102.511 227.667 108.818 C 227.667 113.938,227.624 115.161,227.440 115.314 C 227.275 115.451,224.552 115.491,217.567 115.460 L 207.921 115.417 207.669 114.917 C 207.307 114.200,207.283 43.713,207.644 43.278 C 207.846 43.034,208.569 42.999,214.227 42.960 L 220.583 42.917 220.627 36.598 C 220.657 32.273,220.729 30.209,220.856 30.056 C 221.060 29.810,253.464 29.722,262.084 29.944 M353.463 29.944 C 356.567 30.022,357.927 30.115,358.130 30.263 C 358.583 30.594,358.572 62.499,358.119 62.952 C 357.787 63.285,357.535 63.290,345.048 63.208 C 338.737 63.167,338.677 63.163,338.340 62.802 C 338.011 62.449,338.000 62.244,338.000 56.585 C 338.000 52.256,337.948 50.681,337.800 50.533 C 337.536 50.270,319.979 50.243,319.489 50.506 C 319.173 50.675,319.167 51.099,319.167 72.736 L 319.167 94.794 319.542 94.895 C 320.313 95.102,337.588 95.012,337.800 94.800 C 337.948 94.652,338.000 93.065,338.000 88.693 C 338.000 83.263,338.024 82.769,338.292 82.565 C 338.851 82.141,357.740 82.240,358.170 82.670 C 358.606 83.106,358.623 114.700,358.188 115.224 C 357.884 115.590,312.454 115.657,312.218 115.292 C 312.144 115.177,312.060 112.252,312.032 108.792 L 311.982 102.500 306.199 102.499 C 300.315 102.498,299.316 102.410,299.065 101.872 C 298.753 101.202,298.784 43.665,299.096 43.319 C 299.371 43.015,299.690 43.000,305.692 43.000 L 312.000 43.000 312.000 36.787 C 312.000 31.434,312.036 30.523,312.259 30.204 L 312.519 29.833 330.801 29.834 C 340.856 29.834,351.054 29.883,353.463 29.944 M227.958 43.948 C 227.624 44.036,227.498 81.474,227.830 82.000 C 227.966 82.216,229.214 82.256,237.079 82.297 L 246.171 82.344 246.335 81.911 C 246.593 81.235,246.558 44.291,246.300 44.033 C 246.104 43.837,228.691 43.757,227.958 43.948 M44.571 95.497 C 45.015 95.941,45.126 114.696,44.688 115.224 C 44.337 115.647,25.329 115.647,24.979 115.224 C 24.598 114.765,24.555 95.945,24.934 95.367 L 25.209 94.947 34.717 95.049 C 44.047 95.149,44.232 95.158,44.571 95.497 M292.773 95.522 L 293.167 95.891 293.167 105.391 C 293.167 113.996,293.141 114.919,292.891 115.195 C 292.537 115.586,273.639 115.677,273.110 115.290 C 272.847 115.098,272.815 114.295,272.718 105.476 L 272.613 95.872 273.076 95.409 L 273.538 94.947 282.959 95.049 L 292.380 95.152 292.773 95.522 " stroke="none" fill="#141c1c" fill-rule="evenodd"></path><path id="path3" d="M24.944 30.131 C 24.775 30.320,24.673 30.612,24.716 30.779 C 24.780 31.027,24.798 31.015,24.814 30.714 C 24.849 30.038,25.216 30.000,31.614 30.004 C 37.367 30.007,37.795 30.028,38.477 30.337 C 39.088 30.614,39.568 30.667,41.505 30.667 C 42.770 30.667,43.925 30.712,44.070 30.768 C 44.419 30.902,44.481 88.286,44.132 88.635 C 43.823 88.944,26.263 88.711,25.625 88.389 L 25.167 88.158 25.167 85.529 C 25.167 84.006,25.097 82.830,25.001 82.734 C 24.893 82.626,24.819 75.623,24.791 62.742 C 24.748 43.632,24.746 43.748,24.748 65.964 C 24.750 86.269,24.780 89.031,25.000 89.170 C 25.498 89.485,44.423 89.377,44.688 89.058 C 44.984 88.701,45.132 31.818,44.840 30.809 C 44.591 29.951,45.018 29.990,34.669 29.883 C 25.298 29.787,25.248 29.788,24.944 30.131 M51.049 30.145 C 50.470 30.703,50.482 29.663,50.571 70.250 C 50.663 112.090,50.695 114.738,51.117 115.204 C 51.456 115.579,70.428 115.672,70.800 115.300 C 70.954 115.146,71.000 109.202,71.000 89.558 C 71.000 70.529,71.049 63.907,71.193 63.591 L 71.387 63.167 73.940 63.167 C 76.454 63.167,76.495 63.173,76.573 63.542 C 76.617 63.748,76.689 72.279,76.733 82.500 C 76.816 101.834,76.818 101.882,77.395 102.213 C 78.076 102.603,96.377 102.496,96.816 102.099 L 97.167 101.782 97.167 82.845 C 97.167 65.655,97.192 63.872,97.437 63.522 C 97.757 63.064,102.251 63.017,102.700 63.467 C 102.875 63.642,102.933 68.616,103.000 89.355 C 103.082 114.575,103.089 115.031,103.409 115.265 C 103.683 115.466,105.231 115.496,113.325 115.460 L 122.917 115.417 123.043 114.167 C 123.321 111.412,123.107 30.536,122.821 30.249 C 122.401 29.829,104.054 29.651,103.428 30.060 C 103.172 30.229,103.004 30.490,103.011 30.712 L 103.021 31.083 103.173 30.706 C 103.256 30.498,103.533 30.247,103.787 30.147 C 104.406 29.904,116.050 30.120,116.658 30.386 C 116.892 30.488,118.320 30.611,119.831 30.660 L 122.578 30.750 122.696 31.417 C 122.847 32.269,122.847 113.164,122.696 114.167 L 122.583 114.917 119.333 114.877 C 103.761 114.686,104.113 114.697,103.958 114.419 C 103.876 114.272,103.833 113.053,103.863 111.708 C 103.915 109.360,103.902 109.250,103.542 108.890 L 103.167 108.515 103.167 86.116 C 103.167 70.282,103.113 63.563,102.984 63.192 L 102.801 62.667 99.921 62.667 C 97.445 62.667,97.009 62.705,96.812 62.942 C 96.622 63.171,96.569 66.490,96.500 82.484 L 96.417 101.750 87.167 101.684 C 80.664 101.638,77.880 101.564,77.794 101.434 C 77.727 101.333,77.670 100.162,77.668 98.833 C 77.665 96.842,77.613 96.329,77.374 95.917 C 77.104 95.452,77.080 94.286,77.042 79.417 C 77.011 67.591,76.950 63.319,76.805 63.042 C 76.576 62.600,71.289 62.445,70.867 62.867 C 70.713 63.020,70.667 68.999,70.667 88.764 L 70.667 114.462 70.240 114.741 C 69.865 114.987,69.448 115.009,66.865 114.926 C 65.243 114.873,61.292 114.793,58.083 114.747 C 54.875 114.701,52.081 114.625,51.875 114.579 C 51.506 114.495,51.500 114.453,51.500 111.908 C 51.500 109.725,51.454 109.252,51.208 108.876 C 50.933 108.456,50.914 106.259,50.874 69.582 L 50.831 30.732 51.177 30.361 L 51.523 29.989 57.942 30.036 C 63.830 30.079,64.378 30.107,64.574 30.375 C 64.761 30.631,65.104 30.667,67.404 30.667 C 71.062 30.667,70.667 29.911,70.667 36.913 C 70.667 41.450,70.715 42.845,70.875 42.948 C 71.066 43.072,72.693 43.154,80.333 43.424 C 81.846 43.478,83.158 43.595,83.250 43.686 C 83.352 43.786,83.449 46.180,83.500 49.834 C 83.601 57.089,83.183 56.321,87.036 56.328 C 90.576 56.335,90.227 57.090,90.075 49.765 C 89.986 45.412,90.005 43.803,90.149 43.534 C 90.342 43.172,90.361 43.170,96.713 43.127 L 103.083 43.083 103.091 39.750 L 103.098 36.417 103.007 39.667 L 102.917 42.917 96.555 43.000 C 93.057 43.046,90.132 43.146,90.055 43.222 C 89.979 43.298,89.879 46.186,89.833 49.639 L 89.750 55.917 87.062 55.962 C 83.796 56.018,84.172 56.858,84.169 49.490 C 84.167 44.783,84.123 43.671,83.930 43.407 C 83.705 43.099,83.386 43.079,77.389 43.000 L 71.083 42.917 71.040 36.644 C 71.004 31.560,70.953 30.335,70.766 30.180 C 70.603 30.045,67.771 29.961,60.977 29.891 L 51.417 29.792 51.049 30.145 M129.505 30.078 C 129.393 30.212,129.340 30.418,129.388 30.536 C 129.445 30.678,129.478 30.658,129.487 30.476 C 129.509 30.021,129.804 30.000,136.091 30.000 C 141.761 30.000,142.209 30.022,143.000 30.333 C 143.693 30.606,144.239 30.667,146.017 30.667 C 149.156 30.667,148.833 29.950,148.833 36.927 L 148.833 42.842 149.261 43.004 C 149.496 43.094,151.067 43.167,152.751 43.167 C 154.613 43.167,155.854 43.232,155.917 43.333 C 155.979 43.434,157.130 43.501,158.802 43.503 C 160.332 43.504,161.674 43.563,161.786 43.634 C 161.937 43.730,162.000 45.284,162.036 49.772 C 162.074 54.568,162.130 55.838,162.312 56.058 C 162.632 56.443,168.176 56.474,168.492 56.093 C 168.642 55.912,168.678 54.298,168.638 49.671 C 168.591 44.320,168.617 43.468,168.833 43.327 C 168.986 43.227,171.442 43.170,175.147 43.181 C 180.049 43.194,181.240 43.155,181.362 42.974 C 181.509 42.755,181.370 31.168,181.218 31.003 C 181.178 30.959,181.160 33.621,181.179 36.920 L 181.214 42.917 174.927 43.000 C 168.947 43.079,168.628 43.099,168.403 43.407 C 168.210 43.672,168.166 44.806,168.164 49.657 C 168.163 52.916,168.101 55.679,168.027 55.796 C 167.924 55.957,167.249 55.998,165.237 55.963 L 162.583 55.917 162.500 49.639 C 162.454 46.186,162.354 43.298,162.278 43.222 C 162.202 43.146,159.277 43.046,155.778 43.000 L 149.417 42.917 149.333 36.619 C 149.268 31.697,149.203 30.292,149.033 30.187 C 148.403 29.798,129.823 29.694,129.505 30.078 M181.799 29.947 C 181.506 30.024,181.227 30.616,181.401 30.790 C 181.456 30.845,181.500 30.762,181.500 30.607 C 181.500 30.016,182.217 29.963,188.583 30.082 C 193.299 30.170,194.868 30.252,195.250 30.429 C 195.593 30.588,196.563 30.675,198.333 30.705 L 200.917 30.750 200.962 72.500 C 200.987 95.463,200.966 114.424,200.914 114.637 L 200.821 115.025 197.452 114.920 C 195.599 114.863,191.421 114.763,188.167 114.699 L 182.250 114.583 182.204 111.940 C 182.162 109.542,182.127 109.271,181.829 109.023 C 181.504 108.754,181.499 108.428,181.458 86.000 C 181.428 69.234,181.366 63.162,181.225 62.917 C 180.896 62.344,175.351 62.569,175.049 63.167 C 174.883 63.495,174.838 67.597,174.836 82.469 C 174.834 93.328,174.770 101.475,174.683 101.636 C 174.547 101.891,174.218 101.907,171.142 101.810 C 169.276 101.751,165.114 101.695,161.892 101.685 L 156.034 101.667 155.971 98.875 C 155.931 97.089,155.835 95.952,155.705 95.719 C 155.547 95.439,155.500 91.692,155.500 79.381 C 155.500 65.194,155.471 63.366,155.241 63.037 C 154.881 62.524,149.448 62.454,149.065 62.958 C 148.884 63.198,148.843 67.827,148.839 88.849 C 148.833 113.684,148.824 114.457,148.520 114.732 C 148.242 114.984,147.877 115.005,145.228 114.926 C 143.590 114.877,139.456 114.794,136.042 114.742 L 129.833 114.648 129.833 111.941 C 129.833 110.452,129.766 109.162,129.683 109.075 C 129.600 108.988,129.496 108.767,129.452 108.583 C 129.408 108.400,129.363 109.791,129.353 111.675 C 129.339 114.139,129.389 115.156,129.533 115.300 C 129.822 115.589,148.845 115.589,149.133 115.300 C 149.287 115.146,149.333 109.189,149.333 89.499 C 149.333 67.669,149.368 63.849,149.570 63.574 C 149.972 63.022,154.542 62.984,154.890 63.530 C 155.103 63.863,155.149 66.472,155.227 82.500 C 155.276 92.721,155.365 101.318,155.424 101.606 C 155.609 102.501,155.596 102.500,165.337 102.497 C 174.187 102.494,175.052 102.447,175.369 101.948 C 175.438 101.839,175.496 93.233,175.497 82.824 C 175.500 66.751,175.536 63.848,175.736 63.574 C 175.949 63.283,176.228 63.244,178.479 63.193 L 180.986 63.136 181.073 63.527 C 181.121 63.741,181.180 75.365,181.205 89.358 C 181.249 114.108,181.259 114.808,181.567 115.149 C 182.033 115.663,200.927 115.707,201.391 115.195 C 201.843 114.696,201.813 30.813,201.361 30.361 C 200.945 29.945,183.232 29.570,181.799 29.947 M220.867 30.033 C 220.757 30.143,220.667 30.348,220.667 30.487 C 220.667 30.664,220.746 30.628,220.928 30.368 L 221.189 29.996 240.636 30.101 C 256.760 30.188,260.146 30.245,260.452 30.436 C 260.724 30.606,261.482 30.667,263.314 30.667 C 264.685 30.667,265.925 30.712,266.070 30.768 C 266.459 30.917,266.476 114.507,266.087 114.831 C 265.899 114.986,265.047 115.008,262.545 114.921 C 260.733 114.858,256.587 114.756,253.333 114.695 L 247.417 114.583 247.371 111.939 C 247.336 109.937,247.265 109.209,247.079 108.943 C 246.885 108.666,246.833 107.968,246.833 105.614 C 246.833 102.869,246.806 102.597,246.489 102.151 L 246.144 101.667 236.965 101.667 C 228.419 101.667,227.771 101.687,227.565 101.958 C 227.392 102.187,227.339 103.531,227.322 108.167 C 227.310 111.421,227.248 114.271,227.184 114.500 L 227.068 114.917 223.826 114.870 C 222.042 114.844,217.933 114.793,214.693 114.757 C 211.454 114.721,208.697 114.650,208.568 114.601 C 208.380 114.528,208.333 113.995,208.333 111.922 C 208.333 109.589,208.302 109.302,208.012 109.012 C 207.673 108.673,207.381 45.075,207.713 43.719 C 207.813 43.312,207.949 43.172,208.297 43.119 L 208.750 43.050 208.312 43.025 C 207.356 42.970,207.417 40.550,207.417 78.984 C 207.417 110.287,207.446 114.475,207.669 114.917 L 207.921 115.417 217.567 115.460 C 224.552 115.491,227.275 115.451,227.440 115.314 C 227.624 115.161,227.667 113.938,227.667 108.818 L 227.667 102.511 236.875 102.464 C 241.940 102.438,246.167 102.474,246.269 102.543 C 246.395 102.629,246.492 104.589,246.574 108.710 C 246.669 113.534,246.742 114.826,246.934 115.125 L 247.174 115.500 256.811 115.500 C 265.936 115.500,266.463 115.484,266.724 115.195 C 267.176 114.696,267.146 30.813,266.694 30.361 C 266.157 29.824,221.396 29.504,220.867 30.033 M312.312 30.125 C 312.109 30.384,312.113 30.393,312.353 30.206 C 312.759 29.889,351.599 30.123,351.920 30.444 C 352.087 30.611,352.807 30.667,354.801 30.667 C 356.838 30.667,357.503 30.720,357.647 30.893 C 357.784 31.058,357.824 35.366,357.793 46.851 L 357.750 62.583 348.833 62.631 C 343.929 62.657,339.673 62.635,339.375 62.582 L 338.833 62.485 338.833 59.837 C 338.833 58.217,338.759 57.006,338.641 56.719 C 338.527 56.441,338.428 54.997,338.398 53.167 C 338.351 50.241,338.330 50.068,337.989 49.792 C 337.493 49.389,319.620 49.337,319.074 49.737 C 318.756 49.968,318.749 50.418,318.706 72.292 L 318.662 94.611 319.015 94.930 C 319.699 95.549,338.307 95.476,338.339 94.855 C 338.342 94.797,338.360 92.100,338.380 88.862 C 338.415 83.192,338.429 82.964,338.750 82.718 C 339.158 82.405,356.907 82.516,357.504 82.835 C 358.008 83.105,358.024 114.276,357.520 114.732 C 357.241 114.984,356.888 115.005,354.312 114.920 C 352.719 114.868,342.667 114.788,331.974 114.742 L 312.531 114.659 312.430 111.538 C 312.308 107.751,312.062 101.766,312.026 101.708 C 312.012 101.685,309.347 101.667,306.104 101.667 C 301.589 101.667,300.167 101.618,300.036 101.458 C 299.942 101.344,299.839 100.162,299.807 98.833 C 299.757 96.753,299.703 96.348,299.416 95.924 C 299.088 95.438,299.083 95.109,299.039 69.735 C 298.991 42.659,298.975 43.242,299.783 43.120 C 300.246 43.051,300.246 43.050,299.817 43.025 C 298.723 42.962,298.801 40.544,298.869 72.611 C 298.903 88.546,298.991 101.713,299.065 101.872 C 299.316 102.410,300.315 102.498,306.199 102.499 L 311.982 102.500 312.032 108.792 C 312.060 112.252,312.144 115.177,312.218 115.292 C 312.454 115.657,357.884 115.590,358.188 115.224 C 358.623 114.700,358.606 83.106,358.170 82.670 C 357.740 82.240,338.851 82.141,338.292 82.565 C 338.024 82.769,338.000 83.263,338.000 88.693 C 338.000 93.065,337.948 94.652,337.800 94.800 C 337.588 95.012,320.313 95.102,319.542 94.895 L 319.167 94.794 319.167 72.736 C 319.167 51.099,319.173 50.675,319.489 50.506 C 319.979 50.243,337.536 50.270,337.800 50.533 C 337.948 50.681,338.000 52.256,338.000 56.585 C 338.000 62.244,338.011 62.449,338.340 62.802 C 338.677 63.163,338.737 63.167,345.048 63.208 C 357.535 63.290,357.787 63.285,358.119 62.952 C 358.572 62.499,358.583 30.594,358.130 30.263 C 357.401 29.730,312.727 29.596,312.312 30.125 M312.076 36.667 C 312.076 40.104,312.098 41.510,312.125 39.792 C 312.152 38.073,312.152 35.260,312.125 33.542 C 312.098 31.823,312.076 33.229,312.076 36.667 M220.665 39.833 L 220.583 42.917 217.167 43.005 L 213.750 43.094 217.214 43.130 C 219.906 43.159,220.695 43.119,220.759 42.953 C 220.804 42.835,220.820 41.391,220.794 39.744 L 220.746 36.750 220.665 39.833 M227.704 43.593 L 227.333 43.852 227.336 62.884 C 227.337 74.586,227.399 82.013,227.496 82.167 C 227.674 82.448,246.499 82.556,246.778 82.278 C 246.854 82.201,246.936 73.561,246.960 63.078 L 247.004 44.017 246.637 43.675 C 246.136 43.208,228.363 43.131,227.704 43.593 M246.300 44.033 C 246.558 44.291,246.593 81.235,246.335 81.911 L 246.171 82.344 237.079 82.297 C 229.214 82.256,227.966 82.216,227.830 82.000 C 227.498 81.474,227.624 44.036,227.958 43.948 C 228.691 43.757,246.104 43.837,246.300 44.033 M24.934 95.367 C 24.555 95.945,24.598 114.765,24.979 115.224 C 25.329 115.647,44.337 115.647,44.688 115.224 C 45.126 114.696,45.015 95.941,44.571 95.497 C 44.232 95.158,44.047 95.149,34.717 95.049 L 25.209 94.947 24.934 95.367 M273.076 95.409 L 272.613 95.872 272.718 105.476 C 272.815 114.295,272.847 115.098,273.110 115.290 C 273.639 115.677,292.537 115.586,292.891 115.195 C 293.141 114.919,293.167 113.996,293.167 105.391 L 293.167 95.891 292.773 95.522 L 292.380 95.152 282.959 95.049 L 273.538 94.947 273.076 95.409 M283.167 95.504 C 285.137 95.603,288.025 95.736,289.583 95.800 L 292.417 95.917 292.460 105.133 C 292.489 111.420,292.446 114.456,292.325 114.682 C 292.155 115.001,292.022 115.010,289.032 114.922 C 287.319 114.872,283.221 114.791,279.926 114.742 C 275.797 114.682,273.865 114.595,273.707 114.464 C 273.526 114.314,273.488 113.742,273.530 111.762 C 273.580 109.418,273.561 109.231,273.250 108.973 C 272.919 108.698,272.619 97.223,272.912 96.046 C 273.147 95.100,274.106 95.050,283.167 95.504 M38.303 95.687 C 38.515 95.768,39.840 95.833,41.247 95.833 C 42.655 95.833,43.925 95.879,44.070 95.934 C 44.306 96.025,44.333 97.008,44.333 105.323 L 44.333 114.610 43.943 114.819 C 43.651 114.976,42.789 115.002,40.485 114.926 C 38.797 114.870,34.679 114.766,31.333 114.694 C 27.988 114.622,25.231 114.549,25.208 114.532 C 25.185 114.514,25.167 113.267,25.167 111.760 C 25.167 110.113,25.100 108.979,25.000 108.917 C 24.759 108.768,24.775 96.088,25.016 95.636 C 25.212 95.271,37.327 95.317,38.303 95.687 " stroke="none" fill="#675927" fill-rule="evenodd"></path><path id="path4" d="M25.074 30.237 C 24.720 30.495,24.666 82.365,25.018 82.742 C 25.105 82.834,25.167 72.034,25.167 56.794 L 25.167 30.687 25.875 30.582 C 27.027 30.411,43.847 30.769,44.125 30.970 C 44.148 30.986,44.167 43.858,44.167 59.574 L 44.167 88.148 43.807 88.399 C 43.495 88.618,42.300 88.643,34.682 88.589 L 25.917 88.526 34.898 88.681 C 41.536 88.796,43.938 88.787,44.106 88.648 C 44.478 88.339,44.442 30.911,44.070 30.768 C 43.925 30.712,42.770 30.667,41.505 30.667 C 39.568 30.667,39.088 30.614,38.477 30.337 C 37.519 29.903,25.652 29.814,25.074 30.237 M51.178 30.359 L 50.833 30.730 50.834 69.240 C 50.835 106.263,50.865 108.794,51.298 109.061 C 51.363 109.102,51.399 91.573,51.377 70.109 C 51.352 45.602,51.396 30.990,51.496 30.833 C 51.680 30.542,60.886 30.504,66.917 30.770 L 70.250 30.917 70.294 36.865 L 70.338 42.812 70.745 43.133 C 71.122 43.429,71.592 43.462,77.117 43.575 C 80.399 43.642,83.121 43.734,83.167 43.779 C 83.212 43.824,83.270 46.573,83.294 49.889 C 83.347 57.284,82.906 56.500,87.013 56.500 C 89.678 56.500,90.004 56.470,90.140 56.208 C 90.223 56.048,90.345 53.255,90.411 50.002 C 90.477 46.749,90.599 43.960,90.683 43.803 C 90.821 43.545,91.381 43.515,96.800 43.468 C 102.177 43.422,102.810 43.388,103.216 43.121 L 103.667 42.826 103.667 36.858 L 103.667 30.890 104.042 30.691 C 104.442 30.479,113.315 30.536,119.526 30.790 C 121.236 30.859,122.601 30.860,122.558 30.792 C 122.515 30.723,121.369 30.667,120.011 30.667 C 118.278 30.667,117.337 30.594,116.856 30.425 C 115.694 30.015,103.788 29.977,103.383 30.382 C 103.105 30.659,103.083 31.138,103.083 36.882 L 103.083 43.083 96.713 43.127 C 90.361 43.170,90.342 43.172,90.149 43.534 C 90.005 43.803,89.986 45.412,90.075 49.765 C 90.227 57.090,90.576 56.335,87.036 56.328 C 83.183 56.321,83.601 57.089,83.500 49.834 C 83.449 46.180,83.352 43.786,83.250 43.686 C 83.158 43.595,81.846 43.478,80.333 43.424 C 72.693 43.154,71.066 43.072,70.875 42.948 C 70.715 42.845,70.667 41.450,70.667 36.913 C 70.667 29.911,71.062 30.667,67.404 30.667 C 65.104 30.667,64.761 30.631,64.574 30.375 C 64.378 30.107,63.830 30.079,57.942 30.036 L 51.523 29.989 51.178 30.359 M129.667 30.163 C 129.373 30.349,129.193 107.552,129.484 108.556 C 129.578 108.879,129.642 93.951,129.652 69.954 L 129.667 30.825 130.125 30.650 C 130.600 30.469,139.721 30.555,145.500 30.795 L 148.417 30.917 148.460 36.865 L 148.504 42.814 148.960 43.135 C 149.382 43.432,149.871 43.466,155.323 43.578 C 160.170 43.678,161.298 43.745,161.615 43.952 C 161.958 44.177,162.000 44.177,162.000 43.954 C 162.000 43.552,161.630 43.500,158.746 43.500 C 157.108 43.500,155.979 43.433,155.917 43.333 C 155.854 43.232,154.613 43.167,152.751 43.167 C 151.067 43.167,149.496 43.094,149.261 43.004 L 148.833 42.842 148.833 36.927 C 148.833 29.950,149.156 30.667,146.017 30.667 C 144.239 30.667,143.693 30.606,143.000 30.333 C 142.063 29.964,130.221 29.813,129.667 30.163 M181.884 30.157 C 181.324 30.400,181.280 31.036,181.402 37.142 C 181.468 40.432,181.451 42.842,181.363 42.974 C 181.240 43.155,180.049 43.194,175.147 43.181 C 171.442 43.170,168.986 43.227,168.833 43.327 C 168.617 43.468,168.591 44.320,168.638 49.671 C 168.678 54.298,168.642 55.912,168.492 56.093 C 168.332 56.286,167.719 56.333,165.406 56.333 C 162.221 56.333,162.375 56.387,162.051 55.167 L 161.852 54.417 161.945 55.167 C 162.119 56.561,161.961 56.500,165.402 56.500 C 167.647 56.500,168.504 56.445,168.627 56.292 C 168.727 56.167,168.840 53.680,168.908 50.083 C 168.971 46.783,169.059 43.952,169.105 43.792 C 169.183 43.521,169.610 43.500,175.020 43.500 C 179.920 43.500,180.928 43.459,181.342 43.246 L 181.833 42.991 181.833 37.000 L 181.833 31.008 182.220 30.754 C 182.630 30.485,190.052 30.486,197.625 30.755 L 200.834 30.869 200.792 72.726 L 200.750 114.583 197.333 114.667 C 193.248 114.766,193.669 115.000,197.934 115.000 C 200.796 115.000,200.828 114.996,200.917 114.625 C 200.967 114.419,200.987 95.463,200.962 72.500 L 200.917 30.750 198.333 30.705 C 196.560 30.675,195.593 30.588,195.250 30.429 C 194.634 30.143,182.485 29.896,181.884 30.157 M220.905 30.411 C 220.663 30.781,220.639 31.503,220.691 36.955 L 220.750 43.083 214.750 43.083 C 207.790 43.083,207.906 43.077,207.749 43.458 C 207.562 43.913,207.663 108.515,207.851 108.867 C 207.940 109.032,208.087 109.167,208.178 109.167 C 208.287 109.167,208.285 109.055,208.173 108.844 C 207.823 108.191,207.944 44.102,208.296 43.784 C 208.554 43.551,209.356 43.510,214.520 43.466 C 219.244 43.427,220.505 43.370,220.725 43.188 C 220.971 42.983,221.000 42.332,221.000 36.917 C 221.000 32.014,221.043 30.839,221.228 30.685 C 221.487 30.470,258.056 30.558,263.167 30.786 L 266.083 30.917 266.083 72.750 L 266.083 114.583 262.500 114.667 C 259.926 114.727,259.175 114.785,259.833 114.874 C 261.371 115.081,265.905 115.028,266.133 114.800 C 266.481 114.452,266.418 30.901,266.070 30.768 C 265.925 30.712,264.685 30.667,263.314 30.667 C 261.482 30.667,260.724 30.606,260.452 30.436 C 260.146 30.245,256.759 30.188,240.630 30.101 L 221.177 29.996 220.905 30.411 M312.377 30.196 C 312.223 30.383,312.160 32.026,312.127 36.681 L 312.083 42.917 305.800 43.000 C 300.955 43.064,299.467 43.133,299.300 43.300 C 298.931 43.670,298.986 95.283,299.356 95.848 C 299.506 96.077,299.672 96.411,299.724 96.590 C 299.777 96.770,299.772 96.654,299.714 96.333 C 299.432 94.768,299.489 44.121,299.774 43.807 C 300.034 43.519,300.436 43.500,306.114 43.500 C 311.130 43.500,312.192 43.460,312.266 43.269 C 312.315 43.142,312.368 40.289,312.386 36.929 C 312.412 31.705,312.453 30.798,312.667 30.662 C 313.147 30.357,357.190 30.659,357.625 30.970 C 357.766 31.071,357.642 61.877,357.499 62.253 C 357.370 62.592,357.380 62.679,357.540 62.625 C 357.829 62.529,357.934 31.239,357.647 30.893 C 357.503 30.720,356.838 30.667,354.801 30.667 C 352.660 30.667,352.094 30.618,351.893 30.417 C 351.677 30.200,350.388 30.167,342.349 30.167 C 337.237 30.167,328.449 30.117,322.819 30.057 C 313.843 29.960,312.558 29.978,312.377 30.196 M122.749 72.750 C 122.749 95.300,122.768 104.500,122.792 93.195 C 122.815 81.890,122.815 63.440,122.792 52.195 C 122.768 40.950,122.749 50.200,122.749 72.750 M227.429 43.533 C 227.083 44.027,227.022 82.122,227.367 82.467 C 227.711 82.811,246.561 82.749,246.907 82.403 C 247.268 82.041,247.229 43.829,246.867 43.467 C 246.695 43.295,244.678 43.241,237.171 43.204 L 227.691 43.159 227.429 43.533 M246.637 43.675 L 247.004 44.017 246.960 63.078 C 246.936 73.561,246.854 82.201,246.778 82.278 C 246.499 82.556,227.674 82.448,227.496 82.167 C 227.399 82.013,227.337 74.586,227.336 62.884 L 227.333 43.852 227.704 43.593 C 228.363 43.131,246.136 43.208,246.637 43.675 M161.872 49.167 C 161.872 49.487,161.906 49.619,161.948 49.458 C 161.990 49.298,161.990 49.035,161.948 48.875 C 161.906 48.715,161.872 48.846,161.872 49.167 M338.369 52.463 C 338.353 53.721,338.396 55.163,338.466 55.667 C 338.544 56.237,338.577 55.395,338.554 53.438 C 338.508 49.733,338.412 49.221,338.369 52.463 M72.633 62.624 C 73.394 62.655,74.594 62.655,75.300 62.624 C 76.006 62.593,75.383 62.567,73.917 62.567 C 72.450 62.568,71.872 62.593,72.633 62.624 M98.701 62.623 C 99.316 62.655,100.366 62.656,101.034 62.624 C 101.703 62.592,101.200 62.566,99.917 62.566 C 98.633 62.565,98.086 62.591,98.701 62.623 M151.201 62.623 C 151.816 62.655,152.866 62.656,153.534 62.624 C 154.203 62.592,153.700 62.566,152.417 62.566 C 151.133 62.565,150.586 62.591,151.201 62.623 M177.542 62.624 C 178.160 62.656,179.173 62.656,179.792 62.624 C 180.410 62.592,179.904 62.565,178.667 62.565 C 177.429 62.565,176.923 62.592,177.542 62.624 M340.549 62.624 C 341.264 62.655,342.389 62.655,343.049 62.624 C 343.710 62.592,343.125 62.566,341.750 62.567 C 340.375 62.567,339.835 62.593,340.549 62.624 M346.625 62.624 C 347.381 62.655,348.619 62.655,349.375 62.624 C 350.131 62.593,349.512 62.568,348.000 62.568 C 346.488 62.568,345.869 62.593,346.625 62.624 M76.667 62.800 C 76.667 62.873,76.740 63.007,76.829 63.096 C 76.932 63.199,77.009 69.171,77.038 79.338 C 77.077 93.274,77.117 95.473,77.333 95.841 C 77.557 96.220,77.578 94.504,77.537 79.846 C 77.497 65.612,77.457 63.376,77.241 63.047 C 76.998 62.676,76.667 62.533,76.667 62.800 M96.700 62.867 C 96.590 62.977,96.509 63.220,96.519 63.408 C 96.538 63.743,96.540 63.743,96.621 63.417 C 96.666 63.233,96.779 62.990,96.872 62.875 C 97.087 62.609,96.963 62.603,96.700 62.867 M102.930 62.917 C 103.020 63.111,103.118 72.690,103.167 85.952 C 103.240 105.835,103.281 108.686,103.500 108.905 C 103.722 109.127,103.746 106.660,103.713 86.702 C 103.673 62.877,103.685 63.381,103.135 62.898 C 102.782 62.588,102.779 62.589,102.930 62.917 M155.241 63.037 C 155.471 63.366,155.500 65.199,155.503 79.412 C 155.504 89.457,155.565 95.510,155.667 95.667 C 155.772 95.829,155.829 90.237,155.831 79.716 C 155.833 63.163,155.815 62.667,155.214 62.667 C 155.023 62.667,155.027 62.733,155.241 63.037 M174.979 62.942 C 174.789 63.171,174.736 66.478,174.667 82.401 L 174.583 101.583 171.583 101.669 L 168.583 101.754 171.558 101.835 C 174.228 101.908,174.549 101.888,174.683 101.636 C 174.770 101.474,174.834 93.337,174.834 82.469 C 174.835 66.390,174.871 63.515,175.074 63.125 C 175.346 62.604,175.313 62.540,174.979 62.942 M181.268 62.917 C 181.352 63.105,181.436 73.135,181.461 85.986 C 181.493 102.279,181.558 108.786,181.690 108.945 C 181.923 109.226,182.232 109.237,182.052 108.958 C 181.977 108.844,181.879 98.496,181.833 85.964 C 181.753 63.886,181.740 63.169,181.435 62.881 C 181.131 62.594,181.125 62.595,181.268 62.917 M148.812 63.109 C 148.621 63.339,148.570 67.622,148.500 88.984 L 148.417 114.583 145.000 114.667 C 141.011 114.764,141.430 114.995,145.599 114.998 C 147.988 115.000,148.312 114.967,148.558 114.695 C 148.812 114.414,148.833 112.379,148.833 88.812 C 148.833 69.140,148.880 63.187,149.033 63.033 C 149.143 62.923,149.190 62.833,149.137 62.833 C 149.084 62.833,148.938 62.957,148.812 63.109 M70.461 63.500 C 70.393 63.729,70.337 75.290,70.336 89.191 C 70.334 112.082,70.308 114.474,70.070 114.566 C 69.925 114.621,68.331 114.675,66.528 114.686 C 64.327 114.699,63.469 114.750,63.917 114.843 C 65.276 115.124,69.877 115.023,70.292 114.704 L 70.668 114.414 70.626 88.749 C 70.602 74.633,70.528 63.271,70.461 63.500 M342.136 82.625 C 343.907 82.652,346.757 82.652,348.469 82.625 C 350.182 82.598,348.733 82.576,345.250 82.576 C 341.767 82.576,340.365 82.598,342.136 82.625 M338.552 82.875 C 338.373 83.151,338.273 93.840,338.448 94.015 C 338.522 94.089,338.562 91.886,338.537 89.118 C 338.511 86.351,338.558 83.767,338.642 83.376 C 338.799 82.637,338.779 82.524,338.552 82.875 M354.464 82.791 L 357.345 82.841 357.506 83.265 C 357.759 83.931,357.721 114.212,357.467 114.467 C 357.326 114.608,356.279 114.672,353.925 114.686 C 351.690 114.699,350.804 114.751,351.250 114.843 C 352.676 115.138,357.254 115.031,357.558 114.695 C 358.022 114.182,357.977 83.088,357.511 82.839 C 357.317 82.735,356.074 82.682,354.386 82.704 L 351.583 82.742 354.464 82.791 M338.426 94.636 C 338.210 95.317,337.805 95.344,328.389 95.296 C 319.787 95.252,319.352 95.235,319.017 94.933 C 318.534 94.495,318.518 95.018,319.000 95.500 C 319.399 95.899,337.046 96.033,337.901 95.644 C 338.270 95.475,338.778 94.556,338.599 94.377 C 338.561 94.339,338.484 94.456,338.426 94.636 M273.460 95.422 C 272.814 95.781,272.815 95.772,272.868 102.536 C 272.909 107.708,272.955 108.694,273.167 108.905 C 273.389 109.127,273.411 108.447,273.367 102.786 C 273.327 97.755,273.362 96.358,273.533 96.138 C 273.798 95.798,283.491 95.667,289.000 95.929 L 292.250 96.083 292.250 105.333 L 292.250 114.583 288.917 114.667 C 284.949 114.766,285.204 114.994,289.286 114.998 C 291.961 115.000,292.167 114.978,292.329 114.675 C 292.445 114.458,292.489 111.297,292.460 105.133 L 292.417 95.917 289.583 95.800 C 288.025 95.736,285.137 95.603,283.167 95.504 C 276.318 95.161,273.967 95.141,273.460 95.422 M25.016 95.636 C 24.775 96.088,24.759 108.768,25.000 108.917 C 25.110 108.985,25.167 106.811,25.167 102.520 C 25.167 98.945,25.223 95.985,25.292 95.943 C 25.511 95.808,37.627 95.781,40.860 95.909 C 43.853 96.027,43.973 96.045,44.066 96.391 C 44.323 97.352,44.170 114.463,43.903 114.566 C 43.758 114.621,42.127 114.675,40.278 114.686 C 38.032 114.699,37.138 114.751,37.583 114.843 C 38.730 115.080,43.707 115.022,44.042 114.768 C 44.469 114.444,44.496 96.098,44.070 95.934 C 43.925 95.879,42.655 95.833,41.247 95.833 C 39.840 95.833,38.515 95.768,38.303 95.687 C 37.327 95.317,25.212 95.271,25.016 95.636 M96.333 101.472 C 96.333 101.612,95.457 101.677,93.208 101.704 L 90.083 101.742 93.154 101.792 C 96.010 101.838,96.798 101.742,96.447 101.392 C 96.385 101.329,96.333 101.365,96.333 101.472 M246.475 102.131 C 246.810 102.601,246.833 102.832,246.833 105.619 C 246.833 107.743,246.893 108.685,247.042 108.888 C 247.210 109.118,247.239 108.527,247.192 105.795 C 247.133 102.366,247.092 102.150,246.447 101.805 C 246.133 101.637,246.134 101.653,246.475 102.131 M227.352 102.061 C 227.216 102.224,227.175 103.992,227.208 108.270 L 227.254 114.250 227.294 108.242 C 227.323 103.836,227.387 102.180,227.533 102.033 C 227.643 101.923,227.690 101.833,227.637 101.833 C 227.584 101.833,227.456 101.936,227.352 102.061 M312.166 105.050 L 312.249 108.083 312.295 105.179 C 312.321 103.582,312.283 102.217,312.212 102.145 C 312.141 102.074,312.121 103.381,312.166 105.050 M103.900 112.000 C 103.900 113.329,103.925 113.873,103.957 113.208 C 103.989 112.544,103.989 111.456,103.957 110.792 C 103.925 110.127,103.900 110.671,103.900 112.000 M273.566 112.000 C 273.566 113.329,273.592 113.873,273.624 113.208 C 273.655 112.544,273.655 111.456,273.624 110.792 C 273.592 110.127,273.566 110.671,273.566 112.000 M118.917 114.667 C 116.397 114.724,115.505 114.789,116.065 114.875 C 117.343 115.071,122.462 115.030,122.590 114.822 C 122.747 114.568,122.919 114.576,118.917 114.667 M223.750 114.667 C 221.917 114.712,220.554 114.806,220.722 114.875 C 221.212 115.076,226.963 115.028,227.090 114.822 C 227.247 114.569,227.393 114.576,223.750 114.667 " stroke="none" fill="#747454" fill-rule="evenodd"></path></g></svg>